<svg width="44" height="44" viewBox="0 0 44 44" fill="none" xmlns="http://www.w3.org/2000/svg">
<g clip-path="url(#clip0_105_325)">
<path d="M12.1792 27.9509L9.60162 26.9843C9.1117 26.8006 8.78702 26.3322 8.78702 25.8088V24.7959H5.02124V25.8089C5.02124 26.3322 4.69666 26.8006 4.20673 26.9843L1.62912 27.9509C0.649172 28.3184 0 29.2551 0 30.3017V34.8383C0 35.5316 0.562031 36.0936 1.25529 36.0936H13.8083V30.3017C13.8083 29.2551 13.1591 28.3184 12.1792 27.9509Z" fill="#74C3FE"/>
<path d="M6.90398 26.6789C7.60875 26.6789 8.28095 26.5434 8.90366 26.3065C8.83551 26.1509 8.78687 25.986 8.78687 25.8088V24.7959H5.02109V25.8089C5.02109 25.986 4.97253 26.1509 4.9043 26.3064C5.527 26.5434 6.1992 26.6789 6.90398 26.6789Z" fill="#6BBAF5"/>
<path d="M1.25529 36.0937H13.8083V30.3018C13.8083 29.2552 13.1591 28.3185 12.1791 27.951L9.70002 27.0214L7.79178 28.9296C7.30159 29.4198 6.50676 29.4198 6.01648 28.9296L4.10824 27.0214L1.62903 27.951C0.649172 28.3184 0 29.2551 0 30.3017V34.8383C0 35.5317 0.562031 36.0937 1.25529 36.0937Z" fill="#9DD5FF"/>
<path d="M6.92829 25.4236H6.87982C4.46669 25.4236 2.5105 23.4674 2.5105 21.0543V19.1229C2.5105 16.7097 4.46669 14.7535 6.87982 14.7535H6.92829C9.34141 14.7535 11.2976 16.7097 11.2976 19.1229V21.0542C11.2976 23.4673 9.34141 25.4236 6.92829 25.4236Z" fill="#74C3FE"/>
<path d="M5.02108 21.0301V19.1471C5.02108 17.1571 6.34494 15.4783 8.15934 14.9379C7.76136 14.8194 7.34053 14.7535 6.90405 14.7535C4.47761 14.7535 2.5105 16.7206 2.5105 19.1471V21.0301C2.5105 23.4565 4.47761 25.4236 6.90405 25.4236C7.34061 25.4236 7.76136 25.3578 8.15934 25.2393C6.34486 24.6988 5.02108 23.02 5.02108 21.0301Z" fill="#6BBAF5"/>
<path d="M1.95912 30.5208L0.396258 28.958C0.146008 29.3518 0 29.8133 0 30.3016V34.8382C0 35.5315 0.562031 36.0935 1.25529 36.0935H2.51058V31.8522C2.51058 31.3528 2.31223 30.8739 1.95912 30.5208Z" fill="#B0E1FE"/>
<path d="M6.27661 29.1233V36.0934H7.5319V29.1233C7.14381 29.3485 6.66462 29.3485 6.27661 29.1233Z" fill="#B0E1FE"/>
<path d="M6.90403 17.264C8.2904 17.264 9.41427 16.1401 9.41427 14.7538C9.41427 13.3674 8.2904 12.2435 6.90403 12.2435C5.51767 12.2435 4.3938 13.3674 4.3938 14.7538C4.3938 16.1401 5.51767 17.264 6.90403 17.264Z" fill="#1F98F3"/>
<path d="M2.5105 19.1471V20.5556C3.20573 20.2263 4.0572 19.7071 4.70878 18.9344C4.89913 18.7086 5.22475 18.6621 5.48222 18.8067C6.30962 19.2715 8.24992 20.1569 11.2976 20.3572V19.1471C11.2976 16.7206 9.33058 14.7535 6.90405 14.7535C4.47761 14.7535 2.5105 16.7206 2.5105 19.1471Z" fill="#1F98F3"/>
<path d="M4.50545 15.4688C3.30516 16.253 2.5105 17.6063 2.5105 19.147V20.5556C3.20565 20.2263 4.05729 19.707 4.70878 18.9344C4.80864 18.8159 4.94588 18.7499 5.09077 18.7319C4.62585 17.8484 4.26268 16.696 4.50545 15.4688Z" fill="#258DDC"/>
<path d="M42.621 26.3869L39.4655 24.926C39.0463 24.732 38.7762 24.2989 38.7762 23.821V21.584H34.1332V23.821C34.1332 24.2988 33.8631 24.7319 33.4439 24.9259L30.2884 26.3869C29.45 26.775 28.9097 27.641 28.9097 28.5967V36.0937H42.8388C43.4799 36.0937 43.9996 35.5523 43.9996 34.8845V28.5967C43.9997 27.641 43.4594 26.775 42.621 26.3869Z" fill="#74C3FE"/>
<path d="M42.621 26.3866L39.487 24.9358L37.2755 27.1473C36.8222 27.6006 36.0873 27.6006 35.6339 27.1473L33.4224 24.9357L30.2884 26.3866C29.45 26.7748 28.9097 27.6408 28.9097 28.5965V36.0935L42.8389 36.0935C43.48 36.0935 43.9997 35.5521 43.9997 34.8843V28.5965C43.9997 27.6408 43.4594 26.7748 42.621 26.3866Z" fill="#9DD5FF"/>
<path d="M34.1338 21.584V23.821C34.1338 24.0425 34.0706 24.2514 33.9666 24.4343C34.7068 24.8371 35.5549 25.0663 36.4553 25.0663C37.3558 25.0663 38.2037 24.8372 38.944 24.4344C38.8399 24.2515 38.7767 24.0425 38.7767 23.821V21.584H34.1338Z" fill="#6BBAF5"/>
<path d="M36.455 23.9054C34.2113 23.9054 32.3923 22.0865 32.3923 19.8427V16.3604H40.5177V19.8427C40.5177 22.0865 38.6989 23.9054 36.455 23.9054Z" fill="#74C3FE"/>
<path d="M34.7139 19.8427V16.3604H32.3923V19.8427C32.3923 22.0865 34.2113 23.9054 36.455 23.9054C36.8587 23.9054 37.2478 23.8446 37.6158 23.7349C35.938 23.2353 34.7139 21.6828 34.7139 19.8427Z" fill="#6BBAF5"/>
<path d="M37.0357 13.4587H35.875C33.6312 13.4587 31.8123 15.2777 31.8123 17.5214V18.4499C31.8123 18.88 32.2686 19.172 32.649 18.9714C33.2379 18.6608 33.9285 18.0814 34.3925 17.4564C34.58 17.204 34.9404 17.1665 35.1923 17.3545C37.034 18.7289 39.5991 18.413 40.6361 18.2081C40.9064 18.1547 41.0984 17.9151 41.0984 17.6397V17.5213C41.0984 15.2776 39.2795 13.4587 37.0357 13.4587Z" fill="#1F98F3"/>
<path d="M32.6491 18.9711C33.238 18.6606 33.9286 18.0812 34.3926 17.4561C34.4636 17.3605 34.5627 17.3059 34.668 17.2726C33.8475 16.1304 33.7916 14.8571 33.8935 13.9762C32.6524 14.6714 31.8123 15.9974 31.8123 17.5212V18.4497C31.8123 18.8797 32.2686 19.1717 32.6491 18.9711Z" fill="#258DDC"/>
<path d="M41.0984 31.0109C41.0984 30.5491 41.2818 30.1062 41.6083 29.7797L43.7913 27.5967C43.9259 27.905 44.0003 28.2445 44.0003 28.5966V34.8844C44.0003 35.5522 43.4807 36.0935 42.8396 36.0935H41.0984V31.0109Z" fill="#B0E1FE"/>
<path d="M35.8752 27.3269V36.0937H37.036V27.3269C36.6771 27.5352 36.234 27.5352 35.8752 27.3269Z" fill="#B0E1FE"/>
<path d="M29.3614 24.0059L25.4319 22.1867C24.91 21.9451 24.5735 21.4058 24.5735 20.8108V18.025L18.7916 18.0251V20.8109C18.7916 21.4059 18.4553 21.9451 17.9332 22.1867L14.0037 24.0059C12.9597 24.4892 12.2869 25.5678 12.2869 26.7578V34.588C12.2869 35.4196 12.9341 36.0937 13.7323 36.0937H29.6327C30.4311 36.0937 31.0782 35.4195 31.0782 34.588V26.7579C31.0782 25.5678 30.4054 24.4893 29.3614 24.0059Z" fill="#74C3FE"/>
<path d="M13.7324 36.0936L29.6328 36.0935C30.4312 36.0935 31.0783 35.4193 31.0783 34.5878V26.7577C31.0783 25.5675 30.4054 24.4891 29.3614 24.0057L25.4588 22.1989L22.7048 24.9529C22.1403 25.5174 21.2251 25.5174 20.6605 24.9529L17.9065 22.1989L14.0037 24.0057C12.9597 24.489 12.2869 25.5674 12.2869 26.7576V34.5878C12.2869 35.4194 12.9341 36.0936 13.7324 36.0936Z" fill="#6BBAF5"/>
<path d="M18.7915 18.025V20.8108C18.7915 21.0865 18.7128 21.3468 18.5833 21.5745C19.5051 22.0762 20.5611 22.3615 21.6825 22.3615C22.8038 22.3615 23.8597 22.0763 24.7817 21.5746C24.6521 21.3469 24.5734 21.0865 24.5734 20.8108V18.025H18.7915Z" fill="#6BBAF5"/>
<path d="M21.683 20.9159C18.8888 20.9159 16.6238 18.6507 16.6238 15.8566V11.5201H26.7423V15.8566C26.7422 18.6507 24.4771 20.9159 21.683 20.9159Z" fill="#74C3FE"/>
<path d="M19.5141 15.8566V11.5201H16.623V15.8566C16.623 18.6508 18.8882 20.9159 21.6823 20.9159C22.1849 20.9159 22.6695 20.8401 23.1277 20.7036C21.0385 20.0813 19.5141 18.1482 19.5141 15.8566Z" fill="#6BBAF5"/>
<path d="M22.4053 7.90625H20.9599C18.1657 7.90625 15.9006 10.1714 15.9006 12.9655V14.1217C15.9006 14.6572 16.4689 15.0209 16.9426 14.7711C17.6758 14.3844 18.5359 13.6629 19.1138 12.8845C19.3472 12.5702 19.796 12.5236 20.1099 12.7578C22.4033 14.4691 25.5977 14.0758 26.889 13.8207C27.2256 13.7543 27.4647 13.4559 27.4647 13.1129V12.9656C27.4646 10.1714 25.1994 7.90625 22.4053 7.90625Z" fill="#1F98F3"/>
<path d="M16.9427 14.7711C17.6759 14.3843 18.5359 13.6628 19.1138 12.8845C19.2023 12.7654 19.3256 12.6974 19.4569 12.6559C18.4351 11.2335 18.3654 9.64798 18.4923 8.5509C16.9468 9.41672 15.9006 11.0679 15.9006 12.9655V14.1217C15.9006 14.6573 16.4689 15.021 16.9427 14.7711Z" fill="#258DDC"/>
<path d="M15.9006 29.7642C15.9006 29.1892 15.6722 28.6377 15.2655 28.231L12.5471 25.5126C12.3795 25.8965 12.2869 26.3193 12.2869 26.7576V34.5878C12.2869 35.4195 12.9341 36.0936 13.7323 36.0936H15.9006V29.7642Z" fill="#74C3FE"/>
<path d="M27.4646 29.7642C27.4646 29.1892 27.693 28.6377 28.0997 28.231L30.8181 25.5126C30.9857 25.8965 31.0784 26.3193 31.0784 26.7576V34.5878C31.0784 35.4195 30.4312 36.0936 29.6329 36.0936H27.4646V29.7642Z" fill="#74C3FE"/>
<path d="M20.9597 25.1761V36.0934L22.4052 36.0933V25.1761C21.9584 25.4355 21.4066 25.4355 20.9597 25.1761Z" fill="#74C3FE"/>
</g>
<defs>
<clipPath id="clip0_105_325">
<rect width="44" height="44" fill="white"/>
</clipPath>
</defs>
</svg>
