<svg width="64" height="27" viewBox="0 0 64 27" fill="none" xmlns="http://www.w3.org/2000/svg">
<g clip-path="url(#clip0_132_2)">
<path fill-rule="evenodd" clip-rule="evenodd" d="M41.1815 21.2139C40.0165 21.539 38.4992 21.6745 37.1988 21.6745C33.8122 21.6745 31.5906 19.9134 31.5906 16.6894C31.5906 13.6278 33.6767 11.65 36.7111 11.65C37.3884 11.65 38.1199 11.7313 38.5534 11.9481V7.50476H41.1815V21.2139ZM38.5534 14.2239C38.147 14.0342 37.5781 13.9258 36.9278 13.9258C35.3294 13.9258 34.2728 14.9012 34.2728 16.6081C34.2728 18.4233 35.4107 19.4528 37.28 19.4528C37.6052 19.4528 38.1199 19.4528 38.5534 19.3445V14.2239ZM62.7749 21.2139C61.6098 21.539 60.0926 21.6745 58.765 21.6745C55.4055 21.6745 53.1567 19.9134 53.1567 16.6894C53.1567 13.6278 55.2429 11.65 58.2774 11.65C58.9818 11.65 59.6862 11.7313 60.1197 11.9481V7.50476H62.7749V21.2139ZM60.1197 14.2239C59.7133 14.0342 59.1714 13.9258 58.5212 13.9258C56.8956 13.9258 55.839 14.9012 55.839 16.6081C55.839 18.4233 57.004 19.4528 58.8734 19.4528C59.1985 19.4528 59.6862 19.4528 60.1197 19.3445V14.2239ZM45.3268 14.2239C45.7602 14.0342 46.3834 13.98 46.8982 13.98C48.5238 13.98 49.6346 14.9012 49.6346 16.5539C49.6346 18.5046 48.3883 19.3987 46.7356 19.4258V21.6745H46.8711C50.2848 21.6745 52.3168 19.8051 52.3168 16.4726C52.3168 13.4382 50.1494 11.65 46.9524 11.65C45.3268 11.65 43.7282 12.0293 42.6716 12.4628V25.3321H45.3268V14.2239Z" fill="#3F3F42"/>
<path fill-rule="evenodd" clip-rule="evenodd" d="M21.8912 5.39148L22.3247 5.87916L22.5685 5.74369L21.8912 5.39148V5.39148Z" fill="#DC0032"/>
<path fill-rule="evenodd" clip-rule="evenodd" d="M21.241 5.03931L22.0808 6.01467L22.3789 5.85211L22.0537 5.4728L21.241 5.03931V5.03931Z" fill="#DC0032"/>
<path fill-rule="evenodd" clip-rule="evenodd" d="M20.5637 4.68713L21.8371 6.15017L22.1351 5.98761L21.4036 5.12063L20.5637 4.68713V4.68713Z" fill="#DC0032"/>
<path fill-rule="evenodd" clip-rule="evenodd" d="M19.9135 4.33484L21.5932 6.28556L21.8913 6.123L20.7263 4.76833L19.9135 4.33484ZM23.1375 7.77566L22.9479 7.88403L23.1375 8.10078V7.77566V7.77566Z" fill="#DC0032"/>
<path fill-rule="evenodd" clip-rule="evenodd" d="M19.2632 3.98254L21.3494 6.42094L21.6474 6.25838L20.076 4.41604L19.2632 3.98254V3.98254ZM23.0291 7.82976L22.7311 8.01941L23.1375 8.50709V7.99232L23.0291 7.82976H23.0291Z" fill="#DC0032"/>
<path fill-rule="evenodd" clip-rule="evenodd" d="M18.5859 3.63037L21.1056 6.55645L21.4307 6.39389L19.4258 4.06386L18.5859 3.63037V3.63037ZM22.7854 7.96527L22.4873 8.15492L23.1376 8.91354V8.39876L22.7854 7.96527Z" fill="#DC0032"/>
<path fill-rule="evenodd" clip-rule="evenodd" d="M17.9357 3.2782L20.8888 6.69195L21.1869 6.52939L18.7485 3.71168L17.9357 3.2782V3.2782ZM22.5415 8.12786L22.2435 8.29042L23.1376 9.34706V8.83229L22.5415 8.12786Z" fill="#DC0032"/>
<path fill-rule="evenodd" clip-rule="evenodd" d="M17.2853 2.92603L20.6449 6.82745L20.9429 6.66489L18.0981 3.35952L17.2853 2.92603V2.92603ZM22.2975 8.26336L21.9995 8.42592L23.1374 9.75349V9.23872L22.2975 8.26336Z" fill="#DC0032"/>
<path fill-rule="evenodd" clip-rule="evenodd" d="M16.6082 2.57385L20.4012 6.96295L20.6992 6.80039L17.448 3.00734L16.6082 2.57385V2.57385ZM22.0538 8.39886L21.7559 8.56142L23.1376 10.1599V9.64516L22.0538 8.39886V8.39886Z" fill="#DC0032"/>
<path fill-rule="evenodd" clip-rule="evenodd" d="M15.9578 2.22156L20.1572 7.12543L20.4552 6.93578L16.7706 2.65505L15.9578 2.22156V2.22156ZM21.8099 8.53425L21.5119 8.69681L23.1374 10.5933V10.0786L21.8099 8.53425Z" fill="#DC0032"/>
<path fill-rule="evenodd" clip-rule="evenodd" d="M15.2806 1.86926L19.9136 7.26081L20.2116 7.07116L16.1205 2.30275L15.2806 1.86926ZM21.5933 8.66963L21.2682 8.83219L23.1376 10.9997V10.4849L21.5933 8.66963V8.66963Z" fill="#DC0032"/>
<path fill-rule="evenodd" clip-rule="evenodd" d="M14.6304 1.51709L19.6697 7.39628L19.9948 7.20666L15.4703 1.95058L14.6304 1.51709ZM21.3495 8.80514L21.0515 8.9677L23.1376 11.4332V10.8913L21.3495 8.80514V8.80514Z" fill="#DC0032"/>
<path fill-rule="evenodd" clip-rule="evenodd" d="M13.98 1.16492L19.4528 7.53179L19.7508 7.34213L14.7928 1.59841L13.98 1.16492V1.16492ZM21.1055 8.94064L20.8075 9.1032L23.1375 11.8396V11.3249L21.1055 8.94064V8.94064Z" fill="#DC0032"/>
<path fill-rule="evenodd" clip-rule="evenodd" d="M13.3029 0.785522L19.2092 7.66716L19.5072 7.47751L14.1428 1.24611L13.3029 0.785522ZM20.8619 9.07602L20.5638 9.23858L23.1377 12.2459V11.7312L20.8619 9.07602V9.07602Z" fill="#DC0032"/>
<path fill-rule="evenodd" clip-rule="evenodd" d="M12.6525 0.43335L18.9652 7.80267L19.2632 7.64011L13.4924 0.893933L12.6525 0.43335ZM20.6179 9.21152L20.3198 9.37408L23.1375 12.6794V12.1376L20.6179 9.21152V9.21152Z" fill="#DC0032"/>
<path fill-rule="evenodd" clip-rule="evenodd" d="M12.0022 0.108398L18.7213 7.9383L19.0193 7.77574L12.815 0.541889L12.0022 0.108398ZM20.374 9.34715L20.0759 9.50971L23.1374 13.086V12.5712L20.374 9.34715V9.34715Z" fill="#DC0032"/>
<path fill-rule="evenodd" clip-rule="evenodd" d="M11.5687 0L18.4775 8.07374L18.7755 7.91118L12.1648 0.189652L12.0022 0.108373C11.8668 0.0270931 11.7313 0 11.5687 0ZM20.1301 9.48259L19.8321 9.64515L23.1375 13.4924V12.9776L20.1301 9.48259V9.48259Z" fill="#DC0032"/>
<path fill-rule="evenodd" clip-rule="evenodd" d="M11.5689 0C11.4605 0 11.3521 0.0270931 11.2438 0.0541863L18.2338 8.20921L18.5589 8.04665L11.6502 0C11.6231 0 11.596 0 11.5689 0ZM19.9136 9.61806L19.6155 9.78062L23.1376 13.9259V13.384L19.9136 9.61806V9.61806Z" fill="#DC0032"/>
<path fill-rule="evenodd" clip-rule="evenodd" d="M11.3248 0.0269775C11.2706 0.0540707 11.1893 0.0811637 11.1622 0.108257L10.9996 0.189536L18.0167 8.34456L18.3148 8.182L11.3248 0.0269775V0.0269775ZM19.6694 9.75341L19.3714 9.94307L23.1373 14.3321V13.8174L19.6694 9.75341V9.75341Z" fill="#DC0032"/>
<path fill-rule="evenodd" clip-rule="evenodd" d="M11.054 0.135376L10.756 0.297935L17.7731 8.48005L18.0711 8.31749L11.054 0.135376V0.135376ZM19.4258 9.8889L19.1277 10.0786L23.1375 14.7386V14.2238L19.4258 9.8889V9.8889Z" fill="#DC0032"/>
<path fill-rule="evenodd" clip-rule="evenodd" d="M10.8102 0.270874L10.5122 0.433433L17.5293 8.61555L17.8273 8.45299L10.8102 0.270874V0.270874ZM19.182 10.0244L18.884 10.2141L23.1376 15.1721V14.6573L19.182 10.0244Z" fill="#DC0032"/>
<path fill-rule="evenodd" clip-rule="evenodd" d="M10.5665 0.406372L10.2684 0.568932L17.2855 8.75105L17.5836 8.58849L10.5665 0.406372V0.406372ZM18.9382 10.1599L18.6402 10.3496L23.1377 15.5785V15.0638L18.9382 10.1599Z" fill="#DC0032"/>
<path fill-rule="evenodd" clip-rule="evenodd" d="M10.3224 0.54187L10.0244 0.70443L17.0416 8.88655L17.3395 8.72399L10.3224 0.54187V0.54187ZM18.6942 10.2954L18.3962 10.4851L23.1375 15.985V15.4702L18.6942 10.2954V10.2954Z" fill="#DC0032"/>
<path fill-rule="evenodd" clip-rule="evenodd" d="M10.0787 0.677246L9.78064 0.839802L16.7978 9.02192L17.0958 8.85936L10.0787 0.677246V0.677246ZM18.4775 10.4308L18.1795 10.6204L23.1375 16.4184V15.9036L18.4775 10.4308V10.4308Z" fill="#DC0032"/>
<path fill-rule="evenodd" clip-rule="evenodd" d="M9.83489 0.785522L9.53687 0.975176L16.5811 9.1573L16.8791 8.99474L9.83489 0.785522V0.785522ZM18.2338 10.5932L17.9357 10.7558L23.1376 16.8247V16.3099L18.2338 10.5932V10.5932Z" fill="#DC0032"/>
<path fill-rule="evenodd" clip-rule="evenodd" d="M9.59087 0.921021L9.29285 1.08358L16.3371 9.2928L16.6351 9.13024L9.59087 0.921021V0.921021ZM17.9897 10.7287L17.6917 10.8913L23.1374 17.2582V16.7163L17.9897 10.7287Z" fill="#DC0032"/>
<path fill-rule="evenodd" clip-rule="evenodd" d="M9.3471 1.05652L9.04907 1.21908L16.0933 9.45539L16.3913 9.26573L9.3471 1.05652ZM17.746 10.8642L17.4479 11.0268L23.1375 17.6646V17.1498L17.746 10.8642Z" fill="#DC0032"/>
<path fill-rule="evenodd" clip-rule="evenodd" d="M9.10332 1.19202L8.8053 1.35457L15.8495 9.59088L16.1476 9.40123L9.10332 1.19202ZM17.5022 10.9997L17.2042 11.1623L23.1376 18.071V17.5563L17.5022 10.9997Z" fill="#DC0032"/>
<path fill-rule="evenodd" clip-rule="evenodd" d="M8.85955 1.32739L8.56152 1.48995L15.6058 9.72626L15.9038 9.53661L8.85955 1.32739V1.32739ZM17.2584 11.1351L16.9604 11.2977L23.1376 18.5044V17.9626L17.2584 11.1351V11.1351Z" fill="#DC0032"/>
<path fill-rule="evenodd" clip-rule="evenodd" d="M8.61553 1.46289L8.3175 1.62545L15.3617 9.86176L15.6598 9.67211L8.61553 1.46289ZM17.0415 11.2706L16.7435 11.4332L23.1374 18.9109V18.3961L17.0415 11.2706V11.2706Z" fill="#DC0032"/>
<path fill-rule="evenodd" clip-rule="evenodd" d="M8.37163 1.57129L8.04651 1.73385L15.1449 9.99725L15.443 9.8076L8.37163 1.57129V1.57129ZM16.7976 11.4061L16.4996 11.5687L23.1374 19.3173V18.8025L16.7976 11.4061V11.4061Z" fill="#DC0032"/>
<path fill-rule="evenodd" clip-rule="evenodd" d="M8.12798 1.70679L7.80286 1.86934L14.9284 10.1598C14.9555 10.1057 14.9825 10.0786 15.0367 10.0515L15.1993 9.9431L8.12798 1.70679L8.12798 1.70679ZM16.554 11.5416L16.2559 11.7042L23.0834 19.6695C23.1105 19.5883 23.1376 19.507 23.1376 19.4257V19.2089L16.554 11.5416H16.554Z" fill="#DC0032"/>
<path fill-rule="evenodd" clip-rule="evenodd" d="M7.8842 1.84229L7.55908 2.00485L14.8472 10.485V10.3766C14.8472 10.2953 14.9013 10.187 14.9555 10.1057L7.8842 1.84229ZM16.3102 11.6771L16.0934 11.8126C16.0663 11.8126 16.0393 11.8397 16.0122 11.8397L22.948 19.9405C23.0293 19.8321 23.0835 19.7238 23.1105 19.6154L16.3102 11.6771V11.6771Z" fill="#DC0032"/>
<path fill-rule="evenodd" clip-rule="evenodd" d="M7.64039 1.97778L7.31531 2.14034L14.8472 10.9185V10.3767L7.64039 1.97778V1.97778ZM15.5516 11.7042L22.7584 20.1302C22.8396 20.076 22.9209 19.9676 23.0022 19.8863L16.0664 11.8126C15.958 11.8668 15.7954 11.8668 15.6871 11.8126L15.5516 11.7042Z" fill="#DC0032"/>
<path fill-rule="evenodd" clip-rule="evenodd" d="M7.39637 2.11328L7.07129 2.27584L22.5143 20.2657L22.7311 20.1573C22.7582 20.1302 22.7853 20.1031 22.8124 20.076L15.714 11.8126H15.6869L15.0638 11.4333C15.0096 11.4062 14.9825 11.3521 14.9283 11.2979C14.8741 11.2166 14.8741 11.1624 14.847 11.1082V10.8102L7.39637 2.11328V2.11328Z" fill="#DC0032"/>
<path fill-rule="evenodd" clip-rule="evenodd" d="M7.15263 2.24866L6.82751 2.41122L22.2706 20.4011L22.5686 20.2385L7.15263 2.24866Z" fill="#DC0032"/>
<path fill-rule="evenodd" clip-rule="evenodd" d="M6.90886 2.35693L6.58374 2.51949L22.0539 20.5364L22.3519 20.3739L6.90886 2.35693Z" fill="#DC0032"/>
<path fill-rule="evenodd" clip-rule="evenodd" d="M6.66484 2.49243L6.33972 2.65499L21.8099 20.6719L22.1079 20.5094L6.66484 2.49243Z" fill="#DC0032"/>
<path fill-rule="evenodd" clip-rule="evenodd" d="M6.42107 2.62793L6.09595 2.79049L21.5661 20.8074L21.8642 20.6449L6.42107 2.62793Z" fill="#DC0032"/>
<path fill-rule="evenodd" clip-rule="evenodd" d="M6.1502 2.76343L5.85217 2.92599L21.3224 20.97L21.6204 20.7804L6.1502 2.76343Z" fill="#DC0032"/>
<path fill-rule="evenodd" clip-rule="evenodd" d="M5.90643 2.8988L5.6084 3.06136L21.0786 21.1054L21.3766 20.9157L5.90643 2.8988Z" fill="#DC0032"/>
<path fill-rule="evenodd" clip-rule="evenodd" d="M5.66241 3.0343L5.36438 3.19686L20.8617 21.2409L21.1597 21.0512L5.66241 3.0343Z" fill="#DC0032"/>
<path fill-rule="evenodd" clip-rule="evenodd" d="M5.41863 3.1427L5.12061 3.30526L20.6179 21.3764L20.9159 21.1867L5.41863 3.1427Z" fill="#DC0032"/>
<path fill-rule="evenodd" clip-rule="evenodd" d="M5.17486 3.2782L4.87683 3.44076L20.3741 21.5119L20.6721 21.3493L5.17486 3.2782Z" fill="#DC0032"/>
<path fill-rule="evenodd" clip-rule="evenodd" d="M4.93084 3.4137L4.63281 3.57626L12.1647 12.3544L12.4085 12.517C12.5169 12.5712 12.6253 12.7066 12.6253 12.8421V12.8692L20.1301 21.6474L20.4281 21.4848L4.93084 3.4137Z" fill="#DC0032"/>
<path fill-rule="evenodd" clip-rule="evenodd" d="M4.68706 3.54919L4.38904 3.71174L11.4604 11.9752L12.3544 12.4628L4.68706 3.54919ZM12.5982 12.7608C12.5982 12.7879 12.6253 12.815 12.6253 12.8421V13.3027L19.8863 21.7829L20.1843 21.6203L12.5982 12.7608V12.7608Z" fill="#DC0032"/>
<path fill-rule="evenodd" clip-rule="evenodd" d="M4.44329 3.68457L4.14526 3.84713L10.756 11.5687L11.6501 12.0564L4.44329 3.68457V3.68457ZM12.6254 13.1943V13.709L19.6696 21.9183L19.9677 21.7557L12.6254 13.1943V13.1943Z" fill="#DC0032"/>
<path fill-rule="evenodd" clip-rule="evenodd" d="M4.19927 3.82007L3.90125 3.98263L10.0785 11.1623L10.9455 11.65L4.19927 3.82007V3.82007ZM12.6252 13.6007V14.1426L19.4256 22.0537L19.7236 21.8912L12.6252 13.6007V13.6007Z" fill="#DC0032"/>
<path fill-rule="evenodd" clip-rule="evenodd" d="M3.9555 3.92834L3.65747 4.0909L9.37413 10.7558L10.2411 11.2706L3.9555 3.92834ZM12.6253 14.0341V14.5489L19.1818 22.1891L19.4799 22.0265L12.6253 14.0341V14.0341Z" fill="#DC0032"/>
<path fill-rule="evenodd" clip-rule="evenodd" d="M3.71171 4.06384L3.4137 4.2264L8.66976 10.3495L9.53674 10.8642L3.71171 4.06384V4.06384ZM12.6253 14.4405V14.9553L18.9381 22.3246L19.2361 22.162L12.6253 14.4405V14.4405Z" fill="#DC0032"/>
<path fill-rule="evenodd" clip-rule="evenodd" d="M3.46807 4.19934L3.17004 4.3619L7.96551 9.97018L8.8325 10.4579L3.46807 4.19934ZM12.6255 14.8469V15.3888L18.6944 22.4872L18.9924 22.2975L12.6255 14.8469V14.8469Z" fill="#DC0032"/>
<path fill-rule="evenodd" clip-rule="evenodd" d="M3.22393 4.33484L2.9259 4.4974L7.26082 9.56382L8.12777 10.0515L3.22393 4.33484V4.33484ZM12.6252 15.2805V15.7952L18.4774 22.6227L18.7754 22.433L12.6252 15.2805V15.2805Z" fill="#DC0032"/>
<path fill-rule="evenodd" clip-rule="evenodd" d="M2.98015 4.47021L2.68213 4.63277L6.55646 9.15733L7.4505 9.64501L2.98015 4.47021V4.47021ZM12.6253 15.6868V16.2016L18.2336 22.7581L18.5316 22.5684L12.6253 15.6868Z" fill="#DC0032"/>
<path fill-rule="evenodd" clip-rule="evenodd" d="M2.7365 4.60571L2.43848 4.76827L5.85222 8.75096L6.7463 9.26573L2.7365 4.60571V4.60571ZM9.8349 13.3839L10.5393 14.1967V13.8987C10.5393 13.8445 10.4851 13.7632 10.431 13.7361L9.8349 13.3839V13.3839ZM12.6255 16.0932V16.6351L17.9899 22.8936L18.288 22.7039L12.6255 16.0932V16.0932Z" fill="#DB0032"/>
<path fill-rule="evenodd" clip-rule="evenodd" d="M2.49273 4.71411L2.1947 4.87667L5.14785 8.34458L6.04193 8.85936L2.49273 4.71411V4.71411ZM9.13054 12.9775L10.5394 14.6031V14.0883L10.0246 13.4923L9.13054 12.9775V12.9775ZM12.6255 16.5267V17.0415L17.7461 23.0291L18.0442 22.8665L12.6255 16.5267V16.5267Z" fill="#DC0032"/>
<path fill-rule="evenodd" clip-rule="evenodd" d="M2.24871 4.84961L1.95068 5.01217L4.47034 7.96531L5.33733 8.45299L2.24871 4.84961V4.84961ZM8.42593 12.5982L10.5392 15.0366V14.5219L9.32001 13.0859L8.42593 12.5982ZM12.6254 16.9332V17.4479L17.5021 23.1646L17.8002 23.002L12.6254 16.9332Z" fill="#DC0032"/>
<path fill-rule="evenodd" clip-rule="evenodd" d="M2.00493 4.98511L1.70691 5.14767L3.76598 7.55894L4.63296 8.04662L2.00493 4.98511V4.98511ZM7.74866 12.1919L10.5393 15.4431V14.9283L8.61565 12.6795L7.74866 12.1919ZM12.6254 17.3667V17.8814L17.2854 23.3001L17.5835 23.1375L12.6254 17.3667V17.3667Z" fill="#DC0032"/>
<path fill-rule="evenodd" clip-rule="evenodd" d="M1.76116 5.12061L1.46313 5.28317L3.06163 7.15261L3.9286 7.64025L1.76116 5.12061V5.12061ZM7.04434 11.7855L10.5393 15.8495V15.3347L7.91129 12.3003L7.04434 11.7855ZM12.6255 17.7731V18.2879L17.0417 23.4356L17.3397 23.273L12.6255 17.7731V17.7731Z" fill="#DC0032"/>
<path fill-rule="evenodd" clip-rule="evenodd" d="M1.51714 5.25598L1.21912 5.41854L2.35703 6.74611L3.224 7.26089L1.51714 5.25598ZM6.33973 11.379L10.5392 16.2829V15.7681L7.20671 11.8938L6.33973 11.379ZM12.6253 18.1794V18.6942L16.7977 23.5709L17.0957 23.4084L12.6253 18.1794V18.1794Z" fill="#DC0032"/>
<path fill-rule="evenodd" clip-rule="evenodd" d="M1.27336 5.39148L0.975342 5.55404L1.65267 6.33975L2.54674 6.85452L1.27336 5.39148V5.39148ZM5.63537 10.9998L10.5392 16.6893V16.1746L6.50235 11.4874L5.63537 10.9998ZM12.6254 18.6129V19.1277L16.5539 23.7064L16.8519 23.5439L12.6254 18.6129V18.6129Z" fill="#DC0032"/>
<path fill-rule="evenodd" clip-rule="evenodd" d="M1.02946 5.49976L0.704346 5.66232L0.948182 5.96034L1.84225 6.44802L1.02946 5.49976ZM4.93087 10.5933L10.5392 17.1227V16.5809L5.82495 11.0809L4.93087 10.5933ZM12.6253 19.0192V19.534L16.31 23.8689L16.608 23.6792L12.6253 19.0192Z" fill="#DC0032"/>
<path fill-rule="evenodd" clip-rule="evenodd" d="M0.785597 5.63525L0.595947 5.74363L1.13781 6.04165L0.785597 5.63525V5.63525ZM4.22642 10.1869L10.5391 17.5291V17.0144L5.1205 10.7017L4.22642 10.1869V10.1869ZM12.6253 19.4257V19.9675L16.0932 24.0044L16.3913 23.8147L12.6253 19.4257V19.4257Z" fill="#DC0032"/>
<path fill-rule="evenodd" clip-rule="evenodd" d="M3.54907 9.78052L10.5391 17.9355V17.4208L4.41605 10.2953L3.54907 9.78052ZM12.6253 19.8592V20.3739L15.8494 24.1399L16.1474 23.9502L12.6253 19.8592V19.8592Z" fill="#DC0032"/>
<path fill-rule="evenodd" clip-rule="evenodd" d="M2.84473 9.40125L10.5392 18.3691V17.8272L3.7117 9.88892L2.84473 9.40125V9.40125ZM12.6253 20.2656V20.7804L15.6056 24.2754L15.9036 24.0857L12.6253 20.2656V20.2656Z" fill="#DC0032"/>
<path fill-rule="evenodd" clip-rule="evenodd" d="M2.14026 8.99475L10.5391 18.7754V18.2606L3.00724 9.48243L2.14026 8.99475V8.99475ZM12.6253 20.6719V21.2138L15.3617 24.4107L15.6597 24.2482L12.6253 20.6719Z" fill="#DC0032"/>
<path fill-rule="evenodd" clip-rule="evenodd" d="M1.43591 8.58838L10.5392 19.1818V18.667L2.30289 9.10315L1.43591 8.58838ZM12.6254 21.1054V21.6202L15.1179 24.5462L15.416 24.3837L12.6254 21.1054V21.1054Z" fill="#DB0032"/>
<path fill-rule="evenodd" clip-rule="evenodd" d="M0.731567 8.18213L10.5393 19.6154V19.1007L1.59855 8.6969L0.731567 8.18213ZM12.6254 21.512V22.0267L14.9013 24.6819L15.1993 24.5193L12.6254 21.512V21.512Z" fill="#DA0032"/>
<path fill-rule="evenodd" clip-rule="evenodd" d="M0.0272217 7.80273L10.5394 20.0218V19.507L0.921295 8.29041L0.0272217 7.80273V7.80273ZM12.6255 21.9183V22.4601L14.6575 24.8172L14.9555 24.6547L12.6255 21.9183Z" fill="#D90032"/>
<path fill-rule="evenodd" clip-rule="evenodd" d="M0 7.77576V8.15506L10.5392 20.4283V19.9135L0.216745 7.88413L0 7.77576ZM12.6254 22.3519V22.677C12.6254 22.7312 12.5983 22.7854 12.5712 22.8124L14.4135 24.9528L14.7116 24.7903L12.6254 22.3519V22.3519Z" fill="#D80032"/>
<path fill-rule="evenodd" clip-rule="evenodd" d="M0 8.04663V8.5885L10.5392 20.8617V20.3469L0 8.04663ZM12.5983 22.7582C12.5712 22.8666 12.4899 22.9749 12.4086 23.002L12.3815 23.0291L14.1697 25.0882L14.4677 24.9257L12.5983 22.7582L12.5983 22.7582Z" fill="#D70032"/>
<path fill-rule="evenodd" clip-rule="evenodd" d="M0 8.4801V8.99488L10.5392 21.2681V20.7533L0 8.4801ZM12.4357 22.9749C12.4357 23.002 12.4357 23.002 12.4086 23.002L12.1377 23.1646L13.9259 25.2237L14.2239 25.0611L12.4357 22.9749L12.4357 22.9749Z" fill="#D60032"/>
<path fill-rule="evenodd" clip-rule="evenodd" d="M0 8.88647V9.40125L10.5392 21.6745V21.1597L0 8.88647ZM12.219 23.1104L11.8939 23.3L13.7091 25.3862L14.0071 25.1966L12.219 23.1104Z" fill="#D50032"/>
<path fill-rule="evenodd" clip-rule="evenodd" d="M0 9.31995V9.83472L10.5392 22.1079V21.5932L0 9.31995ZM11.9752 23.2458L11.7855 23.3542C11.7313 23.3813 11.6772 23.3813 11.623 23.3813L13.4653 25.5217L13.7633 25.332L11.9752 23.2458V23.2458Z" fill="#D40032"/>
<path fill-rule="evenodd" clip-rule="evenodd" d="M0 9.72632V10.2411L10.5392 22.5143V21.9995L0 9.72632ZM11.1353 23.2458L13.2214 25.6571L13.5195 25.4674L11.7042 23.3812C11.6772 23.3812 11.623 23.4083 11.5959 23.4083H11.5688C11.4875 23.4083 11.4333 23.3812 11.3791 23.3542L11.1353 23.2458L11.1353 23.2458Z" fill="#D30032"/>
<path fill-rule="evenodd" clip-rule="evenodd" d="M0 10.1328V10.6747L12.9776 25.7927L13.2756 25.603L11.3249 23.3272L10.7289 23.002C10.6205 22.9479 10.5392 22.8124 10.5392 22.6769V22.406L0 10.1328Z" fill="#D20032"/>
<path fill-rule="evenodd" clip-rule="evenodd" d="M0 10.5662V11.0809L12.7338 25.928L13.0318 25.7654L0 10.5662Z" fill="#D10032"/>
<path fill-rule="evenodd" clip-rule="evenodd" d="M0 10.9727V11.4874L12.4899 26.0635L12.7879 25.901L0 10.9727Z" fill="#D00032"/>
<path fill-rule="evenodd" clip-rule="evenodd" d="M0 11.379V11.9209L12.2732 26.199L12.5712 26.0364L0 11.379Z" fill="#CF0032"/>
<path fill-rule="evenodd" clip-rule="evenodd" d="M0 11.8126V12.3274L12.0294 26.3345L12.3274 26.172L0 11.8126Z" fill="#CE0032"/>
<path fill-rule="evenodd" clip-rule="evenodd" d="M0 12.219V12.7338L11.7584 26.4429C11.8397 26.4158 11.921 26.3887 12.0023 26.3616L12.0836 26.3075L0 12.219Z" fill="#CD0032"/>
<path fill-rule="evenodd" clip-rule="evenodd" d="M0 12.6252V13.1671L11.4062 26.4428C11.4604 26.4428 11.5146 26.4428 11.5688 26.4428C11.6501 26.4428 11.7313 26.4428 11.8126 26.4157L0 12.6252Z" fill="#CC0032"/>
<path fill-rule="evenodd" clip-rule="evenodd" d="M0 13.0588V13.5736L10.7831 26.1448L11.1624 26.3616C11.2437 26.4158 11.3791 26.4429 11.4875 26.4429L0 13.0588Z" fill="#CB0032"/>
<path fill-rule="evenodd" clip-rule="evenodd" d="M0 13.4652V13.98L10.0786 25.7384L10.9727 26.2532L0 13.4652Z" fill="#CA0032"/>
<path fill-rule="evenodd" clip-rule="evenodd" d="M0 13.8987V14.4135L9.37422 25.332L10.2683 25.8468L0 13.8987Z" fill="#C90032"/>
<path fill-rule="evenodd" clip-rule="evenodd" d="M0 14.3051V14.8198L8.66979 24.9256L9.53678 25.4403L0 14.3051Z" fill="#C80033"/>
<path fill-rule="evenodd" clip-rule="evenodd" d="M0 14.7115V15.2263L7.96537 24.5193L8.83235 25.034L0 14.7115Z" fill="#C70033"/>
<path fill-rule="evenodd" clip-rule="evenodd" d="M0 15.1449V15.6597L7.23388 24.0856L8.12793 24.6004L0 15.1449Z" fill="#C60033"/>
<path fill-rule="evenodd" clip-rule="evenodd" d="M0 15.5514V16.0662L6.52946 23.6793L7.4235 24.1941L0 15.5514Z" fill="#C50033"/>
<path fill-rule="evenodd" clip-rule="evenodd" d="M0 15.9578V16.4725L5.82503 23.2729L6.71911 23.7877L0 15.9578V15.9578Z" fill="#C40033"/>
<path fill-rule="evenodd" clip-rule="evenodd" d="M0 16.3914V16.9061L5.1206 22.8666L6.01468 23.3814L0 16.3914Z" fill="#C30033"/>
<path fill-rule="evenodd" clip-rule="evenodd" d="M0 16.7977V17.3125L4.41618 22.4602L5.31026 22.9749L0 16.7977Z" fill="#C20033"/>
<path fill-rule="evenodd" clip-rule="evenodd" d="M0 17.204V17.7458L3.71175 22.0537L4.57874 22.5684L0 17.204Z" fill="#C10033"/>
<path fill-rule="evenodd" clip-rule="evenodd" d="M0 17.6376V18.1523L2.98024 21.6474L3.87431 22.1621L0 17.6376Z" fill="#C00033"/>
<path fill-rule="evenodd" clip-rule="evenodd" d="M0 18.0439V18.5587L2.27582 21.241L3.1699 21.7286L0 18.0439Z" fill="#BF0033"/>
<path fill-rule="evenodd" clip-rule="evenodd" d="M0 18.4504V18.9923L1.5714 20.8076L2.46548 21.3223L0 18.4504Z" fill="#BE0033"/>
<path fill-rule="evenodd" clip-rule="evenodd" d="M0 18.8838V19.3986L0.866979 20.401L1.76105 20.9158L0 18.8838Z" fill="#BD0033"/>
<path fill-rule="evenodd" clip-rule="evenodd" d="M0 19.2903V19.4257C0 19.6967 0.189652 20.0218 0.406396 20.1573L1.05663 20.5095L0 19.2903V19.2903Z" fill="#BC0033"/>
<path fill-rule="evenodd" clip-rule="evenodd" d="M0.162476 19.9133C0.216662 19.9675 0.243755 20.0217 0.297941 20.0488L0.162476 19.9133Z" fill="#BB0033"/>
</g>
<defs>
<clipPath id="clip0_132_2">
<rect width="64" height="26.88" fill="white"/>
</clipPath>
</defs>
</svg>
