<svg width="55" height="17" viewBox="0 0 55 17" fill="none" xmlns="http://www.w3.org/2000/svg">
<g clip-path="url(#clip0_108_359)">
<path d="M50.1387 16.2491L47.8849 13.7214L45.6519 16.2491H40.9541L45.5468 11.0886L40.9541 5.92737H45.7997L48.0744 8.43409L50.2649 5.92737H54.9419L50.3709 11.0673L55.0045 16.2491H50.1387Z" fill="#EE7203"/>
<path d="M31.929 16.2491L29.7229 7.90903L31.929 -0.010498H40.9541V3.6138H35.7518V5.92736H40.9541V9.41434H35.7518V12.615H40.9541V16.2491H31.929Z" fill="#EE7203"/>
<path d="M28.1218 -0.0106201V6.64352H28.0799C27.2369 5.67479 26.1838 5.3379 24.9622 5.3379C22.4592 5.3379 20.5738 7.03969 19.9121 9.28898C19.157 6.81066 17.2107 5.29157 14.3245 5.29157C11.9803 5.29157 10.1298 6.34358 9.1637 8.05796V5.92722H4.31885V3.61366H9.60619V-0.0106201H0V16.2489H4.31885V9.4143H8.62356C8.49527 9.91643 8.42649 10.454 8.42649 11.0213C8.42649 14.4129 11.0175 16.7928 14.3245 16.7928C17.1051 16.7928 18.9377 15.4872 19.9068 13.1074H16.2057C15.7051 13.8228 15.3253 14.0348 14.3245 14.0348C13.164 14.0348 12.1633 13.0223 12.1633 11.8219H19.6995C20.0263 14.5159 22.125 16.8392 25.0047 16.8392C26.2469 16.8392 27.3847 16.2281 28.0799 15.1963H28.1218V16.249H31.9289V-0.0106201H28.1218ZM12.2835 9.46277C12.5237 8.43024 13.3247 7.75504 14.3248 7.75504C15.4256 7.75504 16.1857 8.40934 16.3857 9.46277H12.2835ZM25.8113 13.7735C24.4079 13.7735 23.5359 12.4657 23.5359 11.1004C23.5359 9.64119 24.2946 8.2378 25.8113 8.2378C27.3843 8.2378 28.0107 9.64107 28.0107 11.1004C28.0107 12.4843 27.3467 13.7735 25.8113 13.7735Z" fill="#482683"/>
</g>
<defs>
<clipPath id="clip0_108_359">
<rect width="55" height="16.2743" fill="white"/>
</clipPath>
</defs>
</svg>
