<svg width="85" height="85" viewBox="0 0 85 85" fill="none" xmlns="http://www.w3.org/2000/svg">
<path d="M44.7891 3.67991C46.7425 2.44707 49.3021 2.81495 50.829 4.54827C52.0278 5.90912 53.9023 6.45958 55.6466 5.96284C57.8682 5.33027 60.2205 6.4045 61.1971 8.49771C61.964 10.1413 63.6074 11.1973 65.421 11.2123C67.7307 11.2311 69.6851 12.9245 70.0325 15.2083C70.3054 17.0013 71.5846 18.4777 73.3205 19.0029C75.5315 19.6718 76.9294 21.8471 76.6195 24.1362C76.3761 25.9334 77.1877 27.7104 78.7053 28.7034C80.6382 29.9682 81.3668 32.4492 80.4245 34.5582C79.6846 36.214 79.9626 38.1478 81.139 39.528C82.6374 41.2861 82.6374 43.8718 81.139 45.63C79.9626 47.0104 79.6846 48.9439 80.4245 50.5997C81.3668 52.7088 80.6383 55.1899 78.7053 56.4545C77.1877 57.4475 76.3761 59.2245 76.6195 61.0218C76.9296 63.3108 75.5315 65.4861 73.3205 66.1551C71.5846 66.6802 70.3052 68.1567 70.0325 69.9496C69.6851 72.2333 67.7307 73.9266 65.421 73.9457C63.6074 73.9605 61.964 75.0167 61.1971 76.6602C60.2203 78.7534 57.8682 79.8277 55.6466 79.1951C53.9024 78.6984 52.028 79.2488 50.829 80.6097C49.3021 82.343 46.7425 82.711 44.7891 81.478C43.2553 80.5101 41.3019 80.5101 39.7681 81.478C37.8147 82.7109 35.2551 82.3428 33.7282 80.6097C32.5294 79.2488 30.6549 78.6984 28.9106 79.1951C26.689 79.8277 24.3367 78.7534 23.3601 76.6602C22.5932 75.0167 20.9498 73.9606 19.1362 73.9457C16.8265 73.9268 14.8721 72.2334 14.5247 69.9496C14.2518 68.1567 12.9726 66.6802 11.2367 66.1551C9.02567 65.4861 7.62776 63.3108 7.93767 61.0218C8.18111 59.2245 7.36953 57.4475 5.85194 56.4545C3.91904 55.1897 3.19042 52.7088 4.13273 50.5997C4.87257 48.9439 4.59462 47.0102 3.41822 45.63C1.91984 43.8718 1.91984 41.2859 3.41822 39.528C4.59462 38.1476 4.87257 36.214 4.13273 34.5582C3.19042 32.4492 3.91887 29.968 5.85194 28.7034C7.36953 27.7104 8.18111 25.9334 7.93767 24.1362C7.62759 21.8471 9.02567 19.6718 11.2367 19.0029C12.9726 18.4777 14.252 17.0013 14.5247 15.2083C14.8721 12.9247 16.8265 11.2313 19.1362 11.2123C20.9498 11.1975 22.5932 10.1413 23.3601 8.49771C24.3369 6.4045 26.689 5.33027 28.9106 5.96284C30.6548 6.45958 32.5294 5.90912 33.7282 4.54827C35.2551 2.81495 37.8147 2.44707 39.7681 3.67991C41.3019 4.64789 43.2553 4.64789 44.7891 3.67991Z" fill="#64BD56"/>
<g clip-path="url(#clip0_108_537)">
<path d="M37.5302 56.4112C39.2776 54.7809 39.5457 52.2284 38.1291 50.7099C36.7124 49.1915 34.1474 49.2821 32.4 50.9124C30.6526 52.5427 30.3845 55.0952 31.8012 56.6136C33.2178 58.1321 35.7828 58.0414 37.5302 56.4112Z" fill="white"/>
<path d="M60.6544 56.4107C62.4018 54.7804 62.6699 52.2279 61.2532 50.7094C59.8365 49.191 57.2716 49.2816 55.5242 50.9119C53.7768 52.5422 53.5087 55.0947 54.9253 56.6132C56.342 58.1316 58.907 58.0409 60.6544 56.4107Z" fill="white"/>
<path d="M19.1871 36.4849C19.1871 35.4758 18.3691 34.6578 17.36 34.6578C16.351 34.6578 15.533 35.4758 15.533 36.4849C15.533 37.494 16.351 38.312 17.36 38.312C18.3691 38.312 19.1871 37.494 19.1871 36.4849Z" fill="white"/>
<path d="M52.0285 53.3003C52.678 50.0902 55.7105 47.5393 58.9698 47.5393C62.2291 47.5393 64.3713 49.9051 64.3092 52.9472C67.7033 53.036 68.6481 48.5665 68.6481 48.5665C68.9338 47.3167 69.3608 44.8803 69.7182 42.4888C69.8327 41.7226 69.7428 40.9704 69.4581 40.3049C68.9081 39.0187 67.8296 36.7214 66.2545 34.3684C65.0796 32.6135 63.1033 31.5724 60.8498 31.536C59.5059 31.5136 58.1855 31.5018 57.1903 31.5018L57.1818 31.4932C57.0544 29.3435 55.4869 27.6989 53.288 27.502C51.8573 27.3736 46.1905 27.2816 43.4705 27.2816C42.3898 27.2816 40.8382 27.2966 39.2696 27.3223V27.3159H39.2589L39.2535 27.3137L39.2493 27.3159H20.3955C19.3864 27.3159 18.5679 28.1344 18.5679 29.1435V29.1531C18.5679 30.1568 19.3821 30.9711 20.3858 30.9711L24.1876 30.9764C25.1303 31.0438 25.8729 31.8292 25.8729 32.789V32.7987C25.8729 33.8077 25.0543 34.6263 24.0453 34.6263H22.0979C21.0888 34.6263 20.2703 35.4448 20.2703 36.4539C20.2703 37.4629 21.0888 38.2814 22.0979 38.2814H24.0453C25.0543 38.2814 25.8729 39.1 25.8729 40.109C25.8729 41.1181 25.0543 41.9366 24.0453 41.9366H16.7563C15.7473 41.9366 14.9287 42.7552 14.9287 43.7642C14.9287 44.7733 15.7473 45.5918 16.7563 45.5918H24.0474C25.0565 45.5918 25.875 46.4104 25.875 47.4194C25.875 48.4285 25.0565 49.247 24.0474 49.247H21.794C20.7849 49.247 19.9664 50.0656 19.9664 51.0746C19.9664 52.0837 20.7849 52.9022 21.794 52.9022L28.9899 52.8969L29.5891 51.4063C30.8143 49.1454 33.2518 47.5446 35.8327 47.5446C39.093 47.5446 41.4096 50.0977 41.1539 53.3099H52.0264L52.0285 53.3003ZM57.017 34.0377C57.9714 34.0388 59.2095 34.0517 60.4507 34.072C61.9551 34.0966 63.2713 34.7868 64.0609 35.967C65.0165 37.3955 65.7805 38.809 66.3337 39.94C66.6857 40.659 66.0373 41.5953 65.1866 41.5953H56.0647L57.017 34.0377Z" fill="white"/>
<path d="M53.2866 27.5014C51.856 27.373 46.1891 27.281 43.4691 27.281C42.3884 27.281 40.8369 27.296 39.2682 27.3217V27.3152H39.2575L39.2522 27.3131L39.2479 27.3152H20.3952C19.3861 27.3152 18.5676 28.1338 18.5676 29.1428V29.1525C18.5676 30.1562 19.3819 30.9704 20.3855 30.9704L24.1873 30.9758C25.13 31.0432 25.8726 31.8286 25.8726 32.7884V32.798C25.8726 33.8071 25.054 34.6256 24.045 34.6256H22.0976C21.0885 34.6256 20.27 35.4442 20.27 36.4532C20.27 37.4623 21.0885 38.2808 22.0976 38.2808H24.045C25.054 38.2808 25.8726 39.0994 25.8726 40.1084C25.8726 41.1175 25.054 41.936 24.045 41.936H16.756C15.8465 41.936 15.0943 42.6016 14.9541 43.4726V44.0547C15.0943 44.9246 15.8465 45.5912 16.756 45.5912H24.0472C25.0562 45.5912 25.8748 46.4098 25.8748 47.4188C25.8748 47.8533 25.7228 48.2513 25.4692 48.5648C26.3038 48.6355 27.147 48.6718 27.9998 48.6718C29.6391 48.6718 31.2473 48.5359 32.8138 48.2802C33.748 47.8094 34.7784 47.5419 35.8324 47.5419C35.9233 47.5419 36.0132 47.5451 36.1031 47.5483C45.4069 44.9054 52.8436 37.8261 55.983 28.7416C55.3025 28.0514 54.3716 27.6009 53.2855 27.5036L53.2866 27.5014Z" fill="white"/>
<path d="M46.5422 34.0574H43.055C42.6398 34.0574 42.2557 34.3944 42.1968 34.8096L41.3526 40.8146C41.2937 41.2297 41.5837 41.5668 41.9989 41.5668H45.4861C45.852 41.5668 46.1901 41.2704 46.2415 40.9044C46.2929 40.5385 46.0382 40.2421 45.6722 40.2421H42.8613C42.8559 40.2421 42.8517 40.2368 42.8517 40.2314L43.1202 38.3203C43.1202 38.3203 43.1245 38.3129 43.1299 38.3129H45.317C45.6829 38.3129 46.0211 38.0165 46.0724 37.6505C46.1238 37.2846 45.8691 36.9882 45.5032 36.9882H43.3182C43.3128 36.9882 43.3086 36.9828 43.3086 36.9775L43.5322 35.3896C43.5322 35.3896 43.5365 35.3821 43.5418 35.3821H46.3549C46.7209 35.3821 47.059 35.0857 47.1104 34.7197C47.1617 34.3538 46.907 34.0574 46.5411 34.0574H46.5422Z" fill="#64BD56"/>
<path d="M34.101 34.0574H30.9734C30.5582 34.0574 30.1741 34.3944 30.1152 34.8096L29.2656 40.8574C29.211 41.249 29.4839 41.5668 29.8755 41.5668C30.2672 41.5668 30.6288 41.249 30.6845 40.8574L31.0119 38.529C31.0119 38.529 31.0162 38.5215 31.0215 38.5215H32.8491C33.2407 38.5215 33.6024 38.2037 33.6581 37.8121C33.7126 37.4205 33.4398 37.1027 33.0481 37.1027H31.2227C31.2173 37.1027 31.2131 37.0973 31.2131 37.092L31.4388 35.4837C31.4388 35.4837 31.4431 35.4762 31.4485 35.4762H33.902C34.2937 35.4762 34.6564 35.1584 34.711 34.7668C34.7655 34.3752 34.4927 34.0574 34.101 34.0574Z" fill="#64BD56"/>
<path d="M40.456 34.5422C39.8557 34.0265 38.7953 34.0575 38.7953 34.0575H36.3771C35.9619 34.0575 35.5778 34.3945 35.5189 34.8097L34.6693 40.8575C34.6147 41.2491 34.8876 41.5669 35.2792 41.5669C35.6708 41.5669 36.0325 41.2491 36.0882 40.8575L36.345 39.0299C36.345 39.0299 36.3492 39.0224 36.3546 39.0224H37.9222C37.9222 39.0224 37.9297 39.0245 37.9307 39.0288L38.6669 41.1678C38.7514 41.4128 38.9772 41.568 39.249 41.568H39.2757C39.8001 41.568 40.2206 41.0191 40.0569 40.5482L39.448 38.7945C39.448 38.7945 39.448 38.7848 39.4534 38.7827C39.799 38.6372 40.0868 38.4285 40.3169 38.1546C40.6925 37.7073 40.9247 37.1702 41.0135 36.541C41.0723 36.1205 41.0584 35.7385 40.9707 35.3961C40.8829 35.0537 40.7117 34.7691 40.4571 34.5433L40.456 34.5422ZM39.5828 36.5399C39.5828 36.5399 39.4405 37.6977 38.2207 37.6977H36.5311L36.8564 35.3822H38.546C38.546 35.3822 39.7872 35.303 39.5828 36.5399Z" fill="#64BD56"/>
<path d="M52.3857 34.0574H48.8985C48.4833 34.0574 48.0992 34.3944 48.0403 34.8096L47.1961 40.8146C47.1372 41.2297 47.4272 41.5668 47.8424 41.5668H51.3296C51.6955 41.5668 52.0336 41.2704 52.085 40.9044C52.1364 40.5385 51.8817 40.2421 51.5157 40.2421H48.7048C48.6994 40.2421 48.6952 40.2368 48.6952 40.2314L48.9637 38.3203C48.9637 38.3203 48.968 38.3129 48.9734 38.3129H51.1605C51.5264 38.3129 51.8646 38.0165 51.9159 37.6505C51.9673 37.2846 51.7126 36.9882 51.3467 36.9882H49.1617C49.1563 36.9882 49.1521 36.9828 49.1521 36.9775L49.3757 35.3896C49.3757 35.3896 49.38 35.3821 49.3853 35.3821H52.1984C52.5644 35.3821 52.9025 35.0857 52.9539 34.7197C53.0052 34.3538 52.7505 34.0574 52.3846 34.0574H52.3857Z" fill="#64BD56"/>
</g>
<defs>
<clipPath id="clip0_108_537">
<rect width="54.7852" height="54.7852" fill="white" transform="translate(14.9414 15.1074)"/>
</clipPath>
</defs>
</svg>
