<svg width="39" height="31" viewBox="0 0 39 31" fill="none" xmlns="http://www.w3.org/2000/svg">
<path d="M38.8701 23.9518C38.8701 27.267 36.1706 29.9664 32.8555 29.9664H0.130127V6.14465C0.130127 2.82949 2.82961 0.130005 6.14477 0.130005H38.8701V23.9518Z" fill="white"/>
<path d="M28.2141 17.8424H30.7005C30.7715 17.8424 30.9373 17.8188 31.0083 17.8188C31.4819 17.724 31.8845 17.2978 31.8845 16.7058C31.8845 16.1375 31.4819 15.7113 31.0083 15.5929C30.9373 15.5692 30.7952 15.5692 30.7005 15.5692H28.2141V17.8424Z" fill="url(#paint0_linear_108_1420)"/>
<path d="M30.4164 2.14279C28.0484 2.14279 26.1067 4.06085 26.1067 6.4525V10.928H32.1924C32.3345 10.928 32.5002 10.928 32.6186 10.9516C33.992 11.0227 35.0103 11.7331 35.0103 12.9644C35.0103 13.9353 34.3235 14.7641 33.0448 14.9298V14.9772C34.4419 15.0719 35.5075 15.8533 35.5075 17.061C35.5075 18.3634 34.3235 19.2159 32.7607 19.2159H26.083V27.9774H32.4055C34.7735 27.9774 36.7152 26.0593 36.7152 23.6676V2.14279H30.4164Z" fill="url(#paint1_linear_108_1420)"/>
<path d="M31.5766 13.2486C31.5766 12.6803 31.1741 12.3014 30.7005 12.2303C30.6531 12.2303 30.5347 12.2067 30.4637 12.2067H28.2141V14.2905H30.4637C30.5347 14.2905 30.6768 14.2905 30.7005 14.2668C31.1741 14.1958 31.5766 13.8169 31.5766 13.2486Z" fill="url(#paint2_linear_108_1420)"/>
<path d="M6.59437 2.14279C4.2264 2.14279 2.28467 4.06085 2.28467 6.4525V17.0847C3.49233 17.6767 4.74736 18.0556 6.00238 18.0556C7.4942 18.0556 8.29931 17.1557 8.29931 15.9244V10.9043H11.9933V15.9007C11.9933 17.8424 10.7857 19.429 6.68909 19.429C4.20272 19.429 2.26099 18.8843 2.26099 18.8843V27.9537H8.58347C10.9514 27.9537 12.8932 26.0356 12.8932 23.644V2.14279H6.59437Z" fill="url(#paint3_linear_108_1420)"/>
<path d="M18.5055 2.14279C16.1375 2.14279 14.1958 4.06085 14.1958 6.4525V12.0883C15.2851 11.1648 17.1794 10.5728 20.2341 10.7148C21.868 10.7859 23.6203 11.2358 23.6203 11.2358V13.0591C22.7442 12.6092 21.7023 12.2067 20.3525 12.1119C18.0319 11.9462 16.6348 13.0828 16.6348 15.0719C16.6348 17.0847 18.0319 18.2213 20.3525 18.0319C21.7023 17.9372 22.7442 17.5109 23.6203 17.0847V18.908C23.6203 18.908 21.8917 19.3579 20.2341 19.429C17.1794 19.5711 15.2851 18.9791 14.1958 18.0556V28.001H20.5183C22.8863 28.001 24.828 26.083 24.828 23.6913V2.14279H18.5055Z" fill="url(#paint4_linear_108_1420)"/>
<defs>
<linearGradient id="paint0_linear_108_1420" x1="26.1027" y1="16.7086" x2="36.7437" y2="16.7086" gradientUnits="userSpaceOnUse">
<stop stop-color="#007940"/>
<stop offset="0.2285" stop-color="#00873F"/>
<stop offset="0.7433" stop-color="#40A737"/>
<stop offset="1" stop-color="#5CB531"/>
</linearGradient>
<linearGradient id="paint1_linear_108_1420" x1="26.1024" y1="15.0497" x2="36.7443" y2="15.0497" gradientUnits="userSpaceOnUse">
<stop stop-color="#007940"/>
<stop offset="0.2285" stop-color="#00873F"/>
<stop offset="0.7433" stop-color="#40A737"/>
<stop offset="1" stop-color="#5CB531"/>
</linearGradient>
<linearGradient id="paint2_linear_108_1420" x1="26.1024" y1="13.2456" x2="36.7439" y2="13.2456" gradientUnits="userSpaceOnUse">
<stop stop-color="#007940"/>
<stop offset="0.2285" stop-color="#00873F"/>
<stop offset="0.7433" stop-color="#40A737"/>
<stop offset="1" stop-color="#5CB531"/>
</linearGradient>
<linearGradient id="paint3_linear_108_1420" x1="2.27965" y1="15.0497" x2="13.0854" y2="15.0497" gradientUnits="userSpaceOnUse">
<stop stop-color="#1F286F"/>
<stop offset="0.4751" stop-color="#004E94"/>
<stop offset="0.8261" stop-color="#0066B1"/>
<stop offset="1" stop-color="#006FBC"/>
</linearGradient>
<linearGradient id="paint4_linear_108_1420" x1="14.1346" y1="15.0497" x2="24.6295" y2="15.0497" gradientUnits="userSpaceOnUse">
<stop stop-color="#6C2C2F"/>
<stop offset="0.1735" stop-color="#882730"/>
<stop offset="0.5731" stop-color="#BE1833"/>
<stop offset="0.8585" stop-color="#DC0436"/>
<stop offset="1" stop-color="#E60039"/>
</linearGradient>
</defs>
</svg>
