<svg width="46" height="36" viewBox="0 0 46 36" fill="none" xmlns="http://www.w3.org/2000/svg">
<g clip-path="url(#clip0_108_864)">
<path d="M8.20336 35.0735V32.7407C8.20336 31.8484 7.6598 31.264 6.72668 31.264C6.26012 31.264 5.75279 31.418 5.40401 31.9254C5.13222 31.4996 4.74267 31.264 4.15834 31.264C3.76878 31.264 3.37923 31.3818 3.07121 31.8076V31.341H2.25586V35.0735H3.07121V33.0125C3.07121 32.3512 3.41999 32.0386 3.96356 32.0386C4.50712 32.0386 4.77891 32.3874 4.77891 33.0125V35.0735H5.59425V33.0125C5.59425 32.3512 5.98381 32.0386 6.4866 32.0386C7.03017 32.0386 7.30195 32.3874 7.30195 33.0125V35.0735H8.20336ZM20.2977 31.341H18.975V30.2131H18.1597V31.341H17.4213V32.0794H18.1597V33.7916C18.1597 34.6477 18.5084 35.1505 19.4416 35.1505C19.7904 35.1505 20.1799 35.0327 20.4517 34.8787L20.2161 34.1766C19.9806 34.3306 19.7088 34.3714 19.514 34.3714C19.1245 34.3714 18.9705 34.1359 18.9705 33.7508V32.0794H20.2931V31.341H20.2977ZM27.2191 31.2595C26.7525 31.2595 26.44 31.495 26.2452 31.8031V31.3365H25.4298V35.069H26.2452V32.9672C26.2452 32.3466 26.517 31.9933 27.0243 31.9933C27.1783 31.9933 27.3731 32.0341 27.5316 32.0703L27.7672 31.2912C27.6041 31.2595 27.3731 31.2595 27.2191 31.2595ZM16.76 31.6491C16.3704 31.3773 15.8269 31.2595 15.2425 31.2595C14.3094 31.2595 13.6888 31.7261 13.6888 32.4644C13.6888 33.085 14.1554 33.4383 14.9707 33.5515L15.3603 33.5923C15.7861 33.6693 16.0216 33.7871 16.0216 33.9819C16.0216 34.2536 15.7091 34.4484 15.1655 34.4484C14.622 34.4484 14.1916 34.2536 13.9199 34.0589L13.5303 34.6794C13.9561 34.992 14.5404 35.146 15.1248 35.146C16.2119 35.146 16.837 34.6387 16.837 33.9411C16.837 33.2797 16.3297 32.931 15.5551 32.8132L15.1655 32.7724C14.8167 32.7317 14.545 32.6546 14.545 32.4236C14.545 32.1519 14.8167 31.9978 15.2471 31.9978C15.7136 31.9978 16.1802 32.1926 16.4157 32.3104L16.76 31.6491ZM38.4527 31.2595C37.9862 31.2595 37.6736 31.495 37.4789 31.8031V31.3365H36.6635V35.069H37.4789V32.9672C37.4789 32.3466 37.7506 31.9933 38.258 31.9933C38.412 31.9933 38.6068 32.0341 38.7653 32.0703L39.0008 31.3003C38.8423 31.2595 38.6113 31.2595 38.4527 31.2595ZM28.0344 33.2073C28.0344 34.3352 28.8135 35.1505 30.0184 35.1505C30.562 35.1505 30.9515 35.0327 31.3411 34.7247L30.9515 34.0634C30.639 34.2989 30.331 34.4122 29.9777 34.4122C29.3163 34.4122 28.8498 33.9456 28.8498 33.2073C28.8498 32.5052 29.3163 32.0386 29.9777 32.0024C30.3264 32.0024 30.639 32.1201 30.9515 32.3512L31.3411 31.6898C30.9515 31.3773 30.562 31.264 30.0184 31.264C28.8135 31.2595 28.0344 32.0794 28.0344 33.2073ZM35.5764 33.2073V31.341H34.761V31.8076C34.4893 31.4588 34.0997 31.264 33.5924 31.264C32.5415 31.264 31.7261 32.0794 31.7261 33.2073C31.7261 34.3352 32.5415 35.1505 33.5924 35.1505C34.1359 35.1505 34.5255 34.9557 34.761 34.607V35.0735H35.5764V33.2073ZM32.5822 33.2073C32.5822 32.5459 33.008 32.0024 33.7101 32.0024C34.3715 32.0024 34.838 32.5097 34.838 33.2073C34.838 33.8686 34.3715 34.4122 33.7101 34.4122C33.0126 34.3714 32.5822 33.8641 32.5822 33.2073ZM22.8253 31.2595C21.7381 31.2595 20.959 32.0386 20.959 33.2027C20.959 34.3714 21.7381 35.146 22.866 35.146C23.4096 35.146 23.9532 34.992 24.3835 34.6387L23.9939 34.0543C23.6814 34.2899 23.2918 34.4439 22.9068 34.4439C22.3995 34.4439 21.8967 34.2083 21.7789 33.5515H24.5375C24.5375 33.4338 24.5375 33.3568 24.5375 33.239C24.5737 32.0386 23.8716 31.2595 22.8253 31.2595ZM22.8253 31.9616C23.3326 31.9616 23.6814 32.2742 23.7584 32.854H21.8151C21.8921 32.3512 22.2409 31.9616 22.8253 31.9616ZM43.0821 33.2073V29.8643H42.2668V31.8076C41.995 31.4588 41.6054 31.264 41.0981 31.264C40.0472 31.264 39.2318 32.0794 39.2318 33.2073C39.2318 34.3352 40.0472 35.1505 41.0981 35.1505C41.6417 35.1505 42.0312 34.9557 42.2668 34.607V35.0735H43.0821V33.2073ZM40.088 33.2073C40.088 32.5459 40.5138 32.0024 41.2159 32.0024C41.8772 32.0024 42.3438 32.5097 42.3438 33.2073C42.3438 33.8686 41.8772 34.4122 41.2159 34.4122C40.5138 34.3714 40.088 33.8641 40.088 33.2073ZM12.792 33.2073V31.341H11.9766V31.8076C11.7048 31.4588 11.3153 31.264 10.8079 31.264C9.75705 31.264 8.94171 32.0794 8.94171 33.2073C8.94171 34.3352 9.75705 35.1505 10.8079 35.1505C11.3515 35.1505 11.7411 34.9557 11.9766 34.607V35.0735H12.792V33.2073ZM9.76158 33.2073C9.76158 32.5459 10.1874 32.0024 10.8895 32.0024C11.5508 32.0024 12.0174 32.5097 12.0174 33.2073C12.0174 33.8686 11.5508 34.4122 10.8895 34.4122C10.1874 34.3714 9.76158 33.8641 9.76158 33.2073Z" fill="white"/>
<path d="M28.7366 2.99414H16.4883V24.9995H28.7366V2.99414Z" fill="#FF5A00"/>
<path d="M17.3035 13.9968C17.3035 9.52597 19.4053 5.55795 22.6304 2.99414C20.2568 1.1279 17.2627 0 13.9968 0C6.26005 0 0 6.26005 0 13.9968C0 21.7335 6.26005 27.9936 13.9968 27.9936C17.2627 27.9936 20.2568 26.8657 22.6304 24.9994C19.4007 22.4719 17.3035 18.4676 17.3035 13.9968Z" fill="#EB001B"/>
<path d="M45.2608 13.9968C45.2608 21.7335 39.0007 27.9936 31.264 27.9936C27.9981 27.9936 25.0039 26.8657 22.6304 24.9994C25.8963 22.4311 27.9573 18.4676 27.9573 13.9968C27.9573 9.52597 25.8555 5.55795 22.6304 2.99414C24.9994 1.1279 27.9935 0 31.2595 0C39.0007 0 45.2608 6.30082 45.2608 13.9968Z" fill="#F79E1B"/>
</g>
<defs>
<clipPath id="clip0_108_864">
<rect width="45.2608" height="35.1505" fill="white"/>
</clipPath>
</defs>
</svg>
