<svg width="16" height="16" viewBox="0 0 16 16" fill="none" xmlns="http://www.w3.org/2000/svg">
<path d="M14.5 1C14.225 1 14 1.22375 14 1.5V5.54063C13.0063 3.11625 10.6438 1.5 8 1.5C4.8125 1.5 2.11563 3.77844 1.59063 6.91563C1.54438 7.19063 1.72812 7.44688 2.00062 7.49375C2.02844 7.49688 2.05625 7.5 2.08344 7.5C2.32319 7.5 2.535 7.32716 2.57625 7.08313C3.02156 4.42813 5.30312 2.5 8 2.5C10.2653 2.5 12.2906 3.9025 13.1125 6H9.5C9.225 6 9 6.225 9 6.5C9 6.775 9.225 7 9.5 7H14.5C14.775 7 15 6.775 15 6.5V1.5C15 1.22375 14.775 1 14.5 1ZM13.9719 8.50625C13.6979 8.45744 13.4416 8.64394 13.3962 8.91625C12.9781 11.5719 10.6969 13.5 7.97188 13.5C5.70656 13.5 3.68125 12.0975 2.85938 10H6.5C6.775 10 7 9.775 7 9.5C7 9.225 6.775 9 6.5 9H1.5C1.22375 9 1 9.225 1 9.5V14.5C1 14.775 1.22375 15 1.5 15C1.77625 15 2 14.775 2 14.5V10.4594C2.995 12.8844 5.35625 14.5 8 14.5C11.1594 14.5 13.8844 12.2216 14.4094 9.08438C14.4563 8.80938 14.2719 8.55313 13.9719 8.50625Z" fill="#A0A1AA"/>
</svg>
