<svg width="48" height="16" viewBox="0 0 48 16" fill="none" xmlns="http://www.w3.org/2000/svg">
<g clip-path="url(#clip0_107_79)">
<path d="M19.1529 1.79901L16.7219 16.065H20.6099L23.0429 1.79901H19.1529Z" fill="white"/>
<path d="M13.4621 1.81501L9.65406 11.544L9.24806 10.075C8.49706 8.30501 6.36506 5.76301 3.86206 4.16101L7.34406 16.058L11.4581 16.051L17.5811 1.81201L13.4621 1.81501Z" fill="white"/>
<path d="M7.772 2.836C7.546 1.967 6.891 1.708 6.078 1.677H0.05L0 1.961C4.691 3.099 7.795 5.841 9.083 9.138L7.772 2.836Z" fill="white"/>
<path d="M30.923 4.53402C32.195 4.51402 33.117 4.79202 33.833 5.08002L34.184 5.24502L34.71 2.15302C33.94 1.86402 32.733 1.55402 31.227 1.55402C27.385 1.55402 24.677 3.48901 24.656 6.26201C24.631 8.31101 26.585 9.45502 28.061 10.138C29.576 10.838 30.084 11.283 30.077 11.908C30.065 12.863 28.869 13.301 27.752 13.301C26.195 13.301 25.368 13.086 24.091 12.554L23.59 12.326L23.043 15.519C23.953 15.918 25.632 16.261 27.375 16.279C31.462 16.279 34.118 14.367 34.146 11.404C34.163 9.78301 33.126 8.54602 30.879 7.53102C29.519 6.86902 28.687 6.42902 28.695 5.76101C28.695 5.16802 29.401 4.53402 30.923 4.53402Z" fill="white"/>
<path d="M44.688 1.815H41.684C40.751 1.815 40.057 2.069 39.647 2.999L33.874 16.073H37.957C37.957 16.073 38.623 14.315 38.774 13.93C39.221 13.93 43.188 13.936 43.753 13.936C43.869 14.434 44.227 16.073 44.227 16.073H47.834L44.688 1.815ZM39.893 11.01C40.213 10.191 41.442 7.023 41.442 7.023C41.421 7.062 41.759 6.198 41.96 5.661L42.222 6.891C42.222 6.891 42.967 10.297 43.123 11.01H39.893Z" fill="white"/>
</g>
<defs>
<clipPath id="clip0_107_79">
<rect width="48" height="16" fill="white"/>
</clipPath>
</defs>
</svg>
