<svg width="39" height="39" viewBox="0 0 39 39" fill="none" xmlns="http://www.w3.org/2000/svg">
<path d="M19.5 39C30.2696 39 39 30.2696 39 19.5C39 8.73045 30.2696 0 19.5 0C8.73045 0 0 8.73045 0 19.5C0 30.2696 8.73045 39 19.5 39Z" fill="#27ADE4"/>
<path d="M6.65368 16.0253L6.04499 14.5223L5.43992 16.0253H6.65368ZM20.0559 15.4267C19.9337 15.5021 19.7893 15.5046 19.6162 15.5046H18.5361V14.6674H19.6307C19.7856 14.6674 19.9473 14.6739 20.0522 14.7348C20.1673 14.7903 20.2385 14.9072 20.2385 15.0686C20.2388 15.233 20.1708 15.3657 20.0559 15.4267ZM27.7588 16.0253L27.1439 14.5223L26.5325 16.0253H27.7588ZM13.3999 17.6519H12.4885L12.4851 14.6991L11.1962 17.6519H10.4157L9.12374 14.6966V17.6519H7.31569L6.97419 16.811H5.12376L4.77856 17.6519H3.81331L5.40486 13.8819H6.72576L8.23724 17.4511V13.8819H9.68775L10.851 16.4393L11.9194 13.8819H13.3998V17.6519H13.3999ZM17.0316 17.6519H14.0622V13.8819H17.0317V14.6673H14.9515V15.3469H16.9818V16.1197H14.9515V16.8716H17.0317L17.0316 17.6519ZM21.2182 14.8977C21.2182 15.498 20.8223 15.8093 20.5917 15.9021C20.7863 15.9775 20.9525 16.1099 21.0314 16.2201C21.157 16.407 21.1788 16.5749 21.1788 16.911V17.6519H20.2822L20.2788 17.1765C20.2788 16.9495 20.3001 16.6228 20.1384 16.4418C20.0085 16.3094 19.8108 16.2804 19.4906 16.2804H18.5361V17.6519H17.6472V13.8819H19.692C20.1465 13.8819 20.4812 13.8939 20.7681 14.0623C21.0495 14.2314 21.2182 14.4767 21.2182 14.8977ZM22.6408 17.6519H21.7339V13.8822H22.6408V17.6519ZM33.1622 17.6519H31.9023L30.2178 14.8222V17.6519H28.4072L28.0618 16.811H26.2153L25.8794 17.6519H24.8393C24.4076 17.6519 23.8601 17.5548 23.5504 17.2347C23.2379 16.9147 23.0756 16.4812 23.0756 15.7955C23.0756 15.2369 23.1723 14.7249 23.555 14.3219C23.8423 14.0208 24.2924 13.8819 24.9049 13.8819H25.7651V14.6895H24.9227C24.5985 14.6895 24.4156 14.7385 24.2389 14.9131C24.0874 15.0723 23.9833 15.3722 23.9833 15.7673C23.9833 16.1709 24.0627 16.4622 24.2281 16.6522C24.3646 16.8016 24.6133 16.8468 24.8473 16.8468H25.2464L26.4992 13.8823H27.8312L29.336 17.4481V13.8823H30.6895L32.2519 16.5075V13.8823H33.1623L33.1622 17.6519ZM3.80311 18.3924H5.32167L5.66407 17.5548H6.43043L6.77193 18.3924H9.76017V17.7523L10.0271 18.3948H11.578L11.8446 17.7427V18.3924H19.2707L19.267 17.0176H19.4108C19.5115 17.0213 19.5407 17.0308 19.5407 17.1993V18.3924H23.3815V18.0724C23.6916 18.2409 24.1735 18.3924 24.8078 18.3924H26.4233L26.7691 17.5548H27.5358L27.8738 18.3924H30.9874V17.5967L31.4591 18.3924H33.9543V13.1346H31.4846V13.7556L31.1392 13.1346H28.6051V13.7556L28.2879 13.1346H24.8651C24.2927 13.1346 23.789 13.2159 23.3819 13.4416V13.1346H21.02V13.4416C20.7614 13.2088 20.4088 13.1346 20.0162 13.1346H11.3872L10.8083 14.4925L10.2137 13.1346H7.49549V13.7556L7.19678 13.1346H4.87928L3.80253 15.6345L2.56812 18.3924H3.80311Z" fill="#2D78BC"/>
<path d="M6.65368 16.3331L6.04499 14.8302L5.43992 16.3331H6.65368ZM20.0559 15.7345C19.9337 15.81 19.7893 15.8125 19.6162 15.8125H18.5361V14.9752H19.6307C19.7856 14.9752 19.9473 14.9817 20.0522 15.0426C20.1673 15.0981 20.2385 15.215 20.2385 15.3764C20.2388 15.5409 20.1708 15.6736 20.0559 15.7345ZM27.7588 16.3331L27.1439 14.8302L26.5325 16.3331H27.7588ZM13.3999 17.9598H12.4885L12.4851 15.007L11.1962 17.9598H10.4157L9.12374 15.0045V17.9598H7.31569L6.97419 17.1189H5.12376L4.77856 17.9598H3.81331L5.40486 14.1898H6.72576L8.23724 17.759V14.1898H9.68775L10.851 16.7473L11.9194 14.1898H13.3998V17.9598H13.3999ZM17.0316 17.9598H14.0622V14.1898H17.0317V14.9752H14.9515V15.6548H16.9818V16.4276H14.9515V17.1795H17.0317L17.0316 17.9598ZM21.2182 15.2056C21.2182 15.806 20.8223 16.1173 20.5917 16.21C20.7863 16.2855 20.9525 16.4179 21.0314 16.528C21.157 16.7149 21.1788 16.8828 21.1788 17.2189V17.9598H20.2822L20.2788 17.4844C20.2788 17.2574 20.3001 16.9308 20.1384 16.7497C20.0085 16.6173 19.8108 16.5884 19.4906 16.5884H18.5361V17.9598H17.6472V14.1898H19.692C20.1465 14.1898 20.4812 14.2018 20.7681 14.3703C21.0495 14.5393 21.2182 14.7847 21.2182 15.2056ZM22.6408 17.9598H21.7339V14.1901H22.6408V17.9598ZM33.1622 17.9598H31.9023L30.2178 15.1301V17.9598H28.4072L28.0618 17.1189H26.2153L25.8794 17.9598H24.8393C24.4076 17.9598 23.8601 17.8628 23.5504 17.5426C23.2379 17.2226 23.0756 16.7891 23.0756 16.1034C23.0756 15.5449 23.1723 15.0329 23.555 14.6298C23.8423 14.3287 24.2924 14.1898 24.9049 14.1898H25.7651V14.9975H24.9227C24.5985 14.9975 24.4156 15.0464 24.2389 15.221C24.0874 15.3802 23.9833 15.6801 23.9833 16.0752C23.9833 16.4788 24.0627 16.7701 24.2281 16.9601C24.3646 17.1095 24.6133 17.1548 24.8473 17.1548H25.2464L26.4992 14.1902H27.8312L29.336 17.756V14.1902H30.6895L32.2519 16.8154V14.1902H33.1623L33.1622 17.9598ZM3.80311 18.7003H5.32167L5.66407 17.8628H6.43043L6.77193 18.7003H9.76017V18.0602L10.0271 18.7028H11.578L11.8446 18.0506V18.7003H19.2707L19.267 17.3255H19.4108C19.5115 17.3292 19.5407 17.3388 19.5407 17.5072V18.7003H23.3815V18.3804C23.6916 18.5488 24.1735 18.7003 24.8078 18.7003H26.4233L26.7691 17.8628H27.5358L27.8738 18.7003H30.9874V17.9047L31.4591 18.7003H33.9543V13.4425H31.4846V14.0636L31.1392 13.4425H28.6051V14.0636L28.2879 13.4425H24.8651C24.2927 13.4425 23.789 13.5238 23.3819 13.7496V13.4425H21.02V13.7496C20.7614 13.5168 20.4088 13.4425 20.0162 13.4425H11.3872L10.8083 14.8004L10.2137 13.4425H7.49549V14.0636L7.19678 13.4425H4.87928L3.80253 15.9424L2.56812 18.7003H3.80311Z" fill="white"/>
<path d="M35.9486 21.9472V19.5351H35.3334H33.7219C33.2252 19.5351 32.864 19.6555 32.6088 19.8423V19.5351H30.1745C29.7853 19.5351 29.3281 19.6323 29.1126 19.8423V19.5351H24.7649V19.8423C24.4191 19.5899 23.835 19.5351 23.5659 19.5351H20.6984V19.8423C20.4247 19.5742 19.8163 19.5351 19.4452 19.5351H16.2362L15.5019 20.3396L14.814 19.5351H10.0203V24.7923H14.7235L15.4803 23.975L16.1928 24.7923L19.0923 24.7953V23.5582H19.3771C19.7616 23.5643 20.2152 23.5486 20.6155 23.3734V24.7919H23.0069V23.4214H23.1227C23.2699 23.4214 23.2841 23.4279 23.2841 23.5766V24.7919H30.5482C31.0098 24.7919 31.492 24.6721 31.7592 24.4557V24.7919H34.0629C34.5427 24.7919 35.011 24.7239 35.3672 24.5496V24.5441C35.8876 24.2084 36.2336 23.6204 36.2336 22.9491C36.2343 22.5808 36.129 22.2375 35.9486 21.9472ZM19.4168 22.7884H18.3072V24.0523H16.5789L15.4837 22.8046L14.3459 24.0523H10.8232V20.2842H14.4002L15.4941 21.5192L16.6253 20.2842H19.467C20.1724 20.2842 20.9653 20.4822 20.9653 21.5254C20.9653 22.5725 20.194 22.7884 19.4168 22.7884ZM24.7686 22.6175C24.8942 22.8014 24.9123 22.9728 24.916 23.3054V24.0524H24.0237V23.581C24.0237 23.3543 24.0449 23.0188 23.8796 22.8432C23.7493 22.7084 23.552 22.6757 23.2271 22.6757H22.2766V24.0523H21.3834V20.2842H23.4365C23.8866 20.2842 24.2143 20.3042 24.5065 20.4622C24.7873 20.6337 24.9638 20.8686 24.9638 21.2988C24.9638 21.9001 24.5675 22.2074 24.3335 22.3013C24.5305 22.3752 24.6928 22.5076 24.7686 22.6175ZM28.4243 21.0638H26.3417V21.7489H28.3736V22.5177H26.3417V23.2674L28.4243 23.2711V24.0529H25.4564V20.2842H28.4243V21.0638ZM30.6889 24.0526H28.957V23.2444H30.6825C30.8512 23.2444 30.9707 23.2223 31.0458 23.1508C31.1065 23.093 31.1508 23.008 31.1508 22.9058C31.1508 22.7958 31.1034 22.7085 31.0421 22.656C30.9737 22.5982 30.8805 22.5726 30.7255 22.5726C29.8939 22.5443 28.8522 22.5984 28.8522 21.4059C28.8522 20.8593 29.1915 20.2842 30.1236 20.2842H31.9067V21.0863H30.2754C30.1138 21.0863 30.0085 21.0925 29.9189 21.154C29.8219 21.2153 29.7852 21.3055 29.7852 21.4256C29.7852 21.5675 29.8683 21.6642 29.9798 21.7064C30.0741 21.7391 30.1745 21.7486 30.326 21.7486L30.805 21.7625C31.2875 21.7738 31.6191 21.8588 31.8205 22.0651C31.9939 22.2462 32.0862 22.4752 32.0862 22.8629C32.0859 23.674 31.5862 24.0526 30.6889 24.0526ZM35.266 23.6887C35.0317 23.9286 34.6539 24.0526 34.1609 24.0526H32.4434V23.2444H34.1538C34.3237 23.2444 34.4426 23.2223 34.514 23.1508C34.5759 23.093 34.619 23.008 34.619 22.9058C34.619 22.7958 34.5759 22.7085 34.5103 22.656C34.446 22.5982 34.3521 22.5726 34.1969 22.5726C33.3618 22.5443 32.3202 22.5984 32.3202 21.4059C32.3202 20.8593 32.6626 20.2842 33.5962 20.2842H35.3337V21.086H33.7471C33.5857 21.086 33.478 21.0925 33.3872 21.1541C33.2933 21.2151 33.2572 21.3056 33.2572 21.4251C33.2572 21.5676 33.3364 21.6637 33.4519 21.7059C33.5461 21.7392 33.6465 21.7487 33.7943 21.7487L34.2762 21.762C34.7626 21.774 35.0875 21.8587 35.2848 22.0653C35.3209 22.0939 35.3427 22.1263 35.368 22.1583C35.3578 22.145 35.348 22.1324 35.3375 22.1192C35.4915 22.3255 35.5841 22.582 35.5841 22.8606C35.584 23.1801 35.4624 23.4698 35.266 23.6887ZM13.9386 21.0638L14.9116 22.1618L13.8955 23.2672H11.7087V22.5175H13.6612V21.7486H11.7087V21.0638H13.9386ZM16.0564 22.1747L17.422 20.6891V23.7099L16.0564 22.1747ZM20.0111 21.5256C20.0111 21.8523 19.7983 22.0232 19.4566 22.0232H18.3075V21.0638H19.4674C19.7879 21.0638 20.0111 21.1959 20.0111 21.5256ZM23.98 21.4708C23.98 21.6319 23.911 21.7618 23.7956 21.8323C23.6768 21.9037 23.5295 21.9099 23.3568 21.9099H22.276V21.0638H23.371C23.5295 21.0638 23.6881 21.0672 23.7956 21.1319C23.9114 21.1925 23.98 21.3092 23.98 21.4708Z" fill="#2D78BC"/>
<path d="M35.9486 22.2551V19.843H35.3334H33.7219C33.2252 19.843 32.864 19.9634 32.6088 20.1503V19.843H30.1745C29.7853 19.843 29.3281 19.9403 29.1126 20.1503V19.843H24.7649V20.1503C24.4191 19.8978 23.835 19.843 23.5659 19.843H20.6984V20.1503C20.4247 19.8821 19.8163 19.843 19.4452 19.843H16.2362L15.5019 20.6475L14.814 19.843H10.0203V25.1002H14.7235L15.4803 24.283L16.1928 25.1002L19.0923 25.1032V23.8661H19.3771C19.7616 23.8723 20.2152 23.8565 20.6155 23.6814V25.0998H23.0069V23.7293H23.1227C23.2699 23.7293 23.2841 23.7358 23.2841 23.8845V25.0998H30.5482C31.0098 25.0998 31.492 24.98 31.7592 24.7636V25.0998H34.0629C34.5427 25.0998 35.011 25.0318 35.3672 24.8575V24.852C35.8876 24.5163 36.2336 23.9283 36.2336 23.2571C36.2343 22.8887 36.129 22.5454 35.9486 22.2551ZM19.4168 23.0963H18.3072V24.3602H16.5789L15.4837 23.1126L14.3459 24.3602H10.8232V20.5921H14.4002L15.4941 21.8271L16.6253 20.5921H19.467C20.1724 20.5921 20.9653 20.7901 20.9653 21.8332C20.9653 22.8804 20.194 23.0963 19.4168 23.0963ZM24.7686 22.9254C24.8942 23.1092 24.9123 23.2807 24.916 23.6132V24.3602H24.0237V23.8888C24.0237 23.6622 24.0449 23.3266 23.8796 23.1511C23.7493 23.0162 23.552 22.9835 23.2271 22.9835H22.2766V24.3602H21.3834V20.592H23.4365C23.8866 20.592 24.2143 20.612 24.5065 20.77C24.7873 20.9415 24.9638 21.1764 24.9638 21.6065C24.9638 22.2079 24.5675 22.5152 24.3335 22.609C24.5305 22.6831 24.6928 22.8155 24.7686 22.9254ZM28.4243 21.3718H26.3417V22.0568H28.3736V22.8256H26.3417V23.5754L28.4243 23.5791V24.3608H25.4564V20.5921H28.4243V21.3718ZM30.6889 24.3606H28.957V23.5523H30.6825C30.8512 23.5523 30.9707 23.5302 31.0458 23.4588C31.1065 23.4009 31.1508 23.3159 31.1508 23.2137C31.1508 23.1038 31.1034 23.0164 31.0421 22.964C30.9737 22.9061 30.8805 22.8805 30.7255 22.8805C29.8939 22.8522 28.8522 22.9064 28.8522 21.7138C28.8522 21.1673 29.1915 20.5921 30.1236 20.5921H31.9067V21.3942H30.2754C30.1138 21.3942 30.0085 21.4004 29.9189 21.4619C29.8219 21.5232 29.7852 21.6134 29.7852 21.7335C29.7852 21.8754 29.8683 21.9721 29.9798 22.0143C30.0741 22.047 30.1745 22.0566 30.326 22.0566L30.805 22.0704C31.2875 22.0817 31.6191 22.1667 31.8205 22.373C31.9939 22.5541 32.0862 22.7832 32.0862 23.1708C32.0859 23.9818 31.5862 24.3606 30.6889 24.3606ZM35.266 23.9966C35.0317 24.2365 34.6539 24.3606 34.1609 24.3606H32.4434V23.5523H34.1538C34.3237 23.5523 34.4426 23.5302 34.514 23.4588C34.5759 23.4009 34.619 23.3159 34.619 23.2137C34.619 23.1038 34.5759 23.0164 34.5103 22.964C34.446 22.9061 34.3521 22.8805 34.1969 22.8805C33.3618 22.8522 32.3202 22.9064 32.3202 21.7138C32.3202 21.1673 32.6626 20.5921 33.5962 20.5921H35.3337V21.394H33.7471C33.5857 21.394 33.478 21.4005 33.3872 21.462C33.2933 21.523 33.2572 21.6135 33.2572 21.733C33.2572 21.8755 33.3364 21.9716 33.4519 22.0139C33.5461 22.0471 33.6465 22.0566 33.7943 22.0566L34.2762 22.0699C34.7626 22.0819 35.0875 22.1666 35.2848 22.3732C35.3209 22.4018 35.3427 22.4342 35.368 22.4662C35.3578 22.4529 35.348 22.4404 35.3375 22.4271C35.4915 22.6334 35.5841 22.8899 35.5841 23.1685C35.584 23.488 35.4624 23.7777 35.266 23.9966ZM13.9386 21.3718L14.9116 22.4697L13.8955 23.5751H11.7087V22.8254H13.6612V22.0566H11.7087V21.3718H13.9386ZM16.0564 22.4827L17.422 20.997V24.0178L16.0564 22.4827ZM20.0111 21.8336C20.0111 22.1602 19.7983 22.3312 19.4566 22.3312H18.3075V21.3718H19.4674C19.7879 21.3718 20.0111 21.5038 20.0111 21.8336ZM23.98 21.7788C23.98 21.9398 23.911 22.0697 23.7956 22.1402C23.6768 22.2117 23.5295 22.2178 23.3568 22.2178H22.276V21.3718H23.371C23.5295 21.3718 23.6881 21.3751 23.7956 21.4398C23.9114 21.5004 23.98 21.6171 23.98 21.7788Z" fill="white"/>
</svg>
