<svg width="103" height="27" viewBox="0 0 103 27" fill="none" xmlns="http://www.w3.org/2000/svg">
<g clip-path="url(#clip0_108_1340)">
<path d="M19.7363 26.6899C27.031 26.7248 33.6892 20.7408 33.6892 13.4609C33.6892 5.50001 27.031 -0.00267738 19.7363 -2.95624e-05H13.4583C6.07621 -0.00267738 0 5.50165 0 13.4609C0 20.7424 6.07621 26.7249 13.4583 26.6899H19.7363Z" fill="#0079BE"/>
<path d="M13.488 1.10306C6.7424 1.10518 1.27625 6.57291 1.27466 13.3212C1.27625 20.0683 6.74234 25.5355 13.488 25.5376C20.2351 25.5355 25.7024 20.0683 25.7033 13.3212C25.7023 6.57291 20.2351 1.10518 13.488 1.10306ZM5.74629 13.3212C5.75264 10.0236 7.81211 7.21162 10.7162 6.09419V20.5465C7.81211 19.4297 5.75259 16.6193 5.74629 13.3212ZM16.2586 20.5497V6.09371C19.1638 7.20844 21.2265 10.022 21.2318 13.3212C21.2265 16.6214 19.1638 19.4328 16.2586 20.5497Z" fill="white"/>
<path d="M37.9671 5.74212C37.9671 4.47959 37.3088 4.56273 36.6775 4.54901V4.18414C37.2246 4.21115 37.7854 4.21115 38.3335 4.21115C38.9229 4.21115 39.7231 4.18414 40.7621 4.18414C44.3959 4.18414 46.3749 6.61166 46.3749 9.09737C46.3749 10.4875 45.5615 13.9821 40.5931 13.9821C39.8777 13.9821 39.2173 13.9545 38.558 13.9545C37.9268 13.9545 37.3088 13.9683 36.6775 13.9821V13.6177C37.519 13.5329 37.9268 13.5049 37.967 12.5501V5.74212H37.9671ZM39.3429 12.3261C39.3429 13.407 40.1155 13.533 40.8029 13.533C43.8352 13.533 44.8307 11.2448 44.8307 9.15298C44.8307 6.52899 43.1462 4.63422 40.4381 4.63422C39.8619 4.63422 39.5971 4.67552 39.3429 4.69041L39.3429 12.3261Z" fill="white"/>
<path d="M46.8674 13.6178H47.1333C47.5257 13.6178 47.8069 13.6178 47.8069 13.1533V9.35003C47.8069 8.73314 47.5966 8.6473 47.0772 8.36822V8.14316C47.7365 7.9451 48.5235 7.68032 48.5785 7.63796C48.6775 7.58182 48.7612 7.56699 48.8316 7.56699C48.9011 7.56699 48.9301 7.65172 48.9301 7.76452V13.1533C48.9301 13.6178 49.2389 13.6178 49.6318 13.6178H49.8701V13.9826C49.3924 13.9826 48.901 13.9546 48.3969 13.9546C47.8917 13.9546 47.3859 13.9684 46.8675 13.9826V13.6178H46.8674ZM48.3687 5.40579C48.0034 5.40579 47.6814 5.06905 47.6814 4.70412C47.6814 4.35249 48.0182 4.02893 48.3687 4.02893C48.7326 4.02893 49.0566 4.32501 49.0566 4.70412C49.0566 5.08329 48.7469 5.40579 48.3687 5.40579Z" fill="white"/>
<path d="M51.2034 9.43373C51.2034 8.91475 51.0482 8.77495 50.39 8.50805V8.24173C50.9932 8.04526 51.5678 7.86257 52.2418 7.56707C52.2837 7.56707 52.325 7.59567 52.325 7.7074V8.62032C53.1263 8.04526 53.8142 7.56702 54.7557 7.56702C55.9472 7.56702 56.3681 8.43756 56.3681 9.53217V13.1534C56.3681 13.6178 56.6769 13.6178 57.0703 13.6178H57.323V13.9827C56.8304 13.9827 56.3396 13.9547 55.8354 13.9547C55.3297 13.9547 54.8239 13.9684 54.3193 13.9827V13.6178H54.5713C54.9653 13.6178 55.2445 13.6178 55.2445 13.1534V9.51893C55.2445 8.7177 54.7557 8.3253 53.9544 8.3253C53.5059 8.3253 52.7899 8.69022 52.3249 8.99943V13.1533C52.3249 13.6177 52.6352 13.6177 53.0288 13.6177H53.2808V13.9826C52.7899 13.9826 52.2979 13.9546 51.7928 13.9546C51.288 13.9546 50.7818 13.9684 50.2771 13.9826V13.6177H50.5302C50.9232 13.6177 51.2033 13.6177 51.2033 13.1533V9.43373H51.2034Z" fill="white"/>
<path d="M58.3902 10.1083C58.361 10.2349 58.361 10.4451 58.3902 10.9228C58.4728 12.2557 59.3312 13.3504 60.4522 13.3504C61.2249 13.3504 61.8296 12.9294 62.3481 12.4104L62.544 12.6074C61.898 13.4632 61.0982 14.1928 59.9481 14.1928C57.716 14.1928 57.2668 12.0306 57.2668 11.1331C57.2668 8.38142 59.1193 7.56696 60.1011 7.56696C61.2386 7.56696 62.4603 8.28245 62.4736 9.77047C62.4736 9.85573 62.4736 9.93887 62.4603 10.0241L62.3332 10.1083H58.3902ZM60.8749 9.65878C61.2249 9.65878 61.2663 9.47608 61.2663 9.30821C61.2663 8.59219 60.8314 8.01655 60.045 8.01655C59.1898 8.01655 58.6003 8.64726 58.4319 9.65878H60.8749Z" fill="white"/>
<path d="M62.7966 13.6178H63.1758C63.5676 13.6178 63.8483 13.6178 63.8483 13.1533V9.20966C63.8483 8.77489 63.3299 8.69016 63.1186 8.57789V8.36818C64.1433 7.93235 64.7051 7.56696 64.8327 7.56696C64.9159 7.56696 64.9572 7.60932 64.9572 7.75018V9.01319H64.9869C65.3369 8.46615 65.9274 7.56696 66.7826 7.56696C67.1337 7.56696 67.5823 7.80526 67.5823 8.31099C67.5823 8.69016 67.3164 9.02802 66.9236 9.02802C66.4867 9.02802 66.4867 8.69016 65.9963 8.69016C65.7575 8.69016 64.9721 9.01319 64.9721 9.85573V13.1533C64.9721 13.6177 65.2522 13.6177 65.6457 13.6177H66.431V13.9827C65.6589 13.9683 65.0716 13.9546 64.4669 13.9546C63.8918 13.9546 63.3018 13.9684 62.7967 13.9827V13.6178H62.7966Z" fill="white"/>
<path d="M68.2002 12.0306C68.383 12.9574 68.9438 13.7438 69.9689 13.7438C70.7951 13.7438 71.1043 13.2386 71.1043 12.7472C71.1043 11.0907 68.0455 11.624 68.0455 9.36435C68.0455 8.57795 68.6778 7.56702 70.221 7.56702C70.6696 7.56702 71.2726 7.69411 71.8197 7.97531L71.9193 9.40571H71.5958C71.4559 8.52235 70.9651 8.01667 70.0658 8.01667C69.5045 8.01667 68.9717 8.33975 68.9717 8.94287C68.9717 10.5866 72.2275 10.0798 72.2275 12.2834C72.2275 13.2096 71.4834 14.193 69.8132 14.193C69.2519 14.193 68.5925 13.9965 68.1017 13.7164L67.947 12.1018L68.2002 12.0306Z" fill="white"/>
<path d="M84.9006 6.72495H84.5505C84.2836 5.0833 83.1186 4.42294 81.5474 4.42294C79.9322 4.42294 77.5884 5.50319 77.5884 8.8718C77.5884 11.7092 79.6107 13.7437 81.7714 13.7437C83.1604 13.7437 84.3122 12.7895 84.5928 11.3152L84.9148 11.3989L84.5928 13.4482C84.0034 13.8142 82.4174 14.1928 81.4901 14.1928C78.2068 14.1928 76.1304 12.0731 76.1304 8.91469C76.1304 6.03705 78.6982 3.97281 81.4488 3.97281C82.5853 3.97281 83.6799 4.33927 84.7607 4.71843L84.9006 6.72495Z" fill="white"/>
<path d="M85.4068 13.6178H85.6727C86.0661 13.6178 86.3479 13.6178 86.3479 13.1533V5.33597C86.3479 4.42301 86.1371 4.39489 85.6033 4.24078V4.01625C86.1646 3.83413 86.754 3.58095 87.049 3.41207C87.202 3.3284 87.3153 3.25739 87.3566 3.25739C87.4425 3.25739 87.4705 3.34217 87.4705 3.45491V13.1533C87.4705 13.6178 87.7787 13.6178 88.1722 13.6178H88.4089V13.9827C87.9339 13.9827 87.4425 13.9546 86.9367 13.9546C86.4321 13.9546 85.9268 13.9684 85.4067 13.9827V13.6178H85.4068Z" fill="white"/>
<path d="M94.4182 13.2095C94.4182 13.4632 94.5718 13.4769 94.8101 13.4769C94.979 13.4769 95.1888 13.4632 95.3719 13.4632V13.7587C94.7678 13.8143 93.617 14.1092 93.3501 14.1929L93.2796 14.1505V13.0146C92.4387 13.7019 91.7921 14.1929 90.7949 14.1929C90.0372 14.1929 89.2514 13.7019 89.2514 12.5237V8.92898C89.2514 8.56411 89.1957 8.21296 88.4109 8.14311V7.87621C88.9167 7.86244 90.0372 7.77819 90.2204 7.77819C90.3761 7.77819 90.3761 7.87621 90.3761 8.18495V11.8055C90.3761 12.2276 90.3761 13.4345 91.5962 13.4345C92.0733 13.4345 92.7046 13.0696 93.2935 12.5797V8.80183C93.2935 8.52223 92.6204 8.36812 92.1163 8.22721V7.9746C93.3777 7.88987 94.1651 7.77814 94.3044 7.77814C94.4182 7.77814 94.4182 7.87611 94.4182 8.03127V13.2095H94.4182Z" fill="white"/>
<path d="M97.2109 8.57796C97.7717 8.10077 98.5294 7.56702 99.302 7.56702C100.93 7.56702 101.912 8.98625 101.912 10.515C101.912 12.3537 100.565 14.1929 98.5569 14.1929C97.519 14.1929 96.9719 13.8555 96.6065 13.7019L96.1861 14.0239L95.8922 13.8704C96.0167 13.0421 96.0881 12.2277 96.0881 11.3719V5.33592C96.0881 4.42301 95.8763 4.39489 95.3435 4.24078V4.01625C95.9065 3.83413 96.4942 3.58095 96.7893 3.41202C96.9439 3.32835 97.0556 3.25739 97.0991 3.25739C97.1827 3.25739 97.2107 3.34217 97.2107 3.45491V8.5779H97.2109V8.57796ZM97.2109 12.3956C97.2109 12.9294 97.7155 13.8286 98.656 13.8286C100.158 13.8286 100.789 12.3537 100.789 11.104C100.789 9.58842 99.6394 8.32541 98.5443 8.32541C98.0237 8.32541 97.5894 8.66274 97.2109 8.98625V12.3956H97.2109Z" fill="white"/>
<path d="M36.6616 22.1437H36.7691C37.0434 22.1437 37.3336 22.1067 37.3336 21.7089V17.7075C37.3336 17.3092 37.0434 17.2717 36.7691 17.2717H36.6616V17.0424C36.9598 17.0424 37.4178 17.0726 37.7933 17.0726C38.1746 17.0726 38.6321 17.0424 38.9912 17.0424V17.2717H38.8837C38.6099 17.2717 38.3192 17.3093 38.3192 17.7075V21.7089C38.3192 22.1067 38.6099 22.1437 38.8837 22.1437H38.9912V22.3741C38.6247 22.3741 38.1656 22.3439 37.7848 22.3439C37.4105 22.3439 36.9598 22.3741 36.6616 22.3741V22.1437Z" fill="white"/>
<path d="M38.9915 22.4064C38.6224 22.4064 38.1649 22.3757 37.7846 22.3757C37.4113 22.3757 36.9622 22.4064 36.6619 22.4064H36.6292V22.3736V22.1443V22.1109H36.6619H36.769C37.0459 22.1046 37.298 22.0823 37.3006 21.709V17.7076C37.298 17.3342 37.0459 17.3093 36.769 17.304H36.6292V17.2718V17.0085H36.6619C36.9622 17.0085 37.4198 17.0387 37.7931 17.0387C38.1733 17.0387 38.6304 17.0085 38.9915 17.0085H39.0254V17.0435V17.304H38.9915H38.8845C38.6075 17.3093 38.3538 17.3342 38.3523 17.7076V21.709C38.3538 22.0823 38.6075 22.1046 38.8845 22.1109H39.0254V22.1443V22.4064H38.9915ZM38.9586 22.3412V22.1781H38.8846C38.6118 22.1781 38.2872 22.131 38.2856 21.709V17.7076C38.2872 17.2855 38.6118 17.2378 38.8846 17.2378H38.9586V17.0758C38.606 17.0758 38.1638 17.1055 37.7931 17.1055C37.4303 17.1055 36.9913 17.0779 36.6958 17.0758V17.2378H36.7689C37.0411 17.2378 37.3668 17.2855 37.3668 17.7076V21.709C37.3668 22.1311 37.0411 22.1781 36.7689 22.1781H36.6958V22.3412C36.9913 22.3381 37.4229 22.3105 37.7846 22.3105C38.1564 22.3105 38.5985 22.3391 38.9586 22.3412Z" fill="white"/>
<path d="M44.2375 20.8685L44.2528 20.8536V17.9898C44.2528 17.3628 43.8171 17.2717 43.5883 17.2717H43.4198V17.0423C43.7794 17.0423 44.1305 17.0725 44.489 17.0725C44.8019 17.0725 45.1165 17.0423 45.429 17.0423V17.2717H45.3146C44.9932 17.2717 44.6341 17.3325 44.6341 18.2413V21.7174C44.6341 21.9843 44.642 22.2512 44.6796 22.4879H44.3889L40.4569 18.1037V21.2509C40.4569 21.9155 40.5856 22.1437 41.1745 22.1437H41.3036V22.3741C40.9759 22.3741 40.648 22.3439 40.3192 22.3439C39.9766 22.3439 39.625 22.3741 39.2808 22.3741V22.1437H39.3877C39.9146 22.1437 40.0746 21.7857 40.0746 21.1751V17.958C40.0746 17.5307 39.7225 17.2717 39.3804 17.2717H39.2808V17.0424C39.571 17.0424 39.8686 17.0726 40.1583 17.0726C40.3875 17.0726 40.6095 17.0424 40.8382 17.0424L44.2375 20.8685Z" fill="white"/>
<path d="M44.6797 22.5213L44.3647 22.5096L40.4893 18.19V21.2509C40.4983 21.915 40.5994 22.1035 41.1745 22.1109H41.3382V22.1437V22.4064H41.3043C40.9738 22.4064 40.645 22.3757 40.3192 22.3757C39.9771 22.3757 39.6266 22.4064 39.2802 22.4064H39.2469V22.3736V22.1109H39.2802H39.3877C39.8924 22.1082 40.0365 21.7842 40.0423 21.1752V17.9586C40.0412 17.5519 39.7076 17.3051 39.3803 17.304H39.2468V17.2702V17.0096H39.2802C39.572 17.0096 39.8712 17.0387 40.1577 17.0387C40.3849 17.0387 40.6063 17.0096 40.8636 17.0207L44.22 20.7992V17.9904C44.2157 17.3825 43.8107 17.3094 43.5882 17.304H43.3859V17.2702V17.0096H43.4198C43.7805 17.0096 44.132 17.0387 44.489 17.0387C44.7998 17.0387 45.1128 17.0096 45.4284 17.0096H45.4618V17.0424V17.304H45.4284H45.3146C44.9995 17.3131 44.6759 17.3405 44.667 18.2413V21.7168C44.667 21.9837 44.6748 22.2506 44.712 22.4821L44.7194 22.5213H44.6797V22.5213ZM44.3896 22.454H44.6422C44.6078 22.2247 44.6019 21.9705 44.6019 21.7168V18.2413C44.6019 17.3247 44.9859 17.2379 45.3147 17.2379H45.3952V17.0758C45.0944 17.0779 44.7926 17.1054 44.4892 17.1054C44.1397 17.1054 43.7997 17.0779 43.4539 17.0758L43.4534 17.2379H43.5884C43.823 17.2379 44.2864 17.3427 44.2864 17.9904L44.2758 20.8764L44.2604 20.8924L44.2345 20.9162L40.8384 17.0758C40.6118 17.0758 40.3904 17.1054 40.1579 17.1054C39.8777 17.1054 39.5913 17.0779 39.3143 17.0758L39.3127 17.2378H39.3805C39.739 17.2378 40.107 17.5116 40.107 17.9585V21.1751C40.107 21.7856 39.9371 22.1765 39.3879 22.1786L39.3143 22.1765V22.3411C39.6453 22.338 39.9852 22.3104 40.3193 22.3104C40.6382 22.3104 40.9554 22.338 41.271 22.3411V22.1786H41.1746C40.5735 22.1765 40.4243 21.9149 40.4237 21.2508V18.0178L44.3896 22.454ZM44.2375 20.868L44.2619 20.8457L44.2375 20.868ZM44.2201 20.8532V20.8505L44.2137 20.8452L44.2201 20.8532Z" fill="white"/>
<path d="M46.5725 17.4237C45.9989 17.4237 45.9772 17.5615 45.8628 18.1185H45.6335C45.6637 17.9051 45.7019 17.6917 45.7252 17.4693C45.7558 17.2553 45.7706 17.0424 45.7706 16.8211H45.9544C46.0158 17.0504 46.2065 17.0424 46.4136 17.0424H50.353C50.5595 17.0424 50.7502 17.035 50.7661 16.8052L50.9482 16.836C50.9185 17.0424 50.8878 17.2485 50.8645 17.455C50.8507 17.661 50.8507 17.8675 50.8507 18.073L50.6209 18.1582C50.605 17.876 50.5669 17.4237 50.0559 17.4237H48.8035V21.4876C48.8035 22.0765 49.0709 22.1438 49.4363 22.1438H49.5819V22.3741C49.2843 22.3741 48.749 22.3439 48.3374 22.3439C47.8794 22.3439 47.344 22.3741 47.0458 22.3741V22.1438H47.1915C47.6125 22.1438 47.8254 22.1061 47.8254 21.5035V17.4237H46.5725Z" fill="white"/>
<path d="M49.5829 22.4064C49.282 22.4064 48.7477 22.3757 48.3373 22.3757C47.8798 22.3757 47.3455 22.4064 47.0457 22.4064H47.0139V22.3741V22.1109H47.0457H47.1913C47.6123 22.1008 47.7817 22.0955 47.7913 21.5034V17.4571H46.5723V17.4237V17.3898H47.8576V21.5034C47.8576 22.1161 47.6108 22.1781 47.1914 22.1786H47.0791V22.3396C47.3804 22.3381 47.8941 22.3105 48.3373 22.3105C48.7356 22.3105 49.2461 22.3381 49.5479 22.3396V22.1786H49.4362C49.0671 22.1781 48.77 22.0876 48.77 21.4876V17.3898H50.0558C50.5684 17.3919 50.6351 17.8277 50.6521 18.1111L50.8168 18.0502C50.8168 17.851 50.8178 17.6514 50.8316 17.4502C50.8538 17.2537 50.8819 17.0588 50.9105 16.8639L50.7939 16.8443C50.7585 17.0668 50.544 17.0779 50.3517 17.0758H46.4134H46.3737C46.1942 17.0758 45.9977 17.0673 45.9294 16.8539H45.8033C45.8022 17.0652 45.7874 17.2702 45.7583 17.4735C45.736 17.6832 45.7011 17.885 45.6725 18.0868H45.8362C45.9367 17.5545 46.0024 17.3819 46.5722 17.3899V17.4237V17.4571C46.0077 17.4672 46.0194 17.5625 45.8949 18.127L45.8891 18.1529H45.8626H45.5952L45.5995 18.1132C45.6302 17.8993 45.6689 17.6864 45.6916 17.4639C45.7234 17.2521 45.7382 17.0403 45.7382 16.821V16.7877H45.7705H45.9802L45.9855 16.8115C46.0379 17.0043 46.1793 17.0053 46.3737 17.0085H46.4134H50.3517C50.5647 17.0053 50.7193 17.0022 50.7325 16.8025L50.7357 16.7664L50.7701 16.7739L50.9856 16.8078L50.9808 16.8412C50.9501 17.0456 50.92 17.2521 50.8977 17.4571C50.8824 17.6604 50.8824 17.8669 50.8824 18.0729V18.0968L50.8612 18.1052L50.5906 18.2037L50.5885 18.1592C50.5683 17.8722 50.5382 17.457 50.0557 17.457H48.8367V21.4875C48.8436 22.0637 49.0723 22.1034 49.4361 22.1108H49.6151V22.1436V22.4063L49.5829 22.4064Z" fill="white"/>
<path d="M51.1924 22.1437H51.2999C51.5743 22.1437 51.8649 22.1067 51.8649 21.7089V17.7075C51.8649 17.3092 51.5743 17.2717 51.2999 17.2717H51.1924V17.0424C51.6573 17.0424 52.4528 17.0726 53.0929 17.0726C53.7359 17.0726 54.5286 17.0424 55.0475 17.0424C55.0349 17.3702 55.0418 17.8754 55.0645 18.2107L54.8341 18.272C54.7976 17.7759 54.706 17.3792 53.9037 17.3792H52.843V19.3794H53.7508C54.2087 19.3794 54.3089 19.1204 54.3539 18.7069H54.5826C54.5679 19.0061 54.5599 19.3037 54.5599 19.6013C54.5599 19.8921 54.5678 20.1817 54.5826 20.4719L54.3539 20.5174C54.3089 20.0594 54.2856 19.7617 53.7581 19.7617H52.8431V21.5405C52.8431 22.0378 53.2842 22.0378 53.7735 22.0378C54.6901 22.0378 55.0942 21.9759 55.3236 21.1063L55.5376 21.1587C55.4374 21.5644 55.3463 21.9684 55.2785 22.3741C54.7892 22.3741 53.9107 22.3439 53.2243 22.3439C52.5359 22.3439 51.6278 22.3741 51.1924 22.3741V22.1437Z" fill="white"/>
<path d="M55.2777 22.4064C54.7874 22.4064 53.9094 22.3751 53.2236 22.3751C52.5357 22.3751 51.628 22.4064 51.1922 22.4064H51.1599V22.3741V22.1437V22.1109H51.1922H51.2992C51.5761 22.1067 51.8271 22.0823 51.8309 21.709V17.7075C51.8272 17.3347 51.5761 17.3098 51.2992 17.304H51.1599V17.2717V17.0096H51.1922C51.6582 17.0096 52.4525 17.0387 53.0928 17.0387C53.7351 17.0387 54.5274 17.0096 55.0474 17.0096H55.0818L55.0802 17.0435C55.0749 17.1584 55.0728 17.2939 55.0728 17.438C55.0728 17.7022 55.0802 17.9908 55.0956 18.2085L55.0966 18.2361L55.0712 18.2435L54.8027 18.3135L54.8012 18.2743C54.7562 17.7786 54.69 17.419 53.9036 17.4116H52.8747L52.8736 19.345H53.7506C54.1902 19.3408 54.269 19.1157 54.3209 18.7043L54.3236 18.6741H54.3532H54.6165L54.6159 18.7085C54.6012 19.0061 54.5915 19.3037 54.5915 19.6013C54.5915 19.8904 54.6012 20.1801 54.6159 20.4708L54.6165 20.4979L54.5889 20.5042L54.3236 20.5572L54.3209 20.5211C54.2685 20.0551 54.2647 19.7999 53.7574 19.7941L52.8746 19.7935V21.5406C52.8753 22.0045 53.2755 22.0018 53.7734 22.0045C54.6926 21.9992 55.0613 21.9547 55.2916 21.0968L55.2991 21.0661L55.3313 21.0719L55.576 21.1349L55.5686 21.1667C55.4701 21.5713 55.3785 21.9748 55.3101 22.3793L55.3038 22.4064H55.2777ZM55.2497 22.3397C55.3159 21.9546 55.4032 21.5681 55.497 21.1836L55.3461 21.1454C55.1173 22.0002 54.6745 22.0764 53.7733 22.0706C53.2924 22.0706 52.8105 22.0706 52.8083 21.5405V19.7283H53.7574C54.2906 19.7225 54.3452 20.0445 54.3828 20.4793L54.5481 20.4449C54.5332 20.1636 54.5263 19.8814 54.5263 19.6012C54.5263 19.3137 54.5332 19.0278 54.5481 18.7402H54.3828C54.3405 19.1379 54.216 19.4175 53.7505 19.4122H52.8084V17.3448H53.9036C54.698 17.3394 54.8297 17.7494 54.8637 18.2297L55.0284 18.1852C55.0152 17.9697 55.0061 17.6932 55.0061 17.438C55.0061 17.3072 55.0093 17.1838 55.0135 17.0758C54.4946 17.0779 53.7214 17.1054 53.0928 17.1054C52.4653 17.1054 51.6927 17.0779 51.2251 17.0758V17.2378H51.2991C51.5713 17.2378 51.8965 17.2855 51.8975 17.7075V21.709C51.8965 22.13 51.5713 22.1766 51.2991 22.1787H51.2251V22.3397C51.6705 22.3391 52.5527 22.3105 53.2236 22.3105C53.8972 22.3105 54.7572 22.3391 55.2497 22.3397Z" fill="white"/>
<path d="M56.5681 17.8516C56.5681 17.2945 56.2631 17.2717 56.0253 17.2717H55.8882V17.0419C56.1328 17.0419 56.6057 17.0726 57.0718 17.0726C57.5298 17.0726 57.8968 17.0419 58.3009 17.0419C59.2625 17.0419 60.1189 17.3019 60.1189 18.3875C60.1189 19.0733 59.6608 19.4937 59.0576 19.7315L60.363 21.6856C60.5769 22.0086 60.7289 22.0992 61.1038 22.1436V22.374C60.8518 22.374 60.6071 22.3439 60.3555 22.3439C60.1189 22.3439 59.8736 22.374 59.6379 22.374C59.0501 21.6025 58.5449 20.7774 58.0487 19.8983H57.5462V21.5336C57.5462 22.1225 57.82 22.1437 58.1711 22.1437H58.3088V22.3741C57.8724 22.3741 57.4314 22.3439 56.9955 22.3439C56.6285 22.3439 56.2694 22.3741 55.8882 22.3741V22.1437H56.0253C56.3091 22.1437 56.5681 22.0155 56.5681 21.7322V17.8516ZM57.5461 19.6235H57.919C58.6832 19.6235 59.0946 19.3333 59.0946 18.432C59.0946 17.7531 58.6599 17.3172 57.9794 17.3172C57.7501 17.3172 57.6526 17.3411 57.5461 17.348V19.6235H57.5461Z" fill="white"/>
<path d="M61.1036 22.4064C60.8479 22.4064 60.6048 22.3757 60.3538 22.3757C60.1208 22.3757 59.8772 22.4064 59.6108 22.3937C59.0251 21.6253 58.5231 20.805 58.0295 19.9323H57.5783V21.5327C57.5863 22.1073 57.8172 22.1025 58.1704 22.111H58.3414V22.1438V22.4065H58.3075C57.8711 22.4065 57.4279 22.3758 56.9942 22.3758C56.6293 22.3758 56.2714 22.4065 55.8879 22.4065H55.8545V22.3736V22.111H55.8879H56.0251C56.3004 22.1094 56.5324 21.9897 56.5334 21.7323V17.8518C56.5277 17.3095 56.2624 17.3126 56.0251 17.3047H55.8545V17.2719V17.0087H55.8879C56.1352 17.0087 56.6065 17.0388 57.0715 17.0388C57.5274 17.0388 57.8945 17.0087 58.3012 17.0087C59.2634 17.0108 60.1499 17.2767 60.1525 18.3856C60.1525 19.0756 59.6966 19.5061 59.1071 19.7465L60.3903 21.6677C60.6037 21.9844 60.7366 22.0634 61.1084 22.111L61.1364 22.1152V22.1438V22.4065H61.1036V22.4064ZM57.545 19.8655H58.0671L58.0761 19.8825C58.5739 20.76 59.0753 21.584 59.6378 22.3412C59.8708 22.3412 60.1159 22.31 60.3538 22.31C60.5978 22.31 60.833 22.3365 61.0707 22.3402V22.1728C60.7122 22.1284 60.5444 22.0214 60.3358 21.7042L59.0071 19.7156L59.0446 19.7003C59.642 19.4652 60.0842 19.0569 60.0848 18.3853C60.0842 17.3257 59.2612 17.08 58.3012 17.0758C57.8981 17.0758 57.5317 17.106 57.0715 17.106C56.623 17.106 56.1702 17.0779 55.9202 17.0758V17.2378H56.0251C56.2623 17.2384 56.6001 17.2776 56.6001 17.8517V21.7322C56.6001 22.0389 56.3126 22.1787 56.0251 22.1792H55.9202V22.3401C56.2878 22.3391 56.6356 22.31 56.9942 22.31C57.4215 22.31 57.8521 22.3391 58.2747 22.3401V22.1792H58.1703C57.8219 22.1786 57.5116 22.1352 57.5116 21.5326V19.8655H57.5449H57.545ZM57.545 19.6558H57.5116V17.3173L57.5407 17.3146C57.6451 17.3067 57.7484 17.285 57.9792 17.285C58.6751 17.285 59.1273 17.7372 59.1283 18.4335C59.1262 19.3454 58.6888 19.6552 57.9188 19.6558H57.545V19.6558ZM57.9188 19.5902C58.6749 19.5838 59.0553 19.3212 59.0632 18.4336C59.059 17.7663 58.6443 17.3522 57.9792 17.3496C57.7726 17.3496 57.6757 17.3686 57.5783 17.3772V19.5902H57.9188Z" fill="white"/>
<path d="M66.2886 20.8685L66.3024 20.8536V17.9898C66.3024 17.3628 65.8677 17.2717 65.6389 17.2717H65.4716V17.0423C65.8301 17.0423 66.1807 17.0725 66.5402 17.0725C66.8537 17.0725 67.1657 17.0423 67.4807 17.0423V17.2717H67.3658C67.045 17.2717 66.6859 17.3325 66.6859 18.2413V21.7174C66.6859 21.9843 66.6933 22.2512 66.7309 22.4879H66.4413L62.5087 18.1037V21.2509C62.5087 21.9155 62.6384 22.1437 63.2262 22.1437H63.356V22.3741C63.0282 22.3741 62.6994 22.3439 62.3716 22.3439C62.0267 22.3439 61.6757 22.3741 61.3325 22.3741V22.1437H61.4384C61.9659 22.1437 62.1263 21.7857 62.1263 21.1751V17.958C62.1263 17.5307 61.7752 17.2717 61.4321 17.2717H61.3325V17.0424C61.6217 17.0424 61.9209 17.0726 62.2105 17.0726C62.4383 17.0726 62.6607 17.0424 62.89 17.0424L66.2886 20.8685Z" fill="white"/>
<path d="M66.7311 22.5207L66.4166 22.5102L62.5408 18.19V21.2504C62.5498 21.915 62.6504 22.1034 63.2265 22.1109H63.3881V22.1437V22.4064H63.3547C63.0243 22.4064 62.697 22.3751 62.3697 22.3751C62.0287 22.3751 61.676 22.4064 61.3323 22.4064H61.2979V22.3741V22.1109H61.3323H61.4382C61.9423 22.1088 62.0869 21.7842 62.0917 21.1731V17.9581C62.0911 17.5513 61.7581 17.3046 61.4319 17.304H61.2979V17.2718V17.0086H61.3323C61.6235 17.0086 61.9223 17.0387 62.2103 17.0387C62.4348 17.0387 62.6562 17.0086 62.9125 17.0191L66.2694 20.7992V17.9893C66.2673 17.3824 65.8606 17.3072 65.6387 17.3041H65.4369V17.2718V17.0086H65.4703C65.8315 17.0086 66.1831 17.0387 66.54 17.0387C66.8514 17.0387 67.1644 17.0086 67.4789 17.0086H67.5122V17.043V17.3041H67.4789H67.3655C67.0505 17.3125 66.7258 17.3406 66.7179 18.2414V21.7169C66.7179 21.9838 66.7248 22.2485 66.7635 22.4837L66.7677 22.5207H66.7311ZM66.441 22.454H66.692C66.6586 22.2247 66.6512 21.9705 66.6512 21.7169V18.2413C66.6517 17.3246 67.0383 17.2399 67.3655 17.2373H67.4455V17.0758C67.1458 17.0779 66.8434 17.1054 66.5399 17.1054C66.1894 17.1054 65.8488 17.0779 65.5031 17.0758V17.2373H65.6387C65.8738 17.2399 66.3366 17.3427 66.3366 17.9893L66.3261 20.8765L66.3112 20.8923L66.288 20.9167L62.8892 17.0758C62.6625 17.0758 62.4412 17.1055 62.2103 17.1055C61.9276 17.1055 61.6421 17.0779 61.3641 17.0758V17.2373H61.4318C61.7904 17.24 62.1584 17.5106 62.1584 17.9581V21.173C62.1584 21.7862 61.9858 22.1765 61.4382 22.1786L61.3641 22.1781V22.3396C61.694 22.338 62.0345 22.3105 62.3697 22.3105C62.6902 22.3105 63.0074 22.338 63.323 22.3396V22.1786H63.2266C62.625 22.1781 62.4746 21.915 62.4736 21.2503V18.0189L66.441 22.454ZM66.2884 20.868L66.3116 20.8463L66.2884 20.868ZM66.2694 20.8537V20.851L66.2635 20.8452L66.2694 20.8537Z" fill="white"/>
<path d="M68.7085 21.2816C68.6313 21.5405 68.5391 21.7407 68.5391 21.8768C68.5391 22.1066 68.8606 22.1437 69.1116 22.1437H69.1969V22.374C68.8908 22.3576 68.5789 22.3439 68.2712 22.3439C67.9964 22.3439 67.7231 22.3577 67.4478 22.374V22.1437H67.4938C67.7913 22.1437 68.044 21.9684 68.1568 21.647L69.3801 18.1423C69.4786 17.8595 69.6173 17.4777 69.6635 17.1944C69.9066 17.1113 70.2126 16.9587 70.3572 16.8666C70.381 16.8587 70.3942 16.8507 70.4181 16.8507C70.4409 16.8507 70.4557 16.8507 70.4726 16.8745C70.4949 16.9349 70.5171 17.0043 70.5415 17.0652L71.9464 21.0602C72.038 21.3271 72.1285 21.6094 72.2276 21.8392C72.3198 22.0531 72.4807 22.1437 72.7333 22.1437H72.7783V22.374C72.4348 22.3576 72.0905 22.3439 71.7251 22.3439C71.3507 22.3439 70.9678 22.3577 70.5786 22.374V22.1437H70.6633C70.8381 22.1437 71.1368 22.114 71.1368 21.9229C71.1368 21.8238 71.0679 21.6178 70.9827 21.3726L70.6856 20.4867H68.9523L68.7085 21.2816ZM69.8228 17.8977H69.8074L69.0972 20.0593H70.5245L69.8228 17.8977Z" fill="white"/>
<path d="M72.7763 22.4064C72.4326 22.391 72.089 22.3751 71.7251 22.3751C71.3507 22.3751 70.9705 22.391 70.5796 22.4064L70.5452 22.4085V22.3741V22.1098H70.5786H70.6628C70.8397 22.1098 71.1023 22.0696 71.1023 21.923C71.1045 21.8361 71.0356 21.6264 70.9514 21.3833L70.6607 20.5196H68.9762L68.7389 21.2911C68.6616 21.5517 68.5701 21.7535 68.5705 21.8779C68.5731 22.0644 68.8586 22.1098 69.1117 22.1098H69.2293V22.1443V22.4085L69.1949 22.4064C68.8893 22.391 68.5774 22.3751 68.2729 22.3751C67.9991 22.3751 67.7238 22.391 67.45 22.4064L67.4146 22.4085V22.3741V22.1098H67.4479H67.4935C67.7778 22.1088 68.0151 21.9473 68.1252 21.6365L69.348 18.1313C69.4481 17.848 69.5858 17.4672 69.652 17.1627C69.8913 17.0817 70.1979 16.9281 70.3452 16.8349C70.3663 16.828 70.3876 16.8174 70.4188 16.8174C70.4374 16.8169 70.4786 16.8217 70.503 16.862C70.5247 16.925 70.5485 16.9928 70.5718 17.0547L71.9784 21.0493C72.0685 21.3173 72.1595 21.5995 72.2591 21.8251C72.3475 22.029 72.4879 22.1089 72.7335 22.11H72.8114V22.1444V22.4086L72.7763 22.4064ZM70.6119 22.3381C70.9901 22.3249 71.3603 22.31 71.7251 22.31C72.0799 22.31 72.4119 22.3249 72.7439 22.3381V22.1786H72.7334C72.4718 22.1802 72.2912 22.0775 72.1974 21.8525C72.0979 21.6205 72.0047 21.3372 71.9153 21.0698L70.5092 17.0758C70.486 17.0149 70.4637 16.9456 70.4435 16.8915C70.4372 16.8841 70.4388 16.8841 70.4325 16.8841H70.4186C70.4028 16.8841 70.3938 16.8889 70.3741 16.8942C70.227 16.99 69.9204 17.1399 69.6942 17.1997C69.6471 17.4889 69.5099 17.8702 69.4104 18.153L68.1881 21.6587C68.0717 21.9902 67.8042 22.1792 67.4934 22.1786H67.4812V22.3381C67.7428 22.3249 68.0076 22.31 68.2729 22.31C68.5678 22.31 68.8697 22.3249 69.1609 22.3381V22.1786H69.1117C68.8634 22.1755 68.5159 22.1474 68.5064 21.8778C68.5069 21.7253 68.6007 21.53 68.6753 21.2721L68.7087 21.2821L68.6753 21.271L68.9268 20.4544H70.7073L71.0138 21.3621C71.0997 21.6073 71.169 21.8106 71.169 21.9229C71.1585 22.1575 70.836 22.1739 70.6628 22.1787H70.6119V22.3381H70.6119ZM69.0508 20.0922L69.7821 17.8643H69.8075H69.8235V17.8977L69.815 17.8992L69.8235 17.8977V17.8643H69.8463L70.5712 20.0922H69.0508ZM69.1424 20.026H70.479L69.8144 17.9792L69.1424 20.026ZM69.7901 17.9072L69.8075 17.9014L69.7901 17.9072Z" fill="white"/>
<path d="M73.1144 17.4237C72.5414 17.4237 72.5186 17.5615 72.4036 18.1185H72.1743C72.2045 17.9051 72.2432 17.6917 72.2671 17.4693C72.2977 17.2553 72.3116 17.0424 72.3116 16.8211H72.4958C72.5567 17.0504 72.7485 17.0424 72.9534 17.0424H76.8949C77.0999 17.0424 77.2906 17.035 77.3065 16.8052L77.4891 16.836C77.4599 17.0424 77.4299 17.2485 77.4065 17.455C77.3901 17.661 77.3901 17.8675 77.3901 18.073L77.1613 18.1582C77.147 17.876 77.1089 17.4237 76.5968 17.4237H75.3444V21.4876C75.3444 22.0765 75.6124 22.1438 75.9778 22.1438H76.1228V22.3741C75.8252 22.3741 75.2914 22.3439 74.8783 22.3439C74.4208 22.3439 73.8854 22.3741 73.5878 22.3741V22.1438H73.7324C74.1533 22.1438 74.3673 22.1061 74.3673 21.5035V17.4237H73.1144Z" fill="white"/>
<path d="M76.1227 22.4064C75.823 22.4064 75.2881 22.3757 74.8783 22.3757C74.4217 22.3757 73.8869 22.4064 73.5877 22.4064H73.5538V22.3741V22.1109H73.5877H73.7322C74.1532 22.1009 74.3222 22.0956 74.3328 21.5035L74.3317 17.4571H73.1142V17.4237V17.3898H74.399V21.5035C74.399 22.1162 74.1516 22.1765 73.7322 22.1781H73.62V22.3412C73.9223 22.338 74.435 22.3105 74.8783 22.3105C75.277 22.3105 75.7875 22.3381 76.0893 22.3412V22.1781H75.9766C75.6095 22.1765 75.3119 22.0881 75.3109 21.4876V17.3898H76.5966C77.1093 17.3919 77.1765 17.8278 77.1909 18.1111L77.3577 18.0502C77.3577 17.8511 77.3582 17.6514 77.373 17.4512C77.3942 17.2548 77.4227 17.0588 77.4509 16.8639L77.3354 16.8443C77.3005 17.0667 77.0849 17.079 76.8948 17.0757H72.9532H72.9146C72.7345 17.0778 72.5397 17.0673 72.4702 16.8528H72.3453C72.3431 17.0646 72.3288 17.2701 72.2987 17.4735C72.2786 17.6837 72.2409 17.886 72.2124 18.0867H72.376C72.4772 17.5544 72.5434 17.3818 73.1142 17.3898V17.4237V17.4571C72.5481 17.4666 72.5608 17.5624 72.4358 18.127L72.43 18.1529H72.4035H72.1355L72.1403 18.1147C72.172 17.8992 72.2102 17.6863 72.2324 17.4655C72.2636 17.2521 72.2785 17.0402 72.2785 16.821V16.7876H72.3113H72.5199L72.5263 16.8115C72.5798 17.0042 72.719 17.0053 72.9145 17.0085L72.9531 17.0095H76.8947C77.1055 17.0053 77.2595 17.0021 77.2728 16.803L77.275 16.7665L77.311 16.774L77.5276 16.8079L77.5218 16.8412C77.4905 17.0456 77.4614 17.2522 77.4381 17.4571C77.4227 17.6605 77.4227 17.8675 77.4227 18.073V18.0968L77.4011 18.1053L77.1304 18.2038L77.1289 18.1593C77.1093 17.8723 77.0791 17.4571 76.5966 17.4571H75.3771V21.4876C75.3851 22.0637 75.6132 22.1034 75.9766 22.1109H76.1555V22.1437V22.4064L76.1227 22.4064Z" fill="white"/>
<path d="M77.771 22.1437H77.878C78.1539 22.1437 78.4424 22.1067 78.4424 21.7089V17.7075C78.4424 17.3092 78.1539 17.2717 77.878 17.2717H77.771V17.0424C78.0692 17.0424 78.5267 17.0726 78.9 17.0726C79.2834 17.0726 79.7416 17.0424 80.1005 17.0424V17.2717H79.9936C79.7188 17.2717 79.4275 17.3093 79.4275 17.7075V21.7089C79.4275 22.1067 79.7188 22.1437 79.9936 22.1437H80.1005V22.3741C79.7336 22.3741 79.275 22.3439 78.8942 22.3439C78.5193 22.3439 78.0692 22.3741 77.771 22.3741V22.1437Z" fill="white"/>
<path d="M80.1007 22.4064C79.7316 22.4064 79.2745 22.3751 78.8938 22.3751C78.5204 22.3751 78.0693 22.4064 77.7711 22.4064H77.7378V22.3741V22.1437V22.1109H77.7711H77.8781C78.154 22.1067 78.4072 22.0828 78.4082 21.709V17.7075C78.4072 17.3347 78.154 17.3092 77.8781 17.304H77.7378V17.2717V17.0096H77.7711C78.0693 17.0096 78.5279 17.0387 78.9001 17.0387C79.2809 17.0387 79.739 17.0096 80.1007 17.0096H80.133V17.0424V17.304H80.1007H79.9937C79.7146 17.3093 79.4641 17.3347 79.4604 17.7075V21.709C79.4641 22.0828 79.7147 22.1067 79.9937 22.1109H80.133V22.1437V22.4064H80.1007ZM80.0663 22.3397V22.1781H79.9937C79.7199 22.1781 79.3959 22.13 79.3959 21.709V17.7075C79.3959 17.2855 79.7199 17.2378 79.9937 17.2378H80.0663V17.0758C79.7136 17.0779 79.2725 17.1054 78.9001 17.1054C78.5384 17.1054 78.1005 17.0779 77.8045 17.0758V17.2378H77.8782C78.1498 17.2378 78.475 17.2855 78.476 17.7075V21.709C78.4749 22.1299 78.1498 22.1781 77.8782 22.1781H77.8045V22.3397C78.099 22.3364 78.5311 22.3105 78.8938 22.3105C79.264 22.3105 79.7062 22.3381 80.0662 22.3397H80.0663Z" fill="white"/>
<path d="M83.146 16.928C84.7739 16.928 86.0713 17.9374 86.0713 19.5637C86.0713 21.3208 84.8115 22.4885 83.1858 22.4885C81.5653 22.4885 80.3293 21.3885 80.3293 19.7464C80.3293 18.1582 81.5579 16.928 83.146 16.928ZM83.2615 22.1522C84.7432 22.1522 85.0011 20.8452 85.0011 19.7315C85.0011 18.6152 84.3996 17.2638 83.1313 17.2638C81.7946 17.2638 81.398 18.4553 81.398 19.4779C81.398 20.8452 82.0239 22.1522 83.2615 22.1522Z" fill="white"/>
<path d="M80.2952 19.7464C80.2984 18.1397 81.5418 16.8968 83.1458 16.8947V16.928V16.9603C81.5762 16.9603 80.3614 18.1746 80.3598 19.7463C80.3635 21.3699 81.5821 22.4534 83.1856 22.454C84.7954 22.4534 86.0373 21.3022 86.0399 19.5621C86.0383 17.9564 84.7604 16.9624 83.1459 16.9603V16.928V16.8947C84.7864 16.8957 86.1014 17.9151 86.1045 19.5621C86.103 21.3376 84.8266 22.5176 83.1856 22.5207C81.5524 22.5175 80.2984 21.4065 80.2953 19.7463H80.2952V19.7464ZM81.365 19.4779C81.3671 18.4506 81.7685 17.2293 83.1316 17.2293C84.4279 17.2326 85.0332 18.6094 85.0353 19.7315C85.0332 20.8452 84.7711 22.184 83.2619 22.184V22.1522V22.1193C84.714 22.1173 84.9655 20.8452 84.9691 19.7315C84.9691 18.6243 84.3728 17.2988 83.1316 17.2971C81.8214 17.2987 81.4337 18.4606 81.4312 19.4779C81.4322 20.8383 82.0524 22.1161 83.2619 22.1193V22.1522V22.184C81.9941 22.1823 81.3671 20.8532 81.365 19.4779Z" fill="white"/>
<path d="M91.2177 20.8685L91.2331 20.8536V17.9898C91.2331 17.3628 90.7967 17.2717 90.5674 17.2717H90.4022V17.0423C90.7602 17.0423 91.1113 17.0725 91.4692 17.0725C91.7833 17.0725 92.0962 17.0423 92.4097 17.0423V17.2717H92.2943C91.9744 17.2717 91.6149 17.3325 91.6149 18.2413V21.7174C91.6149 21.9843 91.6223 22.2512 91.661 22.4879H91.3713L87.4376 18.1037V21.2509C87.4376 21.9155 87.5669 22.1437 88.1547 22.1437H88.2855V22.3741C87.9566 22.3741 87.6289 22.3439 87.3005 22.3439C86.9568 22.3439 86.6047 22.3741 86.261 22.3741V22.1437H86.3684C86.8965 22.1437 87.0548 21.7857 87.0548 21.1751V17.958C87.0548 17.5307 86.7052 17.2717 86.3605 17.2717H86.261V17.0424C86.5511 17.0424 86.8493 17.0726 87.139 17.0726C87.3683 17.0726 87.5891 17.0424 87.819 17.0424L91.2177 20.8685Z" fill="white"/>
<path d="M91.6614 22.5207L91.3453 22.5096L87.4705 18.19V21.2509C87.4789 21.915 87.58 22.103 88.1535 22.1098H88.3188V22.1443V22.4064H88.2854C87.9544 22.4064 87.6267 22.3757 87.3004 22.3757C86.9577 22.3757 86.6072 22.4064 86.2603 22.4064H86.2285V22.3736V22.1098H86.2603H86.3684C86.872 22.1083 87.0166 21.7842 87.0229 21.1752V17.9581C87.0218 17.5514 86.6887 17.3046 86.3604 17.304H86.2285V17.2717V17.0096H86.2603C86.5532 17.0096 86.8508 17.0388 87.1388 17.0388C87.3655 17.0388 87.5858 17.0096 87.8442 17.0208L91.1996 20.7992V17.9904C91.1974 17.3825 90.7907 17.3094 90.5672 17.3041H90.3666V17.2719V17.0097H90.401C90.7605 17.0097 91.1127 17.0388 91.468 17.0388C91.7815 17.0388 92.0929 17.0097 92.4096 17.0097H92.4424V17.0425V17.3041H92.4096H92.294C91.98 17.3131 91.6549 17.3417 91.6485 18.2414V21.717C91.6485 21.9839 91.6543 22.2502 91.6915 22.4837L91.6978 22.5208H91.6614V22.5207ZM91.3713 22.454H91.6212C91.5879 22.2247 91.582 21.9705 91.582 21.7168V18.2413C91.582 17.3231 91.9671 17.2399 92.2943 17.2373H92.3769V17.0758C92.0756 17.0779 91.7738 17.1054 91.4683 17.1054C91.1208 17.1054 90.7792 17.0779 90.4335 17.0758V17.2373H90.5674C90.8042 17.2399 91.2648 17.3443 91.2648 17.9903L91.2564 20.8764L91.2421 20.8924L91.2178 20.9167L87.8191 17.0758C87.594 17.0758 87.371 17.1055 87.1391 17.1055C86.8578 17.1055 86.5714 17.0779 86.2933 17.0758V17.2373H86.3606C86.7192 17.24 87.0882 17.5106 87.0882 17.9581V21.1752C87.0882 21.7857 86.9177 22.1766 86.3685 22.1787L86.2933 22.1781V22.3397C86.6248 22.3381 86.9648 22.3105 87.3006 22.3105C87.6188 22.3105 87.935 22.3381 88.2522 22.3397V22.1787H88.1537C87.5543 22.1781 87.4045 21.915 87.4045 21.2508V18.0178L91.3713 22.454ZM91.2177 20.868L91.242 20.8462L91.2177 20.868ZM91.1997 20.8537V20.851L91.1933 20.8452L91.1997 20.8537Z" fill="white"/>
<path d="M93.6369 21.2816C93.5622 21.5405 93.4696 21.7407 93.4696 21.8768C93.4696 22.1066 93.791 22.1437 94.0415 22.1437H94.1268V22.374C93.8212 22.3576 93.5077 22.3439 93.2022 22.3439C92.9262 22.3439 92.6524 22.3577 92.3787 22.374V22.1437H92.4221C92.7213 22.1437 92.9744 21.9684 93.0873 21.647L94.3106 18.1423C94.409 17.8595 94.5472 17.4777 94.5918 17.1944C94.8364 17.1113 95.1414 16.9587 95.2881 16.8666C95.3098 16.8587 95.3252 16.8507 95.3485 16.8507C95.3713 16.8507 95.3855 16.8507 95.4009 16.8745C95.4242 16.9349 95.4481 17.0043 95.4708 17.0652L96.8752 21.0602C96.9668 21.3271 97.058 21.6094 97.1586 21.8392C97.2502 22.0531 97.4112 22.1437 97.6622 22.1437H97.7088V22.374C97.3646 22.3576 97.0209 22.3439 96.6539 22.3439C96.2805 22.3439 95.8982 22.3577 95.5084 22.374V22.1437H95.5933C95.7674 22.1437 96.0672 22.114 96.0672 21.9229C96.0672 21.8238 95.9977 21.6178 95.9125 21.3726L95.616 20.4867H93.8822L93.6369 21.2816ZM94.7532 17.8977H94.7379L94.0267 20.0593H95.4559L94.7532 17.8977Z" fill="white"/>
<path d="M97.7055 22.4064C97.3618 22.3927 97.0187 22.3757 96.6538 22.3757C96.2815 22.3757 95.8992 22.3927 95.5094 22.4064L95.4756 22.4085V22.3736V22.1109H95.5083H95.5915C95.7694 22.1109 96.0326 22.0696 96.0331 21.9229C96.0347 21.836 95.9659 21.628 95.8807 21.3833L95.5905 20.5196H93.9049L93.6686 21.2911C93.5924 21.5527 93.5013 21.7534 93.5029 21.8769C93.5029 22.0643 93.7888 22.1109 94.0415 22.1109H94.158V22.1438V22.4085L94.1241 22.4064C93.8185 22.3927 93.506 22.3757 93.2022 22.3757C92.9284 22.3757 92.6539 22.3927 92.3786 22.4064L92.3452 22.4085V22.3736V22.1109H92.3786H92.4221C92.7069 22.1098 92.9452 21.9462 93.0565 21.6364L94.2787 18.1313C94.3761 17.8479 94.5138 17.4672 94.5816 17.1638C94.8215 17.0806 95.1281 16.9281 95.2764 16.8348C95.2965 16.828 95.3172 16.819 95.3484 16.819C95.3685 16.8168 95.4076 16.8216 95.432 16.8634C95.4548 16.9233 95.4771 16.9927 95.5025 17.0546L96.9069 21.0492C96.998 21.3171 97.0896 21.5994 97.1886 21.8266C97.278 22.0288 97.4174 22.1088 97.661 22.1109H97.7404V22.1438V22.4085L97.7055 22.4064ZM95.5412 22.3391C95.9188 22.3248 96.2906 22.31 96.6538 22.31C97.0091 22.31 97.3423 22.3248 97.6748 22.3381L97.6737 22.1786H97.661C97.4025 22.1792 97.2221 22.0775 97.1272 21.8525C97.0266 21.6205 96.9356 21.3372 96.8444 21.0708L95.4389 17.0758C95.4161 17.0149 95.3929 16.9455 95.3744 16.8936C95.368 16.8841 95.3686 16.8841 95.3627 16.8841H95.3484C95.3325 16.8841 95.3239 16.8894 95.3054 16.8947C95.1567 16.9884 94.8505 17.1409 94.6244 17.1997C94.5773 17.4889 94.4386 17.8696 94.3401 18.1529L93.1174 21.6586C93.0013 21.9901 92.7345 22.1792 92.422 22.1786H92.4108V22.3381C92.6735 22.3248 92.9362 22.31 93.202 22.31C93.4981 22.31 93.7993 22.3248 94.0933 22.3381V22.1786H94.0414C93.7931 22.1754 93.4446 22.1485 93.4356 21.8768C93.4372 21.7254 93.5319 21.531 93.6056 21.2721L93.6368 21.2821L93.6056 21.2709L93.8571 20.4544H95.6381L95.9441 21.362C96.0283 21.6078 96.0977 21.8106 96.0977 21.9229C96.0865 22.1575 95.7662 22.1738 95.5914 22.1786H95.5411V22.3391H95.5412ZM93.9811 20.0917L94.7135 17.8643H94.7367H94.7532V17.8977L94.7452 17.8993L94.7532 17.8977V17.8643H94.7771L95.4988 20.0917H93.9811ZM94.0727 20.026H95.4083L94.7442 17.9803L94.0727 20.026ZM94.7214 17.9073L94.7367 17.9014L94.7214 17.9073Z" fill="white"/>
<path d="M99.6331 21.6252C99.6331 21.9308 99.8449 22.0219 100.09 22.0531C100.403 22.0764 100.746 22.0764 101.099 22.0378C101.419 21.9992 101.694 21.8159 101.831 21.6252C101.953 21.4568 102.021 21.2429 102.068 21.075H102.289C102.205 21.5103 102.098 21.9393 102.006 22.374C101.336 22.374 100.662 22.3438 99.991 22.3438C99.318 22.3438 98.6471 22.374 97.9751 22.374V22.1436H98.0799C98.3564 22.1436 98.6551 22.1066 98.6551 21.6326V17.7075C98.6551 17.3092 98.3563 17.2717 98.0799 17.2717H97.9751V17.0424C98.3786 17.0424 98.7763 17.0726 99.1804 17.0726C99.5711 17.0726 99.9525 17.0424 100.342 17.0424V17.2717H100.15C99.8608 17.2717 99.6331 17.2802 99.6331 17.6837V21.6252Z" fill="white"/>
<path d="M102.006 22.4064C101.333 22.4064 100.661 22.3757 99.9909 22.3757C99.3183 22.3757 98.6463 22.4064 97.9733 22.4064H97.9409V22.3736V22.1109H97.9733H98.0797C98.3567 22.1046 98.6183 22.0855 98.6215 21.6327V17.7061C98.6182 17.3349 98.3582 17.3094 98.0797 17.3041H97.9409V17.2718V17.0097H97.9733C98.3795 17.0097 98.7772 17.0388 99.1806 17.0388C99.5683 17.0388 99.9496 17.0097 100.342 17.0097H100.373V17.0425V17.3041H100.342H100.15C99.8543 17.3126 99.67 17.2988 99.6642 17.6838V21.6254C99.6662 21.9098 99.8527 21.9865 100.091 22.0199C100.226 22.0294 100.367 22.0353 100.515 22.0353C100.702 22.0353 100.896 22.0263 101.093 22.0051C101.404 21.9686 101.672 21.789 101.804 21.6068C101.921 21.4437 101.989 21.234 102.034 21.0672L102.041 21.0418H102.067H102.329L102.322 21.0821C102.236 21.519 102.131 21.9458 102.038 22.3806L102.032 22.4065H102.006H102.006V22.4064ZM101.978 22.3397C102.067 21.9256 102.167 21.5204 102.249 21.1074H102.092C102.045 21.2736 101.977 21.4786 101.857 21.6454C101.714 21.8434 101.431 22.0299 101.1 22.0706C100.9 22.0913 100.702 22.1019 100.515 22.1019C100.367 22.1019 100.223 22.095 100.085 22.0854C99.8368 22.0579 99.5958 21.952 99.5969 21.6253V17.6837C99.5969 17.2596 99.8653 17.2378 100.15 17.2378H100.308V17.0758C99.9316 17.0779 99.5609 17.1059 99.1806 17.1059C98.785 17.1059 98.3984 17.0779 98.0065 17.0758V17.2378H98.0797C98.3524 17.2378 98.686 17.2855 98.686 17.706V21.6327C98.686 22.1268 98.3539 22.1781 98.0797 22.1781H98.0065V22.3397C98.6669 22.3391 99.3273 22.3105 99.9909 22.3105C100.654 22.3105 101.318 22.3391 101.978 22.3397Z" fill="white"/>
<path d="M102.196 16.8253C102.656 16.8253 103 17.179 103 17.6323C103 18.0835 102.656 18.4341 102.196 18.4341C101.736 18.4341 101.392 18.0835 101.392 17.6323C101.392 17.1791 101.736 16.8253 102.196 16.8253ZM102.196 18.2842C102.556 18.2842 102.832 17.9771 102.832 17.6323C102.832 17.2855 102.56 16.9757 102.196 16.9757C101.834 16.9757 101.558 17.2855 101.558 17.6323C101.558 17.9771 101.834 18.2842 102.196 18.2842ZM101.796 18.056V18.0163C101.895 18.0025 101.913 18.0057 101.913 17.9443V17.349C101.913 17.2654 101.904 17.2368 101.799 17.241V17.2002H102.211C102.353 17.2002 102.482 17.2675 102.482 17.4136C102.482 17.5333 102.403 17.6217 102.292 17.6562L102.424 17.8404C102.486 17.9241 102.556 18.0025 102.602 18.03V18.0559H102.445C102.37 18.0559 102.304 17.8976 102.156 17.6852H102.067V17.9527C102.067 18.0056 102.085 18.0025 102.184 18.0162V18.0559H101.796V18.056ZM102.067 17.6323H102.162C102.265 17.6323 102.314 17.5534 102.314 17.4269C102.314 17.2987 102.239 17.2536 102.156 17.2536H102.067V17.6323Z" fill="white"/>
<path d="M19.7363 26.6899C27.031 26.7248 33.6892 20.7408 33.6892 13.4609C33.6892 5.50001 27.031 -0.00267738 19.7363 -2.95624e-05H13.4583C6.07621 -0.00267738 0 5.50165 0 13.4609C0 20.7424 6.07621 26.7249 13.4583 26.6899H19.7363Z" fill="#0079BE"/>
<path d="M13.488 1.10306C6.7424 1.10518 1.27625 6.57291 1.27466 13.3212C1.27625 20.0683 6.74234 25.5355 13.488 25.5376C20.2351 25.5355 25.7024 20.0683 25.7033 13.3212C25.7023 6.57291 20.2351 1.10518 13.488 1.10306ZM5.74629 13.3212C5.75264 10.0236 7.81211 7.21162 10.7162 6.09419V20.5465C7.81211 19.4297 5.75259 16.6193 5.74629 13.3212ZM16.2586 20.5497V6.09371C19.1638 7.20844 21.2265 10.022 21.2318 13.3212C21.2265 16.6214 19.1638 19.4328 16.2586 20.5497Z" fill="white"/>
<path d="M37.9671 5.74212C37.9671 4.47959 37.3088 4.56273 36.6775 4.54901V4.18414C37.2246 4.21115 37.7854 4.21115 38.3335 4.21115C38.9229 4.21115 39.7231 4.18414 40.7621 4.18414C44.3959 4.18414 46.3749 6.61166 46.3749 9.09737C46.3749 10.4875 45.5615 13.9821 40.5931 13.9821C39.8777 13.9821 39.2173 13.9545 38.558 13.9545C37.9268 13.9545 37.3088 13.9683 36.6775 13.9821V13.6177C37.519 13.5329 37.9268 13.5049 37.967 12.5501V5.74212H37.9671ZM39.3429 12.3261C39.3429 13.407 40.1155 13.533 40.8029 13.533C43.8352 13.533 44.8307 11.2448 44.8307 9.15298C44.8307 6.52899 43.1462 4.63422 40.4381 4.63422C39.8619 4.63422 39.5971 4.67552 39.3429 4.69041L39.3429 12.3261Z" fill="white"/>
<path d="M46.8674 13.6178H47.1333C47.5257 13.6178 47.8069 13.6178 47.8069 13.1533V9.35003C47.8069 8.73314 47.5966 8.6473 47.0772 8.36822V8.14316C47.7365 7.9451 48.5235 7.68032 48.5785 7.63796C48.6775 7.58182 48.7612 7.56699 48.8316 7.56699C48.9011 7.56699 48.9301 7.65172 48.9301 7.76452V13.1533C48.9301 13.6178 49.2389 13.6178 49.6318 13.6178H49.8701V13.9826C49.3924 13.9826 48.901 13.9546 48.3969 13.9546C47.8917 13.9546 47.3859 13.9684 46.8675 13.9826V13.6178H46.8674ZM48.3687 5.40579C48.0034 5.40579 47.6814 5.06905 47.6814 4.70412C47.6814 4.35249 48.0182 4.02893 48.3687 4.02893C48.7326 4.02893 49.0566 4.32501 49.0566 4.70412C49.0566 5.08329 48.7469 5.40579 48.3687 5.40579Z" fill="white"/>
<path d="M51.2034 9.43373C51.2034 8.91475 51.0482 8.77495 50.39 8.50805V8.24173C50.9932 8.04526 51.5678 7.86257 52.2418 7.56707C52.2837 7.56707 52.325 7.59567 52.325 7.7074V8.62032C53.1263 8.04526 53.8142 7.56702 54.7557 7.56702C55.9472 7.56702 56.3681 8.43756 56.3681 9.53217V13.1534C56.3681 13.6178 56.6769 13.6178 57.0703 13.6178H57.323V13.9827C56.8304 13.9827 56.3396 13.9547 55.8354 13.9547C55.3297 13.9547 54.8239 13.9684 54.3193 13.9827V13.6178H54.5713C54.9653 13.6178 55.2445 13.6178 55.2445 13.1534V9.51893C55.2445 8.7177 54.7557 8.3253 53.9544 8.3253C53.5059 8.3253 52.7899 8.69022 52.3249 8.99943V13.1533C52.3249 13.6177 52.6352 13.6177 53.0288 13.6177H53.2808V13.9826C52.7899 13.9826 52.2979 13.9546 51.7928 13.9546C51.288 13.9546 50.7818 13.9684 50.2771 13.9826V13.6177H50.5302C50.9232 13.6177 51.2033 13.6177 51.2033 13.1533V9.43373H51.2034Z" fill="white"/>
<path d="M58.3902 10.1083C58.361 10.2349 58.361 10.4451 58.3902 10.9228C58.4728 12.2557 59.3312 13.3504 60.4522 13.3504C61.2249 13.3504 61.8296 12.9294 62.3481 12.4104L62.544 12.6074C61.898 13.4632 61.0982 14.1928 59.9481 14.1928C57.716 14.1928 57.2668 12.0306 57.2668 11.1331C57.2668 8.38142 59.1193 7.56696 60.1011 7.56696C61.2386 7.56696 62.4603 8.28245 62.4736 9.77047C62.4736 9.85573 62.4736 9.93887 62.4603 10.0241L62.3332 10.1083H58.3902ZM60.8749 9.65878C61.2249 9.65878 61.2663 9.47608 61.2663 9.30821C61.2663 8.59219 60.8314 8.01655 60.045 8.01655C59.1898 8.01655 58.6003 8.64726 58.4319 9.65878H60.8749Z" fill="white"/>
<path d="M62.7966 13.6178H63.1758C63.5676 13.6178 63.8483 13.6178 63.8483 13.1533V9.20966C63.8483 8.77489 63.3299 8.69016 63.1186 8.57789V8.36818C64.1433 7.93235 64.7051 7.56696 64.8327 7.56696C64.9159 7.56696 64.9572 7.60932 64.9572 7.75018V9.01319H64.9869C65.3369 8.46615 65.9274 7.56696 66.7826 7.56696C67.1337 7.56696 67.5823 7.80526 67.5823 8.31099C67.5823 8.69016 67.3164 9.02802 66.9236 9.02802C66.4867 9.02802 66.4867 8.69016 65.9963 8.69016C65.7575 8.69016 64.9721 9.01319 64.9721 9.85573V13.1533C64.9721 13.6177 65.2522 13.6177 65.6457 13.6177H66.431V13.9827C65.6589 13.9683 65.0716 13.9546 64.4669 13.9546C63.8918 13.9546 63.3018 13.9684 62.7967 13.9827V13.6178H62.7966Z" fill="white"/>
<path d="M68.2002 12.0306C68.383 12.9574 68.9438 13.7438 69.9689 13.7438C70.7951 13.7438 71.1043 13.2386 71.1043 12.7472C71.1043 11.0907 68.0455 11.624 68.0455 9.36435C68.0455 8.57795 68.6778 7.56702 70.221 7.56702C70.6696 7.56702 71.2726 7.69411 71.8197 7.97531L71.9193 9.40571H71.5958C71.4559 8.52235 70.9651 8.01667 70.0658 8.01667C69.5045 8.01667 68.9717 8.33975 68.9717 8.94287C68.9717 10.5866 72.2275 10.0798 72.2275 12.2834C72.2275 13.2096 71.4834 14.193 69.8132 14.193C69.2519 14.193 68.5925 13.9965 68.1017 13.7164L67.947 12.1018L68.2002 12.0306Z" fill="white"/>
<path d="M84.9006 6.72495H84.5505C84.2836 5.0833 83.1186 4.42294 81.5474 4.42294C79.9322 4.42294 77.5884 5.50319 77.5884 8.8718C77.5884 11.7092 79.6107 13.7437 81.7714 13.7437C83.1604 13.7437 84.3122 12.7895 84.5928 11.3152L84.9148 11.3989L84.5928 13.4482C84.0034 13.8142 82.4174 14.1928 81.4901 14.1928C78.2068 14.1928 76.1304 12.0731 76.1304 8.91469C76.1304 6.03705 78.6982 3.97281 81.4488 3.97281C82.5853 3.97281 83.6799 4.33927 84.7607 4.71843L84.9006 6.72495Z" fill="white"/>
<path d="M85.4068 13.6178H85.6727C86.0661 13.6178 86.3479 13.6178 86.3479 13.1533V5.33597C86.3479 4.42301 86.1371 4.39489 85.6033 4.24078V4.01625C86.1646 3.83413 86.754 3.58095 87.049 3.41207C87.202 3.3284 87.3153 3.25739 87.3566 3.25739C87.4425 3.25739 87.4705 3.34217 87.4705 3.45491V13.1533C87.4705 13.6178 87.7787 13.6178 88.1722 13.6178H88.4089V13.9827C87.9339 13.9827 87.4425 13.9546 86.9367 13.9546C86.4321 13.9546 85.9268 13.9684 85.4067 13.9827V13.6178H85.4068Z" fill="white"/>
<path d="M94.4182 13.2095C94.4182 13.4632 94.5718 13.4769 94.8101 13.4769C94.979 13.4769 95.1888 13.4632 95.3719 13.4632V13.7587C94.7678 13.8143 93.617 14.1092 93.3501 14.1929L93.2796 14.1505V13.0146C92.4387 13.7019 91.7921 14.1929 90.7949 14.1929C90.0372 14.1929 89.2514 13.7019 89.2514 12.5237V8.92898C89.2514 8.56411 89.1957 8.21296 88.4109 8.14311V7.87621C88.9167 7.86244 90.0372 7.77819 90.2204 7.77819C90.3761 7.77819 90.3761 7.87621 90.3761 8.18495V11.8055C90.3761 12.2276 90.3761 13.4345 91.5962 13.4345C92.0733 13.4345 92.7046 13.0696 93.2935 12.5797V8.80183C93.2935 8.52223 92.6204 8.36812 92.1163 8.22721V7.9746C93.3777 7.88987 94.1651 7.77814 94.3044 7.77814C94.4182 7.77814 94.4182 7.87611 94.4182 8.03127V13.2095H94.4182Z" fill="white"/>
<path d="M97.2109 8.57796C97.7717 8.10077 98.5294 7.56702 99.302 7.56702C100.93 7.56702 101.912 8.98625 101.912 10.515C101.912 12.3537 100.565 14.1929 98.5569 14.1929C97.519 14.1929 96.9719 13.8555 96.6065 13.7019L96.1861 14.0239L95.8922 13.8704C96.0167 13.0421 96.0881 12.2277 96.0881 11.3719V5.33592C96.0881 4.42301 95.8763 4.39489 95.3435 4.24078V4.01625C95.9065 3.83413 96.4942 3.58095 96.7893 3.41202C96.9439 3.32835 97.0556 3.25739 97.0991 3.25739C97.1827 3.25739 97.2107 3.34217 97.2107 3.45491V8.5779H97.2109V8.57796ZM97.2109 12.3956C97.2109 12.9294 97.7155 13.8286 98.656 13.8286C100.158 13.8286 100.789 12.3537 100.789 11.104C100.789 9.58842 99.6394 8.32541 98.5443 8.32541C98.0237 8.32541 97.5894 8.66274 97.2109 8.98625V12.3956H97.2109Z" fill="white"/>
<path d="M36.6616 22.1437H36.7691C37.0434 22.1437 37.3336 22.1067 37.3336 21.7089V17.7075C37.3336 17.3092 37.0434 17.2717 36.7691 17.2717H36.6616V17.0424C36.9598 17.0424 37.4178 17.0726 37.7933 17.0726C38.1746 17.0726 38.6321 17.0424 38.9912 17.0424V17.2717H38.8837C38.6099 17.2717 38.3192 17.3093 38.3192 17.7075V21.7089C38.3192 22.1067 38.6099 22.1437 38.8837 22.1437H38.9912V22.3741C38.6247 22.3741 38.1656 22.3439 37.7848 22.3439C37.4105 22.3439 36.9598 22.3741 36.6616 22.3741V22.1437Z" fill="white"/>
<path d="M38.9915 22.4064C38.6224 22.4064 38.1649 22.3757 37.7846 22.3757C37.4113 22.3757 36.9622 22.4064 36.6619 22.4064H36.6292V22.3736V22.1443V22.1109H36.6619H36.769C37.0459 22.1046 37.298 22.0823 37.3006 21.709V17.7076C37.298 17.3342 37.0459 17.3093 36.769 17.304H36.6292V17.2718V17.0085H36.6619C36.9622 17.0085 37.4198 17.0387 37.7931 17.0387C38.1733 17.0387 38.6304 17.0085 38.9915 17.0085H39.0254V17.0435V17.304H38.9915H38.8845C38.6075 17.3093 38.3538 17.3342 38.3523 17.7076V21.709C38.3538 22.0823 38.6075 22.1046 38.8845 22.1109H39.0254V22.1443V22.4064H38.9915ZM38.9586 22.3412V22.1781H38.8846C38.6118 22.1781 38.2872 22.131 38.2856 21.709V17.7076C38.2872 17.2855 38.6118 17.2378 38.8846 17.2378H38.9586V17.0758C38.606 17.0758 38.1638 17.1055 37.7931 17.1055C37.4303 17.1055 36.9913 17.0779 36.6958 17.0758V17.2378H36.7689C37.0411 17.2378 37.3668 17.2855 37.3668 17.7076V21.709C37.3668 22.1311 37.0411 22.1781 36.7689 22.1781H36.6958V22.3412C36.9913 22.3381 37.4229 22.3105 37.7846 22.3105C38.1564 22.3105 38.5985 22.3391 38.9586 22.3412Z" fill="white"/>
<path d="M44.2375 20.8685L44.2528 20.8536V17.9898C44.2528 17.3628 43.8171 17.2717 43.5883 17.2717H43.4198V17.0423C43.7794 17.0423 44.1305 17.0725 44.489 17.0725C44.8019 17.0725 45.1165 17.0423 45.429 17.0423V17.2717H45.3146C44.9932 17.2717 44.6341 17.3325 44.6341 18.2413V21.7174C44.6341 21.9843 44.642 22.2512 44.6796 22.4879H44.3889L40.4569 18.1037V21.2509C40.4569 21.9155 40.5856 22.1437 41.1745 22.1437H41.3036V22.3741C40.9759 22.3741 40.648 22.3439 40.3192 22.3439C39.9766 22.3439 39.625 22.3741 39.2808 22.3741V22.1437H39.3877C39.9146 22.1437 40.0746 21.7857 40.0746 21.1751V17.958C40.0746 17.5307 39.7225 17.2717 39.3804 17.2717H39.2808V17.0424C39.571 17.0424 39.8686 17.0726 40.1583 17.0726C40.3875 17.0726 40.6095 17.0424 40.8382 17.0424L44.2375 20.8685Z" fill="white"/>
<path d="M44.6797 22.5213L44.3647 22.5096L40.4893 18.19V21.2509C40.4983 21.915 40.5994 22.1035 41.1745 22.1109H41.3382V22.1437V22.4064H41.3043C40.9738 22.4064 40.645 22.3757 40.3192 22.3757C39.9771 22.3757 39.6266 22.4064 39.2802 22.4064H39.2469V22.3736V22.1109H39.2802H39.3877C39.8924 22.1082 40.0365 21.7842 40.0423 21.1752V17.9586C40.0412 17.5519 39.7076 17.3051 39.3803 17.304H39.2468V17.2702V17.0096H39.2802C39.572 17.0096 39.8712 17.0387 40.1577 17.0387C40.3849 17.0387 40.6063 17.0096 40.8636 17.0207L44.22 20.7992V17.9904C44.2157 17.3825 43.8107 17.3094 43.5882 17.304H43.3859V17.2702V17.0096H43.4198C43.7805 17.0096 44.132 17.0387 44.489 17.0387C44.7998 17.0387 45.1128 17.0096 45.4284 17.0096H45.4618V17.0424V17.304H45.4284H45.3146C44.9995 17.3131 44.6759 17.3405 44.667 18.2413V21.7168C44.667 21.9837 44.6748 22.2506 44.712 22.4821L44.7194 22.5213H44.6797V22.5213ZM44.3896 22.454H44.6422C44.6078 22.2247 44.6019 21.9705 44.6019 21.7168V18.2413C44.6019 17.3247 44.9859 17.2379 45.3147 17.2379H45.3952V17.0758C45.0944 17.0779 44.7926 17.1054 44.4892 17.1054C44.1397 17.1054 43.7997 17.0779 43.4539 17.0758L43.4534 17.2379H43.5884C43.823 17.2379 44.2864 17.3427 44.2864 17.9904L44.2758 20.8764L44.2604 20.8924L44.2345 20.9162L40.8384 17.0758C40.6118 17.0758 40.3904 17.1054 40.1579 17.1054C39.8777 17.1054 39.5913 17.0779 39.3143 17.0758L39.3127 17.2378H39.3805C39.739 17.2378 40.107 17.5116 40.107 17.9585V21.1751C40.107 21.7856 39.9371 22.1765 39.3879 22.1786L39.3143 22.1765V22.3411C39.6453 22.338 39.9852 22.3104 40.3193 22.3104C40.6382 22.3104 40.9554 22.338 41.271 22.3411V22.1786H41.1746C40.5735 22.1765 40.4243 21.9149 40.4237 21.2508V18.0178L44.3896 22.454ZM44.2375 20.868L44.2619 20.8457L44.2375 20.868ZM44.2201 20.8532V20.8505L44.2137 20.8452L44.2201 20.8532Z" fill="white"/>
<path d="M46.5725 17.4237C45.9989 17.4237 45.9772 17.5615 45.8628 18.1185H45.6335C45.6637 17.9051 45.7019 17.6917 45.7252 17.4693C45.7558 17.2553 45.7706 17.0424 45.7706 16.8211H45.9544C46.0158 17.0504 46.2065 17.0424 46.4136 17.0424H50.353C50.5595 17.0424 50.7502 17.035 50.7661 16.8052L50.9482 16.836C50.9185 17.0424 50.8878 17.2485 50.8645 17.455C50.8507 17.661 50.8507 17.8675 50.8507 18.073L50.6209 18.1582C50.605 17.876 50.5669 17.4237 50.0559 17.4237H48.8035V21.4876C48.8035 22.0765 49.0709 22.1438 49.4363 22.1438H49.5819V22.3741C49.2843 22.3741 48.749 22.3439 48.3374 22.3439C47.8794 22.3439 47.344 22.3741 47.0458 22.3741V22.1438H47.1915C47.6125 22.1438 47.8254 22.1061 47.8254 21.5035V17.4237H46.5725Z" fill="white"/>
<path d="M49.5829 22.4064C49.282 22.4064 48.7477 22.3757 48.3373 22.3757C47.8798 22.3757 47.3455 22.4064 47.0457 22.4064H47.0139V22.3741V22.1109H47.0457H47.1913C47.6123 22.1008 47.7817 22.0955 47.7913 21.5034V17.4571H46.5723V17.4237V17.3898H47.8576V21.5034C47.8576 22.1161 47.6108 22.1781 47.1914 22.1786H47.0791V22.3396C47.3804 22.3381 47.8941 22.3105 48.3373 22.3105C48.7356 22.3105 49.2461 22.3381 49.5479 22.3396V22.1786H49.4362C49.0671 22.1781 48.77 22.0876 48.77 21.4876V17.3898H50.0558C50.5684 17.3919 50.6351 17.8277 50.6521 18.1111L50.8168 18.0502C50.8168 17.851 50.8178 17.6514 50.8316 17.4502C50.8538 17.2537 50.8819 17.0588 50.9105 16.8639L50.7939 16.8443C50.7585 17.0668 50.544 17.0779 50.3517 17.0758H46.4134H46.3737C46.1942 17.0758 45.9977 17.0673 45.9294 16.8539H45.8033C45.8022 17.0652 45.7874 17.2702 45.7583 17.4735C45.736 17.6832 45.7011 17.885 45.6725 18.0868H45.8362C45.9367 17.5545 46.0024 17.3819 46.5722 17.3899V17.4237V17.4571C46.0077 17.4672 46.0194 17.5625 45.8949 18.127L45.8891 18.1529H45.8626H45.5952L45.5995 18.1132C45.6302 17.8993 45.6689 17.6864 45.6916 17.4639C45.7234 17.2521 45.7382 17.0403 45.7382 16.821V16.7877H45.7705H45.9802L45.9855 16.8115C46.0379 17.0043 46.1793 17.0053 46.3737 17.0085H46.4134H50.3517C50.5647 17.0053 50.7193 17.0022 50.7325 16.8025L50.7357 16.7664L50.7701 16.7739L50.9856 16.8078L50.9808 16.8412C50.9501 17.0456 50.92 17.2521 50.8977 17.4571C50.8824 17.6604 50.8824 17.8669 50.8824 18.0729V18.0968L50.8612 18.1052L50.5906 18.2037L50.5885 18.1592C50.5683 17.8722 50.5382 17.457 50.0557 17.457H48.8367V21.4875C48.8436 22.0637 49.0723 22.1034 49.4361 22.1108H49.6151V22.1436V22.4063L49.5829 22.4064Z" fill="white"/>
<path d="M51.1924 22.1437H51.2999C51.5743 22.1437 51.8649 22.1067 51.8649 21.7089V17.7075C51.8649 17.3092 51.5743 17.2717 51.2999 17.2717H51.1924V17.0424C51.6573 17.0424 52.4528 17.0726 53.0929 17.0726C53.7359 17.0726 54.5286 17.0424 55.0475 17.0424C55.0349 17.3702 55.0418 17.8754 55.0645 18.2107L54.8341 18.272C54.7976 17.7759 54.706 17.3792 53.9037 17.3792H52.843V19.3794H53.7508C54.2087 19.3794 54.3089 19.1204 54.3539 18.7069H54.5826C54.5679 19.0061 54.5599 19.3037 54.5599 19.6013C54.5599 19.8921 54.5678 20.1817 54.5826 20.4719L54.3539 20.5174C54.3089 20.0594 54.2856 19.7617 53.7581 19.7617H52.8431V21.5405C52.8431 22.0378 53.2842 22.0378 53.7735 22.0378C54.6901 22.0378 55.0942 21.9759 55.3236 21.1063L55.5376 21.1587C55.4374 21.5644 55.3463 21.9684 55.2785 22.3741C54.7892 22.3741 53.9107 22.3439 53.2243 22.3439C52.5359 22.3439 51.6278 22.3741 51.1924 22.3741V22.1437Z" fill="white"/>
<path d="M55.2777 22.4064C54.7874 22.4064 53.9094 22.3751 53.2236 22.3751C52.5357 22.3751 51.628 22.4064 51.1922 22.4064H51.1599V22.3741V22.1437V22.1109H51.1922H51.2992C51.5761 22.1067 51.8271 22.0823 51.8309 21.709V17.7075C51.8272 17.3347 51.5761 17.3098 51.2992 17.304H51.1599V17.2717V17.0096H51.1922C51.6582 17.0096 52.4525 17.0387 53.0928 17.0387C53.7351 17.0387 54.5274 17.0096 55.0474 17.0096H55.0818L55.0802 17.0435C55.0749 17.1584 55.0728 17.2939 55.0728 17.438C55.0728 17.7022 55.0802 17.9908 55.0956 18.2085L55.0966 18.2361L55.0712 18.2435L54.8027 18.3135L54.8012 18.2743C54.7562 17.7786 54.69 17.419 53.9036 17.4116H52.8747L52.8736 19.345H53.7506C54.1902 19.3408 54.269 19.1157 54.3209 18.7043L54.3236 18.6741H54.3532H54.6165L54.6159 18.7085C54.6012 19.0061 54.5915 19.3037 54.5915 19.6013C54.5915 19.8904 54.6012 20.1801 54.6159 20.4708L54.6165 20.4979L54.5889 20.5042L54.3236 20.5572L54.3209 20.5211C54.2685 20.0551 54.2647 19.7999 53.7574 19.7941L52.8746 19.7935V21.5406C52.8753 22.0045 53.2755 22.0018 53.7734 22.0045C54.6926 21.9992 55.0613 21.9547 55.2916 21.0968L55.2991 21.0661L55.3313 21.0719L55.576 21.1349L55.5686 21.1667C55.4701 21.5713 55.3785 21.9748 55.3101 22.3793L55.3038 22.4064H55.2777ZM55.2497 22.3397C55.3159 21.9546 55.4032 21.5681 55.497 21.1836L55.3461 21.1454C55.1173 22.0002 54.6745 22.0764 53.7733 22.0706C53.2924 22.0706 52.8105 22.0706 52.8083 21.5405V19.7283H53.7574C54.2906 19.7225 54.3452 20.0445 54.3828 20.4793L54.5481 20.4449C54.5332 20.1636 54.5263 19.8814 54.5263 19.6012C54.5263 19.3137 54.5332 19.0278 54.5481 18.7402H54.3828C54.3405 19.1379 54.216 19.4175 53.7505 19.4122H52.8084V17.3448H53.9036C54.698 17.3394 54.8297 17.7494 54.8637 18.2297L55.0284 18.1852C55.0152 17.9697 55.0061 17.6932 55.0061 17.438C55.0061 17.3072 55.0093 17.1838 55.0135 17.0758C54.4946 17.0779 53.7214 17.1054 53.0928 17.1054C52.4653 17.1054 51.6927 17.0779 51.2251 17.0758V17.2378H51.2991C51.5713 17.2378 51.8965 17.2855 51.8975 17.7075V21.709C51.8965 22.13 51.5713 22.1766 51.2991 22.1787H51.2251V22.3397C51.6705 22.3391 52.5527 22.3105 53.2236 22.3105C53.8972 22.3105 54.7572 22.3391 55.2497 22.3397Z" fill="white"/>
<path d="M56.5681 17.8516C56.5681 17.2945 56.2631 17.2717 56.0253 17.2717H55.8882V17.0419C56.1328 17.0419 56.6057 17.0726 57.0718 17.0726C57.5298 17.0726 57.8968 17.0419 58.3009 17.0419C59.2625 17.0419 60.1189 17.3019 60.1189 18.3875C60.1189 19.0733 59.6608 19.4937 59.0576 19.7315L60.363 21.6856C60.5769 22.0086 60.7289 22.0992 61.1038 22.1436V22.374C60.8518 22.374 60.6071 22.3439 60.3555 22.3439C60.1189 22.3439 59.8736 22.374 59.6379 22.374C59.0501 21.6025 58.5449 20.7774 58.0487 19.8983H57.5462V21.5336C57.5462 22.1225 57.82 22.1437 58.1711 22.1437H58.3088V22.3741C57.8724 22.3741 57.4314 22.3439 56.9955 22.3439C56.6285 22.3439 56.2694 22.3741 55.8882 22.3741V22.1437H56.0253C56.3091 22.1437 56.5681 22.0155 56.5681 21.7322V17.8516ZM57.5461 19.6235H57.919C58.6832 19.6235 59.0946 19.3333 59.0946 18.432C59.0946 17.7531 58.6599 17.3172 57.9794 17.3172C57.7501 17.3172 57.6526 17.3411 57.5461 17.348V19.6235H57.5461Z" fill="white"/>
<path d="M61.1036 22.4064C60.8479 22.4064 60.6048 22.3757 60.3538 22.3757C60.1208 22.3757 59.8772 22.4064 59.6108 22.3937C59.0251 21.6253 58.5231 20.805 58.0295 19.9323H57.5783V21.5327C57.5863 22.1073 57.8172 22.1025 58.1704 22.111H58.3414V22.1438V22.4065H58.3075C57.8711 22.4065 57.4279 22.3758 56.9942 22.3758C56.6293 22.3758 56.2714 22.4065 55.8879 22.4065H55.8545V22.3736V22.111H55.8879H56.0251C56.3004 22.1094 56.5324 21.9897 56.5334 21.7323V17.8518C56.5277 17.3095 56.2624 17.3126 56.0251 17.3047H55.8545V17.2719V17.0087H55.8879C56.1352 17.0087 56.6065 17.0388 57.0715 17.0388C57.5274 17.0388 57.8945 17.0087 58.3012 17.0087C59.2634 17.0108 60.1499 17.2767 60.1525 18.3856C60.1525 19.0756 59.6966 19.5061 59.1071 19.7465L60.3903 21.6677C60.6037 21.9844 60.7366 22.0634 61.1084 22.111L61.1364 22.1152V22.1438V22.4065H61.1036V22.4064ZM57.545 19.8655H58.0671L58.0761 19.8825C58.5739 20.76 59.0753 21.584 59.6378 22.3412C59.8708 22.3412 60.1159 22.31 60.3538 22.31C60.5978 22.31 60.833 22.3365 61.0707 22.3402V22.1728C60.7122 22.1284 60.5444 22.0214 60.3358 21.7042L59.0071 19.7156L59.0446 19.7003C59.642 19.4652 60.0842 19.0569 60.0848 18.3853C60.0842 17.3257 59.2612 17.08 58.3012 17.0758C57.8981 17.0758 57.5317 17.106 57.0715 17.106C56.623 17.106 56.1702 17.0779 55.9202 17.0758V17.2378H56.0251C56.2623 17.2384 56.6001 17.2776 56.6001 17.8517V21.7322C56.6001 22.0389 56.3126 22.1787 56.0251 22.1792H55.9202V22.3401C56.2878 22.3391 56.6356 22.31 56.9942 22.31C57.4215 22.31 57.8521 22.3391 58.2747 22.3401V22.1792H58.1703C57.8219 22.1786 57.5116 22.1352 57.5116 21.5326V19.8655H57.5449H57.545ZM57.545 19.6558H57.5116V17.3173L57.5407 17.3146C57.6451 17.3067 57.7484 17.285 57.9792 17.285C58.6751 17.285 59.1273 17.7372 59.1283 18.4335C59.1262 19.3454 58.6888 19.6552 57.9188 19.6558H57.545V19.6558ZM57.9188 19.5902C58.6749 19.5838 59.0553 19.3212 59.0632 18.4336C59.059 17.7663 58.6443 17.3522 57.9792 17.3496C57.7726 17.3496 57.6757 17.3686 57.5783 17.3772V19.5902H57.9188Z" fill="white"/>
<path d="M66.2886 20.8685L66.3024 20.8536V17.9898C66.3024 17.3628 65.8677 17.2717 65.6389 17.2717H65.4716V17.0423C65.8301 17.0423 66.1807 17.0725 66.5402 17.0725C66.8537 17.0725 67.1657 17.0423 67.4807 17.0423V17.2717H67.3658C67.045 17.2717 66.6859 17.3325 66.6859 18.2413V21.7174C66.6859 21.9843 66.6933 22.2512 66.7309 22.4879H66.4413L62.5087 18.1037V21.2509C62.5087 21.9155 62.6384 22.1437 63.2262 22.1437H63.356V22.3741C63.0282 22.3741 62.6994 22.3439 62.3716 22.3439C62.0267 22.3439 61.6757 22.3741 61.3325 22.3741V22.1437H61.4384C61.9659 22.1437 62.1263 21.7857 62.1263 21.1751V17.958C62.1263 17.5307 61.7752 17.2717 61.4321 17.2717H61.3325V17.0424C61.6217 17.0424 61.9209 17.0726 62.2105 17.0726C62.4383 17.0726 62.6607 17.0424 62.89 17.0424L66.2886 20.8685Z" fill="white"/>
<path d="M66.7311 22.5207L66.4166 22.5102L62.5408 18.19V21.2504C62.5498 21.915 62.6504 22.1034 63.2265 22.1109H63.3881V22.1437V22.4064H63.3547C63.0243 22.4064 62.697 22.3751 62.3697 22.3751C62.0287 22.3751 61.676 22.4064 61.3323 22.4064H61.2979V22.3741V22.1109H61.3323H61.4382C61.9423 22.1088 62.0869 21.7842 62.0917 21.1731V17.9581C62.0911 17.5513 61.7581 17.3046 61.4319 17.304H61.2979V17.2718V17.0086H61.3323C61.6235 17.0086 61.9223 17.0387 62.2103 17.0387C62.4348 17.0387 62.6562 17.0086 62.9125 17.0191L66.2694 20.7992V17.9893C66.2673 17.3824 65.8606 17.3072 65.6387 17.3041H65.4369V17.2718V17.0086H65.4703C65.8315 17.0086 66.1831 17.0387 66.54 17.0387C66.8514 17.0387 67.1644 17.0086 67.4789 17.0086H67.5122V17.043V17.3041H67.4789H67.3655C67.0505 17.3125 66.7258 17.3406 66.7179 18.2414V21.7169C66.7179 21.9838 66.7248 22.2485 66.7635 22.4837L66.7677 22.5207H66.7311ZM66.441 22.454H66.692C66.6586 22.2247 66.6512 21.9705 66.6512 21.7169V18.2413C66.6517 17.3246 67.0383 17.2399 67.3655 17.2373H67.4455V17.0758C67.1458 17.0779 66.8434 17.1054 66.5399 17.1054C66.1894 17.1054 65.8488 17.0779 65.5031 17.0758V17.2373H65.6387C65.8738 17.2399 66.3366 17.3427 66.3366 17.9893L66.3261 20.8765L66.3112 20.8923L66.288 20.9167L62.8892 17.0758C62.6625 17.0758 62.4412 17.1055 62.2103 17.1055C61.9276 17.1055 61.6421 17.0779 61.3641 17.0758V17.2373H61.4318C61.7904 17.24 62.1584 17.5106 62.1584 17.9581V21.173C62.1584 21.7862 61.9858 22.1765 61.4382 22.1786L61.3641 22.1781V22.3396C61.694 22.338 62.0345 22.3105 62.3697 22.3105C62.6902 22.3105 63.0074 22.338 63.323 22.3396V22.1786H63.2266C62.625 22.1781 62.4746 21.915 62.4736 21.2503V18.0189L66.441 22.454ZM66.2884 20.868L66.3116 20.8463L66.2884 20.868ZM66.2694 20.8537V20.851L66.2635 20.8452L66.2694 20.8537Z" fill="white"/>
<path d="M68.7085 21.2816C68.6313 21.5405 68.5391 21.7407 68.5391 21.8768C68.5391 22.1066 68.8606 22.1437 69.1116 22.1437H69.1969V22.374C68.8908 22.3576 68.5789 22.3439 68.2712 22.3439C67.9964 22.3439 67.7231 22.3577 67.4478 22.374V22.1437H67.4938C67.7913 22.1437 68.044 21.9684 68.1568 21.647L69.3801 18.1423C69.4786 17.8595 69.6173 17.4777 69.6635 17.1944C69.9066 17.1113 70.2126 16.9587 70.3572 16.8666C70.381 16.8587 70.3942 16.8507 70.4181 16.8507C70.4409 16.8507 70.4557 16.8507 70.4726 16.8745C70.4949 16.9349 70.5171 17.0043 70.5415 17.0652L71.9464 21.0602C72.038 21.3271 72.1285 21.6094 72.2276 21.8392C72.3198 22.0531 72.4807 22.1437 72.7333 22.1437H72.7783V22.374C72.4348 22.3576 72.0905 22.3439 71.7251 22.3439C71.3507 22.3439 70.9678 22.3577 70.5786 22.374V22.1437H70.6633C70.8381 22.1437 71.1368 22.114 71.1368 21.9229C71.1368 21.8238 71.0679 21.6178 70.9827 21.3726L70.6856 20.4867H68.9523L68.7085 21.2816ZM69.8228 17.8977H69.8074L69.0972 20.0593H70.5245L69.8228 17.8977Z" fill="white"/>
<path d="M72.7763 22.4064C72.4326 22.391 72.089 22.3751 71.7251 22.3751C71.3507 22.3751 70.9705 22.391 70.5796 22.4064L70.5452 22.4085V22.3741V22.1098H70.5786H70.6628C70.8397 22.1098 71.1023 22.0696 71.1023 21.923C71.1045 21.8361 71.0356 21.6264 70.9514 21.3833L70.6607 20.5196H68.9762L68.7389 21.2911C68.6616 21.5517 68.5701 21.7535 68.5705 21.8779C68.5731 22.0644 68.8586 22.1098 69.1117 22.1098H69.2293V22.1443V22.4085L69.1949 22.4064C68.8893 22.391 68.5774 22.3751 68.2729 22.3751C67.9991 22.3751 67.7238 22.391 67.45 22.4064L67.4146 22.4085V22.3741V22.1098H67.4479H67.4935C67.7778 22.1088 68.0151 21.9473 68.1252 21.6365L69.348 18.1313C69.4481 17.848 69.5858 17.4672 69.652 17.1627C69.8913 17.0817 70.1979 16.9281 70.3452 16.8349C70.3663 16.828 70.3876 16.8174 70.4188 16.8174C70.4374 16.8169 70.4786 16.8217 70.503 16.862C70.5247 16.925 70.5485 16.9928 70.5718 17.0547L71.9784 21.0493C72.0685 21.3173 72.1595 21.5995 72.2591 21.8251C72.3475 22.029 72.4879 22.1089 72.7335 22.11H72.8114V22.1444V22.4086L72.7763 22.4064ZM70.6119 22.3381C70.9901 22.3249 71.3603 22.31 71.7251 22.31C72.0799 22.31 72.4119 22.3249 72.7439 22.3381V22.1786H72.7334C72.4718 22.1802 72.2912 22.0775 72.1974 21.8525C72.0979 21.6205 72.0047 21.3372 71.9153 21.0698L70.5092 17.0758C70.486 17.0149 70.4637 16.9456 70.4435 16.8915C70.4372 16.8841 70.4388 16.8841 70.4325 16.8841H70.4186C70.4028 16.8841 70.3938 16.8889 70.3741 16.8942C70.227 16.99 69.9204 17.1399 69.6942 17.1997C69.6471 17.4889 69.5099 17.8702 69.4104 18.153L68.1881 21.6587C68.0717 21.9902 67.8042 22.1792 67.4934 22.1786H67.4812V22.3381C67.7428 22.3249 68.0076 22.31 68.2729 22.31C68.5678 22.31 68.8697 22.3249 69.1609 22.3381V22.1786H69.1117C68.8634 22.1755 68.5159 22.1474 68.5064 21.8778C68.5069 21.7253 68.6007 21.53 68.6753 21.2721L68.7087 21.2821L68.6753 21.271L68.9268 20.4544H70.7073L71.0138 21.3621C71.0997 21.6073 71.169 21.8106 71.169 21.9229C71.1585 22.1575 70.836 22.1739 70.6628 22.1787H70.6119V22.3381H70.6119ZM69.0508 20.0922L69.7821 17.8643H69.8075H69.8235V17.8977L69.815 17.8992L69.8235 17.8977V17.8643H69.8463L70.5712 20.0922H69.0508ZM69.1424 20.026H70.479L69.8144 17.9792L69.1424 20.026ZM69.7901 17.9072L69.8075 17.9014L69.7901 17.9072Z" fill="white"/>
<path d="M73.1144 17.4237C72.5414 17.4237 72.5186 17.5615 72.4036 18.1185H72.1743C72.2045 17.9051 72.2432 17.6917 72.2671 17.4693C72.2977 17.2553 72.3116 17.0424 72.3116 16.8211H72.4958C72.5567 17.0504 72.7485 17.0424 72.9534 17.0424H76.8949C77.0999 17.0424 77.2906 17.035 77.3065 16.8052L77.4891 16.836C77.4599 17.0424 77.4299 17.2485 77.4065 17.455C77.3901 17.661 77.3901 17.8675 77.3901 18.073L77.1613 18.1582C77.147 17.876 77.1089 17.4237 76.5968 17.4237H75.3444V21.4876C75.3444 22.0765 75.6124 22.1438 75.9778 22.1438H76.1228V22.3741C75.8252 22.3741 75.2914 22.3439 74.8783 22.3439C74.4208 22.3439 73.8854 22.3741 73.5878 22.3741V22.1438H73.7324C74.1533 22.1438 74.3673 22.1061 74.3673 21.5035V17.4237H73.1144Z" fill="white"/>
<path d="M76.1227 22.4064C75.823 22.4064 75.2881 22.3757 74.8783 22.3757C74.4217 22.3757 73.8869 22.4064 73.5877 22.4064H73.5538V22.3741V22.1109H73.5877H73.7322C74.1532 22.1009 74.3222 22.0956 74.3328 21.5035L74.3317 17.4571H73.1142V17.4237V17.3898H74.399V21.5035C74.399 22.1162 74.1516 22.1765 73.7322 22.1781H73.62V22.3412C73.9223 22.338 74.435 22.3105 74.8783 22.3105C75.277 22.3105 75.7875 22.3381 76.0893 22.3412V22.1781H75.9766C75.6095 22.1765 75.3119 22.0881 75.3109 21.4876V17.3898H76.5966C77.1093 17.3919 77.1765 17.8278 77.1909 18.1111L77.3577 18.0502C77.3577 17.8511 77.3582 17.6514 77.373 17.4512C77.3942 17.2548 77.4227 17.0588 77.4509 16.8639L77.3354 16.8443C77.3005 17.0667 77.0849 17.079 76.8948 17.0757H72.9532H72.9146C72.7345 17.0778 72.5397 17.0673 72.4702 16.8528H72.3453C72.3431 17.0646 72.3288 17.2701 72.2987 17.4735C72.2786 17.6837 72.2409 17.886 72.2124 18.0867H72.376C72.4772 17.5544 72.5434 17.3818 73.1142 17.3898V17.4237V17.4571C72.5481 17.4666 72.5608 17.5624 72.4358 18.127L72.43 18.1529H72.4035H72.1355L72.1403 18.1147C72.172 17.8992 72.2102 17.6863 72.2324 17.4655C72.2636 17.2521 72.2785 17.0402 72.2785 16.821V16.7876H72.3113H72.5199L72.5263 16.8115C72.5798 17.0042 72.719 17.0053 72.9145 17.0085L72.9531 17.0095H76.8947C77.1055 17.0053 77.2595 17.0021 77.2728 16.803L77.275 16.7665L77.311 16.774L77.5276 16.8079L77.5218 16.8412C77.4905 17.0456 77.4614 17.2522 77.4381 17.4571C77.4227 17.6605 77.4227 17.8675 77.4227 18.073V18.0968L77.4011 18.1053L77.1304 18.2038L77.1289 18.1593C77.1093 17.8723 77.0791 17.4571 76.5966 17.4571H75.3771V21.4876C75.3851 22.0637 75.6132 22.1034 75.9766 22.1109H76.1555V22.1437V22.4064L76.1227 22.4064Z" fill="white"/>
<path d="M77.771 22.1437H77.878C78.1539 22.1437 78.4424 22.1067 78.4424 21.7089V17.7075C78.4424 17.3092 78.1539 17.2717 77.878 17.2717H77.771V17.0424C78.0692 17.0424 78.5267 17.0726 78.9 17.0726C79.2834 17.0726 79.7416 17.0424 80.1005 17.0424V17.2717H79.9936C79.7188 17.2717 79.4275 17.3093 79.4275 17.7075V21.7089C79.4275 22.1067 79.7188 22.1437 79.9936 22.1437H80.1005V22.3741C79.7336 22.3741 79.275 22.3439 78.8942 22.3439C78.5193 22.3439 78.0692 22.3741 77.771 22.3741V22.1437Z" fill="white"/>
<path d="M80.1007 22.4064C79.7316 22.4064 79.2745 22.3751 78.8938 22.3751C78.5204 22.3751 78.0693 22.4064 77.7711 22.4064H77.7378V22.3741V22.1437V22.1109H77.7711H77.8781C78.154 22.1067 78.4072 22.0828 78.4082 21.709V17.7075C78.4072 17.3347 78.154 17.3092 77.8781 17.304H77.7378V17.2717V17.0096H77.7711C78.0693 17.0096 78.5279 17.0387 78.9001 17.0387C79.2809 17.0387 79.739 17.0096 80.1007 17.0096H80.133V17.0424V17.304H80.1007H79.9937C79.7146 17.3093 79.4641 17.3347 79.4604 17.7075V21.709C79.4641 22.0828 79.7147 22.1067 79.9937 22.1109H80.133V22.1437V22.4064H80.1007ZM80.0663 22.3397V22.1781H79.9937C79.7199 22.1781 79.3959 22.13 79.3959 21.709V17.7075C79.3959 17.2855 79.7199 17.2378 79.9937 17.2378H80.0663V17.0758C79.7136 17.0779 79.2725 17.1054 78.9001 17.1054C78.5384 17.1054 78.1005 17.0779 77.8045 17.0758V17.2378H77.8782C78.1498 17.2378 78.475 17.2855 78.476 17.7075V21.709C78.4749 22.1299 78.1498 22.1781 77.8782 22.1781H77.8045V22.3397C78.099 22.3364 78.5311 22.3105 78.8938 22.3105C79.264 22.3105 79.7062 22.3381 80.0662 22.3397H80.0663Z" fill="white"/>
<path d="M83.146 16.928C84.7739 16.928 86.0713 17.9374 86.0713 19.5637C86.0713 21.3208 84.8115 22.4885 83.1858 22.4885C81.5653 22.4885 80.3293 21.3885 80.3293 19.7464C80.3293 18.1582 81.5579 16.928 83.146 16.928ZM83.2615 22.1522C84.7432 22.1522 85.0011 20.8452 85.0011 19.7315C85.0011 18.6152 84.3996 17.2638 83.1313 17.2638C81.7946 17.2638 81.398 18.4553 81.398 19.4779C81.398 20.8452 82.0239 22.1522 83.2615 22.1522Z" fill="white"/>
<path d="M80.2952 19.7464C80.2984 18.1397 81.5418 16.8968 83.1458 16.8947V16.928V16.9603C81.5762 16.9603 80.3614 18.1746 80.3598 19.7463C80.3635 21.3699 81.5821 22.4534 83.1856 22.454C84.7954 22.4534 86.0373 21.3022 86.0399 19.5621C86.0383 17.9564 84.7604 16.9624 83.1459 16.9603V16.928V16.8947C84.7864 16.8957 86.1014 17.9151 86.1045 19.5621C86.103 21.3376 84.8266 22.5176 83.1856 22.5207C81.5524 22.5175 80.2984 21.4065 80.2953 19.7463H80.2952V19.7464ZM81.365 19.4779C81.3671 18.4506 81.7685 17.2293 83.1316 17.2293C84.4279 17.2326 85.0332 18.6094 85.0353 19.7315C85.0332 20.8452 84.7711 22.184 83.2619 22.184V22.1522V22.1193C84.714 22.1173 84.9655 20.8452 84.9691 19.7315C84.9691 18.6243 84.3728 17.2988 83.1316 17.2971C81.8214 17.2987 81.4337 18.4606 81.4312 19.4779C81.4322 20.8383 82.0524 22.1161 83.2619 22.1193V22.1522V22.184C81.9941 22.1823 81.3671 20.8532 81.365 19.4779Z" fill="white"/>
<path d="M91.2177 20.8685L91.2331 20.8536V17.9898C91.2331 17.3628 90.7967 17.2717 90.5674 17.2717H90.4022V17.0423C90.7602 17.0423 91.1113 17.0725 91.4692 17.0725C91.7833 17.0725 92.0962 17.0423 92.4097 17.0423V17.2717H92.2943C91.9744 17.2717 91.6149 17.3325 91.6149 18.2413V21.7174C91.6149 21.9843 91.6223 22.2512 91.661 22.4879H91.3713L87.4376 18.1037V21.2509C87.4376 21.9155 87.5669 22.1437 88.1547 22.1437H88.2855V22.3741C87.9566 22.3741 87.6289 22.3439 87.3005 22.3439C86.9568 22.3439 86.6047 22.3741 86.261 22.3741V22.1437H86.3684C86.8965 22.1437 87.0548 21.7857 87.0548 21.1751V17.958C87.0548 17.5307 86.7052 17.2717 86.3605 17.2717H86.261V17.0424C86.5511 17.0424 86.8493 17.0726 87.139 17.0726C87.3683 17.0726 87.5891 17.0424 87.819 17.0424L91.2177 20.8685Z" fill="white"/>
<path d="M91.6614 22.5207L91.3453 22.5096L87.4705 18.19V21.2509C87.4789 21.915 87.58 22.103 88.1535 22.1098H88.3188V22.1443V22.4064H88.2854C87.9544 22.4064 87.6267 22.3757 87.3004 22.3757C86.9577 22.3757 86.6072 22.4064 86.2603 22.4064H86.2285V22.3736V22.1098H86.2603H86.3684C86.872 22.1083 87.0166 21.7842 87.0229 21.1752V17.9581C87.0218 17.5514 86.6887 17.3046 86.3604 17.304H86.2285V17.2717V17.0096H86.2603C86.5532 17.0096 86.8508 17.0388 87.1388 17.0388C87.3655 17.0388 87.5858 17.0096 87.8442 17.0208L91.1996 20.7992V17.9904C91.1974 17.3825 90.7907 17.3094 90.5672 17.3041H90.3666V17.2719V17.0097H90.401C90.7605 17.0097 91.1127 17.0388 91.468 17.0388C91.7815 17.0388 92.0929 17.0097 92.4096 17.0097H92.4424V17.0425V17.3041H92.4096H92.294C91.98 17.3131 91.6549 17.3417 91.6485 18.2414V21.717C91.6485 21.9839 91.6543 22.2502 91.6915 22.4837L91.6978 22.5208H91.6614V22.5207ZM91.3713 22.454H91.6212C91.5879 22.2247 91.582 21.9705 91.582 21.7168V18.2413C91.582 17.3231 91.9671 17.2399 92.2943 17.2373H92.3769V17.0758C92.0756 17.0779 91.7738 17.1054 91.4683 17.1054C91.1208 17.1054 90.7792 17.0779 90.4335 17.0758V17.2373H90.5674C90.8042 17.2399 91.2648 17.3443 91.2648 17.9903L91.2564 20.8764L91.2421 20.8924L91.2178 20.9167L87.8191 17.0758C87.594 17.0758 87.371 17.1055 87.1391 17.1055C86.8578 17.1055 86.5714 17.0779 86.2933 17.0758V17.2373H86.3606C86.7192 17.24 87.0882 17.5106 87.0882 17.9581V21.1752C87.0882 21.7857 86.9177 22.1766 86.3685 22.1787L86.2933 22.1781V22.3397C86.6248 22.3381 86.9648 22.3105 87.3006 22.3105C87.6188 22.3105 87.935 22.3381 88.2522 22.3397V22.1787H88.1537C87.5543 22.1781 87.4045 21.915 87.4045 21.2508V18.0178L91.3713 22.454ZM91.2177 20.868L91.242 20.8462L91.2177 20.868ZM91.1997 20.8537V20.851L91.1933 20.8452L91.1997 20.8537Z" fill="white"/>
<path d="M93.6369 21.2816C93.5622 21.5405 93.4696 21.7407 93.4696 21.8768C93.4696 22.1066 93.791 22.1437 94.0415 22.1437H94.1268V22.374C93.8212 22.3576 93.5077 22.3439 93.2022 22.3439C92.9262 22.3439 92.6524 22.3577 92.3787 22.374V22.1437H92.4221C92.7213 22.1437 92.9744 21.9684 93.0873 21.647L94.3106 18.1423C94.409 17.8595 94.5472 17.4777 94.5918 17.1944C94.8364 17.1113 95.1414 16.9587 95.2881 16.8666C95.3098 16.8587 95.3252 16.8507 95.3485 16.8507C95.3713 16.8507 95.3855 16.8507 95.4009 16.8745C95.4242 16.9349 95.4481 17.0043 95.4708 17.0652L96.8752 21.0602C96.9668 21.3271 97.058 21.6094 97.1586 21.8392C97.2502 22.0531 97.4112 22.1437 97.6622 22.1437H97.7088V22.374C97.3646 22.3576 97.0209 22.3439 96.6539 22.3439C96.2805 22.3439 95.8982 22.3577 95.5084 22.374V22.1437H95.5933C95.7674 22.1437 96.0672 22.114 96.0672 21.9229C96.0672 21.8238 95.9977 21.6178 95.9125 21.3726L95.616 20.4867H93.8822L93.6369 21.2816ZM94.7532 17.8977H94.7379L94.0267 20.0593H95.4559L94.7532 17.8977Z" fill="white"/>
<path d="M97.7055 22.4064C97.3618 22.3927 97.0187 22.3757 96.6538 22.3757C96.2815 22.3757 95.8992 22.3927 95.5094 22.4064L95.4756 22.4085V22.3736V22.1109H95.5083H95.5915C95.7694 22.1109 96.0326 22.0696 96.0331 21.9229C96.0347 21.836 95.9659 21.628 95.8807 21.3833L95.5905 20.5196H93.9049L93.6686 21.2911C93.5924 21.5527 93.5013 21.7534 93.5029 21.8769C93.5029 22.0643 93.7888 22.1109 94.0415 22.1109H94.158V22.1438V22.4085L94.1241 22.4064C93.8185 22.3927 93.506 22.3757 93.2022 22.3757C92.9284 22.3757 92.6539 22.3927 92.3786 22.4064L92.3452 22.4085V22.3736V22.1109H92.3786H92.4221C92.7069 22.1098 92.9452 21.9462 93.0565 21.6364L94.2787 18.1313C94.3761 17.8479 94.5138 17.4672 94.5816 17.1638C94.8215 17.0806 95.1281 16.9281 95.2764 16.8348C95.2965 16.828 95.3172 16.819 95.3484 16.819C95.3685 16.8168 95.4076 16.8216 95.432 16.8634C95.4548 16.9233 95.4771 16.9927 95.5025 17.0546L96.9069 21.0492C96.998 21.3171 97.0896 21.5994 97.1886 21.8266C97.278 22.0288 97.4174 22.1088 97.661 22.1109H97.7404V22.1438V22.4085L97.7055 22.4064ZM95.5412 22.3391C95.9188 22.3248 96.2906 22.31 96.6538 22.31C97.0091 22.31 97.3423 22.3248 97.6748 22.3381L97.6737 22.1786H97.661C97.4025 22.1792 97.2221 22.0775 97.1272 21.8525C97.0266 21.6205 96.9356 21.3372 96.8444 21.0708L95.4389 17.0758C95.4161 17.0149 95.3929 16.9455 95.3744 16.8936C95.368 16.8841 95.3686 16.8841 95.3627 16.8841H95.3484C95.3325 16.8841 95.3239 16.8894 95.3054 16.8947C95.1567 16.9884 94.8505 17.1409 94.6244 17.1997C94.5773 17.4889 94.4386 17.8696 94.3401 18.1529L93.1174 21.6586C93.0013 21.9901 92.7345 22.1792 92.422 22.1786H92.4108V22.3381C92.6735 22.3248 92.9362 22.31 93.202 22.31C93.4981 22.31 93.7993 22.3248 94.0933 22.3381V22.1786H94.0414C93.7931 22.1754 93.4446 22.1485 93.4356 21.8768C93.4372 21.7254 93.5319 21.531 93.6056 21.2721L93.6368 21.2821L93.6056 21.2709L93.8571 20.4544H95.6381L95.9441 21.362C96.0283 21.6078 96.0977 21.8106 96.0977 21.9229C96.0865 22.1575 95.7662 22.1738 95.5914 22.1786H95.5411V22.3391H95.5412ZM93.9811 20.0917L94.7135 17.8643H94.7367H94.7532V17.8977L94.7452 17.8993L94.7532 17.8977V17.8643H94.7771L95.4988 20.0917H93.9811ZM94.0727 20.026H95.4083L94.7442 17.9803L94.0727 20.026ZM94.7214 17.9073L94.7367 17.9014L94.7214 17.9073Z" fill="white"/>
<path d="M99.6331 21.6252C99.6331 21.9308 99.8449 22.0219 100.09 22.0531C100.403 22.0764 100.746 22.0764 101.099 22.0378C101.419 21.9992 101.694 21.8159 101.831 21.6252C101.953 21.4568 102.021 21.2429 102.068 21.075H102.289C102.205 21.5103 102.098 21.9393 102.006 22.374C101.336 22.374 100.662 22.3438 99.991 22.3438C99.318 22.3438 98.6471 22.374 97.9751 22.374V22.1436H98.0799C98.3564 22.1436 98.6551 22.1066 98.6551 21.6326V17.7075C98.6551 17.3092 98.3563 17.2717 98.0799 17.2717H97.9751V17.0424C98.3786 17.0424 98.7763 17.0726 99.1804 17.0726C99.5711 17.0726 99.9525 17.0424 100.342 17.0424V17.2717H100.15C99.8608 17.2717 99.6331 17.2802 99.6331 17.6837V21.6252Z" fill="white"/>
<path d="M102.006 22.4064C101.333 22.4064 100.661 22.3757 99.9909 22.3757C99.3183 22.3757 98.6463 22.4064 97.9733 22.4064H97.9409V22.3736V22.1109H97.9733H98.0797C98.3567 22.1046 98.6183 22.0855 98.6215 21.6327V17.7061C98.6182 17.3349 98.3582 17.3094 98.0797 17.3041H97.9409V17.2718V17.0097H97.9733C98.3795 17.0097 98.7772 17.0388 99.1806 17.0388C99.5683 17.0388 99.9496 17.0097 100.342 17.0097H100.373V17.0425V17.3041H100.342H100.15C99.8543 17.3126 99.67 17.2988 99.6642 17.6838V21.6254C99.6662 21.9098 99.8527 21.9865 100.091 22.0199C100.226 22.0294 100.367 22.0353 100.515 22.0353C100.702 22.0353 100.896 22.0263 101.093 22.0051C101.404 21.9686 101.672 21.789 101.804 21.6068C101.921 21.4437 101.989 21.234 102.034 21.0672L102.041 21.0418H102.067H102.329L102.322 21.0821C102.236 21.519 102.131 21.9458 102.038 22.3806L102.032 22.4065H102.006H102.006V22.4064ZM101.978 22.3397C102.067 21.9256 102.167 21.5204 102.249 21.1074H102.092C102.045 21.2736 101.977 21.4786 101.857 21.6454C101.714 21.8434 101.431 22.0299 101.1 22.0706C100.9 22.0913 100.702 22.1019 100.515 22.1019C100.367 22.1019 100.223 22.095 100.085 22.0854C99.8368 22.0579 99.5958 21.952 99.5969 21.6253V17.6837C99.5969 17.2596 99.8653 17.2378 100.15 17.2378H100.308V17.0758C99.9316 17.0779 99.5609 17.1059 99.1806 17.1059C98.785 17.1059 98.3984 17.0779 98.0065 17.0758V17.2378H98.0797C98.3524 17.2378 98.686 17.2855 98.686 17.706V21.6327C98.686 22.1268 98.3539 22.1781 98.0797 22.1781H98.0065V22.3397C98.6669 22.3391 99.3273 22.3105 99.9909 22.3105C100.654 22.3105 101.318 22.3391 101.978 22.3397Z" fill="white"/>
<path d="M102.196 16.8253C102.656 16.8253 103 17.179 103 17.6323C103 18.0835 102.656 18.4341 102.196 18.4341C101.736 18.4341 101.392 18.0835 101.392 17.6323C101.392 17.1791 101.736 16.8253 102.196 16.8253ZM102.196 18.2842C102.556 18.2842 102.832 17.9771 102.832 17.6323C102.832 17.2855 102.56 16.9757 102.196 16.9757C101.834 16.9757 101.558 17.2855 101.558 17.6323C101.558 17.9771 101.834 18.2842 102.196 18.2842ZM101.796 18.056V18.0163C101.895 18.0025 101.913 18.0057 101.913 17.9443V17.349C101.913 17.2654 101.904 17.2368 101.799 17.241V17.2002H102.211C102.353 17.2002 102.482 17.2675 102.482 17.4136C102.482 17.5333 102.403 17.6217 102.292 17.6562L102.424 17.8404C102.486 17.9241 102.556 18.0025 102.602 18.03V18.0559H102.445C102.37 18.0559 102.304 17.8976 102.156 17.6852H102.067V17.9527C102.067 18.0056 102.085 18.0025 102.184 18.0162V18.0559H101.796V18.056ZM102.067 17.6323H102.162C102.265 17.6323 102.314 17.5534 102.314 17.4269C102.314 17.2987 102.239 17.2536 102.156 17.2536H102.067V17.6323Z" fill="white"/>
</g>
<defs>
<clipPath id="clip0_108_1340">
<rect width="103" height="26.69" fill="white"/>
</clipPath>
</defs>
</svg>
