<svg width="50" height="32" viewBox="0 0 50 32" fill="none" xmlns="http://www.w3.org/2000/svg">
<g clip-path="url(#clip0_108_914)">
<path d="M50.0561 17.6464C50.0561 17.6464 36.2635 27.3789 11.0029 31.7348H50.0561V17.6464Z" fill="#F48120"/>
<path d="M4.02623 9.53336H1.91992V16.8897H4.01508C5.12916 16.8897 5.93366 16.6269 6.63981 16.0404C7.47895 15.346 7.97527 14.2992 7.97527 13.2166C7.97547 11.0458 6.35333 9.53336 4.02623 9.53336ZM5.70252 15.0595C5.2516 15.4667 4.66609 15.6442 3.73895 15.6442H3.35393V10.7798H3.73895C4.66609 10.7798 5.2287 10.9457 5.70252 11.3747C6.19884 11.8165 6.49727 12.5013 6.49727 13.2059C6.49727 13.9122 6.19884 14.618 5.70252 15.0595Z" fill="white"/>
<path d="M10.0707 9.53336H8.63574V16.8897H10.0707V9.53336Z" fill="white"/>
<path d="M13.5792 12.3564C12.7182 12.0378 12.4654 11.8276 12.4654 11.4302C12.4654 10.9668 12.9159 10.6148 13.5342 10.6148C13.9643 10.6148 14.3174 10.7914 14.6913 11.2104L15.4421 10.2274C14.8251 9.68764 14.0869 9.41171 13.2804 9.41171C11.9788 9.41171 10.986 10.3156 10.986 11.5196C10.986 12.5332 11.4482 13.052 12.7958 13.5369C13.3577 13.735 13.6435 13.867 13.7879 13.9558C14.0746 14.1429 14.2181 14.4081 14.2181 14.7169C14.2181 15.313 13.7443 15.7545 13.104 15.7545C12.4196 15.7545 11.8683 15.4123 11.538 14.7734L10.6111 15.6661C11.2722 16.6365 12.0662 17.0667 13.158 17.0667C14.6491 17.0667 15.6951 16.0753 15.6951 14.6512C15.6951 13.4824 15.2115 12.9532 13.5792 12.3564Z" fill="white"/>
<path d="M16.1479 13.2166C16.1479 15.3789 17.8459 17.0556 20.0309 17.0556C20.6486 17.0556 21.1776 16.9341 21.83 16.6269V14.9377C21.2563 15.5119 20.7482 15.7434 20.0978 15.7434C18.6526 15.7434 17.6269 14.6956 17.6269 13.2059C17.6269 11.7936 18.6851 10.6793 20.0311 10.6793C20.7155 10.6793 21.2336 10.9236 21.8302 11.5071V9.81865C21.2003 9.49912 20.6825 9.36673 20.0649 9.36673C17.8907 9.36713 16.1479 11.0779 16.1479 13.2166Z" fill="white"/>
<path d="M33.2071 14.4746L31.2453 9.53336H29.6777L32.7998 17.0784H33.5718L36.7498 9.53336H35.1944L33.2071 14.4746Z" fill="white"/>
<path d="M37.3987 16.8897H41.4682V15.6444H38.8325V13.6588H41.371V12.4127H38.8325V10.7798H41.4682V9.53336H37.3987V16.8897Z" fill="white"/>
<path d="M47.1492 11.7052C47.1492 10.3279 46.2006 9.53336 44.5458 9.53336H42.4182V16.8897H43.8514V13.9345H44.0386L46.0246 16.8897H47.7893L45.4736 13.7906C46.5542 13.5708 47.1492 12.8316 47.1492 11.7052ZM44.2707 12.9202H43.8516V10.692H44.2934C45.1871 10.692 45.6728 11.0665 45.6728 11.7824C45.6728 12.522 45.1871 12.9202 44.2707 12.9202Z" fill="white"/>
<path d="M26.2117 17.1505C28.373 17.1505 30.1251 15.3984 30.1251 13.2371C30.1251 11.0758 28.373 9.32373 26.2117 9.32373C24.0504 9.32373 22.2983 11.0758 22.2983 13.2371C22.2983 15.3984 24.0504 17.1505 26.2117 17.1505Z" fill="url(#paint0_linear_108_914)"/>
<path opacity="0.65" d="M26.2117 17.1505C28.373 17.1505 30.1251 15.3984 30.1251 13.2371C30.1251 11.0758 28.373 9.32373 26.2117 9.32373C24.0504 9.32373 22.2983 11.0758 22.2983 13.2371C22.2983 15.3984 24.0504 17.1505 26.2117 17.1505Z" fill="url(#paint1_linear_108_914)"/>
<path d="M48.0653 9.8099C48.0653 9.68089 47.9765 9.61041 47.8204 9.61041H47.6128V10.257H47.7671V10.0062L47.9481 10.257H48.1364L47.9238 9.99046C48.0151 9.96598 48.0653 9.89968 48.0653 9.8099ZM47.7934 9.89829H47.7673V9.72927H47.795C47.8712 9.72927 47.911 9.75674 47.911 9.81248C47.911 9.86942 47.8708 9.89829 47.7934 9.89829Z" fill="white"/>
<path d="M47.8518 9.3689C47.5378 9.3689 47.2886 9.61934 47.2886 9.9325C47.2886 10.2455 47.5406 10.4963 47.8518 10.4963C48.1576 10.4963 48.4082 10.2427 48.4082 9.9325C48.4082 9.62372 48.1576 9.3689 47.8518 9.3689ZM47.8494 10.3956C47.6023 10.3956 47.4003 10.1899 47.4003 9.9333C47.4003 9.67588 47.5997 9.47043 47.8494 9.47043C48.0953 9.47043 48.2957 9.68066 48.2957 9.9333C48.2957 10.1877 48.0955 10.3956 47.8494 10.3956Z" fill="white"/>
</g>
<defs>
<linearGradient id="paint0_linear_108_914" x1="28.2149" y1="16.3734" x2="25.5052" y2="12.131" gradientUnits="userSpaceOnUse">
<stop stop-color="#F89F20"/>
<stop offset="0.2502" stop-color="#F79A20"/>
<stop offset="0.5331" stop-color="#F68D20"/>
<stop offset="0.6196" stop-color="#F58720"/>
<stop offset="0.7232" stop-color="#F48120"/>
<stop offset="1" stop-color="#F37521"/>
</linearGradient>
<linearGradient id="paint1_linear_108_914" x1="27.7868" y1="16.3157" x2="23.8267" y2="8.57537" gradientUnits="userSpaceOnUse">
<stop stop-color="#F58720" stop-opacity="0"/>
<stop offset="0.3587" stop-color="#E16F27" stop-opacity="0.2704"/>
<stop offset="0.703" stop-color="#D4602C" stop-opacity="0.5299"/>
<stop offset="0.9816" stop-color="#D05B2E" stop-opacity="0.74"/>
</linearGradient>
<clipPath id="clip0_108_914">
<rect width="50" height="31.5907" rx="3" fill="white"/>
</clipPath>
</defs>
</svg>
