<svg width="18" height="16" viewBox="0 0 18 16" fill="none" xmlns="http://www.w3.org/2000/svg">
<g clip-path="url(#clip0_3_227)">
<path d="M16.7401 2.9128H3.09045L2.88805 0.6528C2.87206 0.474408 2.78986 0.308466 2.65764 0.187646C2.52542 0.0668266 2.35276 -0.000115502 2.17365 1.49604e-07H0.717655C0.527547 1.49604e-07 0.345226 0.0755199 0.2108 0.209946C0.0763743 0.344372 0.000854492 0.526693 0.000854492 0.7168C0.000854492 0.906907 0.0763743 1.08923 0.2108 1.22365C0.345226 1.35808 0.527547 1.4336 0.717655 1.4336H1.51765L2.34245 10.62C2.40085 11.2824 2.75845 12.0008 3.37525 12.4888C2.26405 13.908 3.27925 16 5.08726 16C6.58726 16 7.64485 14.504 7.13045 13.0864H11.0545C10.5409 14.5024 11.5961 16 13.0985 16C13.6747 15.9994 14.2272 15.7702 14.6347 15.3627C15.0422 14.9552 15.2714 14.4027 15.2721 13.8264C15.2714 13.2501 15.0422 12.6976 14.6347 12.2901C14.2272 11.8826 13.6747 11.6534 13.0985 11.6528H5.09205C4.54725 11.6528 4.07285 11.3248 3.86805 10.8456L15.3249 10.172C15.4773 10.1631 15.6229 10.1058 15.7404 10.0084C15.858 9.91093 15.9414 9.77852 15.9785 9.6304L17.4353 3.804C17.4616 3.69825 17.4636 3.58788 17.4409 3.48127C17.4183 3.37466 17.3716 3.27461 17.3045 3.18871C17.2374 3.10281 17.1517 3.03333 17.0537 2.98552C16.9558 2.93771 16.8482 2.91284 16.7393 2.9128H16.7401ZM5.08645 14.5664C4.89615 14.5575 4.71656 14.4757 4.58502 14.3379C4.45347 14.2001 4.38007 14.0169 4.38007 13.8264C4.38007 13.6359 4.45347 13.4527 4.58502 13.3149C4.71656 13.1771 4.89615 13.0953 5.08645 13.0864C5.27676 13.0953 5.45634 13.1771 5.58789 13.3149C5.71944 13.4527 5.79284 13.6359 5.79284 13.8264C5.79284 14.0169 5.71944 14.2001 5.58789 14.3379C5.45634 14.4757 5.27676 14.5575 5.08645 14.5664ZM13.0985 14.5664C12.9081 14.5575 12.7286 14.4757 12.597 14.3379C12.4655 14.2001 12.3921 14.0169 12.3921 13.8264C12.3921 13.6359 12.4655 13.4527 12.597 13.3149C12.7286 13.1771 12.9081 13.0953 13.0985 13.0864C13.2888 13.0953 13.4683 13.1771 13.5999 13.3149C13.7314 13.4527 13.8048 13.6359 13.8048 13.8264C13.8048 14.0169 13.7314 14.2001 13.5999 14.3379C13.4683 14.4757 13.2888 14.5575 13.0985 14.5664ZM14.7153 8.772L3.67525 9.42L3.21925 4.3472H15.8217L14.7153 8.7712V8.772Z" fill="white"/>
</g>
<defs>
<clipPath id="clip0_3_227">
<rect width="17.6" height="16" fill="white"/>
</clipPath>
</defs>
</svg>
