<svg width="28" height="44" viewBox="0 0 28 44" fill="none" xmlns="http://www.w3.org/2000/svg">
<path d="M18.312 27.7499V24.3962H9.68823V27.7499L14.0001 31.5827L18.312 27.7499Z" fill="#B7B7B7"/>
<path d="M24.9791 29.3186L19.0506 27.9237C18.961 27.9026 18.8787 27.8668 18.8016 27.8235L13.9999 30.6245L9.38539 27.688C9.26593 27.8004 9.11765 27.884 8.94923 27.9237L3.02071 29.3187C2.15501 29.5224 1.54321 30.2948 1.54321 31.1841V34.9364C1.54321 35.4657 1.97221 35.8946 2.5014 35.8946H25.4983C26.0275 35.8946 26.4564 35.4656 26.4564 34.9364V31.1841C26.4565 30.2948 25.8447 29.5222 24.9791 29.3186Z" fill="#A8A8A8"/>
<path d="M9.68823 24.3963V27.9347C15.1201 29.8917 18.312 24.9938 18.312 24.9938V24.3962H9.68823V24.3963Z" fill="#B1AEAA"/>
<path d="M7.77173 13.377L8.18922 22.562C8.22819 23.42 8.64894 24.2158 9.33607 24.7311L11.317 26.2169C11.8146 26.59 12.4198 26.7918 13.0418 26.7918H14.9583C15.5803 26.7918 16.1854 26.5901 16.683 26.2169L18.664 24.7311C19.3511 24.2157 19.7719 23.4201 19.8109 22.562L20.2283 13.377C20.2283 13.377 7.77173 13.377 7.77173 13.377Z" fill="#B7B7B7"/>
<path d="M12.5628 15.2933C14.4792 15.2933 17.3538 14.8142 18.0356 13.3768H7.77173L8.18922 22.5618C8.22819 23.4199 8.64894 24.2156 9.33613 24.731L11.3171 26.2167C11.8147 26.5899 12.4199 26.7917 13.0419 26.7917H14.0001C13.0419 26.7917 11.1254 24.8753 11.1254 22.4798C11.1254 21.3082 11.1254 18.1679 11.1254 16.7305C11.1254 16.2515 11.6045 15.2933 12.5628 15.2933Z" fill="#B1AEAA"/>
<path d="M5.06089 32.7854L1.95636 29.9966C1.69622 30.326 1.5437 30.7405 1.5437 31.1842V34.9366C1.5437 35.4658 1.9727 35.8948 2.50189 35.8948H5.8556V34.5675C5.85555 33.8876 5.56664 33.2397 5.06089 32.7854Z" fill="#8B8B8B"/>
<path d="M22.9395 32.7854L26.044 29.9966C26.3042 30.326 26.4567 30.7405 26.4567 31.1842V34.9366C26.4567 35.4658 26.0277 35.8948 25.4985 35.8948H22.1448V34.5675C22.1448 33.8876 22.4337 33.2397 22.9395 32.7854Z" fill="#8B8B8B"/>
<path d="M15.1978 35.8947H12.8022L13.1017 31.5828H14.8983L15.1978 35.8947Z" fill="#B7B7B7"/>
<path d="M15.1978 30.6244H12.8022V31.5261C12.8022 31.8219 13.042 32.0617 13.3379 32.0617H14.6621C14.9579 32.0617 15.1977 31.8219 15.1977 31.5261V30.6244H15.1978Z" fill="#B1AEAA"/>
<path d="M9.62096 26.6832L14.0002 30.6244C14.0002 30.6244 12.7737 31.2436 11.2603 32.4914C10.9481 32.7488 10.4759 32.6445 10.3084 32.2762L8.25098 27.7499L8.90185 26.7736C9.06381 26.5305 9.4038 26.4878 9.62096 26.6832Z" fill="#DBD9DC"/>
<path d="M18.3792 26.6832L14 30.6244C14 30.6244 15.2264 31.2436 16.7399 32.4914C17.052 32.7488 17.5243 32.6445 17.6917 32.2762L19.7492 27.7499L19.0983 26.7736C18.9363 26.5305 18.5963 26.4878 18.3792 26.6832Z" fill="#DBD9DC"/>
<path d="M16.9045 10.2029L17.3537 13.377C19.404 13.787 19.6994 17.0046 19.742 17.9236C19.7497 18.0904 19.8029 18.2514 19.8934 18.3918L20.6757 19.6053C20.6757 19.6053 20.4079 17.599 21.6339 16.2515C21.6339 16.2515 22.0549 8.28648 16.9045 10.2029Z" fill="#8B8B8B"/>
<path d="M21.1564 19.4009L20.6155 21.5644C20.5514 21.8208 20.3211 22.0007 20.0567 22.0007C19.7662 22.0007 19.5212 21.7844 19.4851 21.4961L19.2085 19.2833C19.1345 18.691 19.5962 18.1678 20.1932 18.1678H20.1936C20.8393 18.1679 21.313 18.7745 21.1564 19.4009Z" fill="#B7B7B7"/>
<path d="M8.23089 9.34435L8.93951 9.82844C5.73555 12.194 6.33437 16.2514 6.33437 16.2514C7.29256 17.2096 7.29256 19.6051 7.29256 19.6051L8.25075 18.6469C8.25075 18.6469 7.88097 15.879 9.68803 14.8141C11.3649 13.826 12.8321 14.335 14.3293 14.335C18.3418 14.335 19.4647 12.8228 19.2701 10.9813C19.1693 10.0284 17.7125 8.04357 14 8.1067C12.5018 8.13215 9.68814 8.58579 8.23089 9.34435Z" fill="#999999"/>
<path d="M7.95136 13.9158C7.95136 13.9158 7.44231 11.9095 8.93951 9.82849C5.73555 12.1941 6.33437 16.2515 6.33437 16.2515C7.29256 17.2096 7.29256 19.6052 7.29256 19.6052L8.25075 18.647C8.25075 18.647 7.88097 15.879 9.68803 14.8142C11.3649 13.826 12.8321 14.3351 14.3293 14.3351C14.9819 14.3351 15.5505 14.2914 16.0571 14.2165C12.967 14.32 11.1455 11.9794 7.95136 13.9158Z" fill="#8B8B8B"/>
<path d="M6.84384 19.4009L7.3847 21.5644C7.4488 21.8208 7.67915 22.0007 7.94353 22.0007C8.23407 22.0007 8.47907 21.7844 8.51511 21.4961L8.79175 19.2833C8.86578 18.691 8.404 18.1678 7.80708 18.1678H7.80664C7.16097 18.1679 6.68725 18.7745 6.84384 19.4009Z" fill="#B1AEAA"/>
<path d="M20.2283 34.9364H16.8746C16.61 34.9364 16.3955 35.1509 16.3955 35.4155V35.8946H20.7074V35.4155C20.7074 35.151 20.4929 34.9364 20.2283 34.9364Z" fill="#8B8B8B"/>
</svg>
