<svg width="64" height="28" viewBox="0 0 64 28" fill="none" xmlns="http://www.w3.org/2000/svg">
<path d="M25.0839 17.3548H25.3936C25.7032 17.3548 25.9097 17.2516 26.0129 17.0452L26.942 15.7032H29.3162L28.8 16.529H31.6903L31.2774 17.871H27.871C27.4581 18.4903 27.0452 18.6968 26.4258 18.6968H24.671L25.0839 17.3548ZM24.671 19.2129H30.8645L30.4516 20.6581H27.9742L27.5613 22.1032H30.0387L29.6258 23.5484H27.1484L26.5291 25.6129C26.4258 25.9226 26.5291 26.129 27.0452 26.0258H29.0065L28.5936 27.3677H24.7742C24.0516 27.3677 23.8452 26.9548 24.0516 26.129L24.7742 23.4452H23.2258L23.6387 22H25.1871L25.6 20.5548H24.1549L24.671 19.2129ZM34.6839 15.7032L34.5807 16.529C34.5807 16.529 35.7162 15.6 36.8516 15.6H40.7742L39.2258 21.1742C39.1226 21.7936 38.6065 22.1032 37.5742 22.1032H33.1355L32.1032 25.9226C32 26.129 32.1032 26.2323 32.3097 26.2323H33.2387L32.9291 27.3677H30.6581C29.8323 27.3677 29.4194 27.1613 29.6258 26.5419L32.6194 15.6H34.6839V15.7032ZM37.9871 17.2516H34.4774L34.0645 18.6968C34.0645 18.6968 34.6839 18.2839 35.6129 18.2839C36.542 18.2839 37.6774 18.2839 37.6774 18.2839L37.9871 17.2516ZM36.7484 20.6581C37.0581 20.6581 37.1613 20.5548 37.1613 20.3484L37.3678 19.5226H33.8581L33.5484 20.6581H36.7484ZM34.3742 22.4129H36.4387V23.3419H36.9549C37.2645 23.3419 37.3678 23.2387 37.3678 23.0323L37.5742 22.4129H39.2258L39.0194 23.2387C38.8129 23.9613 38.2968 24.271 37.471 24.3742H36.3355V25.9226C36.3355 26.129 36.542 26.3355 36.9549 26.3355H37.9871L37.6774 27.5742H35.2C34.4774 27.5742 34.1678 27.2645 34.1678 26.5419L34.3742 22.4129Z" fill="#009DA5"/>
<path d="M27.4581 18.3871C27.5614 18.2839 27.7678 18.0774 27.871 17.9742H31.2775L31.6904 16.6323H28.8001L29.3162 15.8065H26.942L26.013 17.0452C25.9097 17.2516 25.7033 17.3548 25.3936 17.3548H25.0839L24.9807 17.6645C25.8065 17.871 26.6323 18.1807 27.4581 18.3871Z" fill="#02CCCC"/>
<path d="M34.5808 16.529L34.684 15.7032H32.6195L31.6904 19.0064C32.2066 19.0064 32.8259 19.1097 33.342 19.1097C35.7162 19.1097 37.884 18.8 40.0517 18.1806L40.7743 15.7032H36.8517C35.7162 15.7032 34.5808 16.529 34.5808 16.529ZM37.6775 18.2839C37.6775 18.2839 36.542 18.2839 35.613 18.2839C34.5808 18.2839 34.0646 18.6968 34.0646 18.6968L34.4775 17.2516H37.9872L37.6775 18.2839Z" fill="#02CCCC"/>
<path d="M42.9419 17.3548L43.4581 15.7032H45.8323L45.729 16.3226C45.729 16.3226 46.9677 15.7032 47.7935 15.7032C48.6193 15.7032 50.7871 15.7032 50.7871 15.7032L50.271 17.3548H49.8581L47.5871 25.2H48L47.5871 26.7484H47.071L46.8645 27.471H44.5935L44.8 26.7484H40.2581L40.671 25.2H41.0839L43.3548 17.3548H42.9419ZM45.5226 17.3548L44.9032 19.5226C44.9032 19.5226 45.9355 19.1097 46.8645 19.0065C47.071 18.2839 47.2774 17.3548 47.2774 17.3548H45.5226ZM44.6968 20.5548L44.0774 22.8258C44.0774 22.8258 45.2129 22.3097 46.0387 22.2065C46.2452 21.3807 46.4516 20.5548 46.4516 20.5548H44.6968ZM45.1097 25.2L45.5226 23.5484H43.7677L43.3548 25.2H45.1097ZM50.8903 15.6H53.1613L53.2645 16.4258C53.2645 16.6323 53.3677 16.7355 53.6774 16.7355H54.0903L53.6774 18.1807H52.0258C51.4064 18.1807 51.0968 17.9742 50.9935 17.4581L50.8903 15.6ZM50.271 18.6968H57.4968L57.0839 20.1419H54.8129L54.4 21.5871H56.671L56.2581 23.1355H53.6774L53.0581 24.0645H54.2968L54.6064 25.8194C54.6064 26.0258 54.8129 26.129 55.0193 26.129H55.4323L55.0193 27.5742H53.6774C52.9548 27.5742 52.5419 27.3677 52.5419 26.8516L52.2322 25.2L51.0968 26.9548C50.7871 27.471 50.3742 27.6774 49.8581 27.6774H47.6903L48.1032 26.2323H48.7226C49.0323 26.2323 49.2387 26.129 49.4452 25.8194L51.2 23.2387H48.929L49.3419 21.6903H51.8193L52.2322 20.2452H49.7548L50.271 18.6968Z" fill="#009DA5"/>
<path d="M45.8323 15.8065H43.4581L43.0452 17.1484C43.9742 16.7355 44.9032 16.3226 45.8323 15.8065Z" fill="#02CCCC"/>
<path d="M9.6 8.37418C9.29032 9.71612 8.67097 10.7484 7.74194 11.471C6.70968 12.1935 5.47097 12.6064 3.92258 12.6064C2.47742 12.6064 1.34194 12.1935 0.722581 11.471C0.206452 10.9548 0 10.2322 0 9.40644C0 9.09676 0 8.68386 0.103226 8.27096L1.75484 0.322571H4.23226L2.58065 8.16773C2.58065 8.37418 2.47742 8.58064 2.47742 8.78709C2.47742 9.19999 2.58065 9.50967 2.7871 9.81935C3.09677 10.2322 3.6129 10.4387 4.23226 10.4387C4.95484 10.4387 5.67742 10.2322 6.09032 9.92257C6.60645 9.50967 6.91613 8.99354 7.01936 8.27096L8.67097 0.425797H11.3548L9.6 8.37418Z" fill="#FF7F29"/>
<path d="M9.6 8.37418C9.29032 9.71612 8.67097 10.7484 7.74194 11.471C6.70968 12.1935 5.47097 12.6064 3.92258 12.6064C2.47742 12.6064 1.34194 12.1935 0.722581 11.471C0.206452 10.9548 0 10.2322 0 9.40644C0 9.09676 0 8.68386 0.103226 8.27096L3.71613 0.322571H4.23226L2.58065 8.16773C2.58065 8.37418 2.47742 8.58064 2.47742 8.78709C2.47742 9.19999 2.58065 9.50967 2.7871 9.81935C3.09677 10.2322 3.6129 10.4387 4.23226 10.4387C4.95484 10.4387 5.67742 10.2322 6.09032 9.92257C6.60645 9.50967 6.91613 8.99354 7.01936 8.27096L10.6323 0.425797H11.3548L9.6 8.37418Z" fill="#EA2227"/>
<path d="M11.9742 5.2774H13.729L13.5226 6.30966L13.729 5.99999C14.3484 5.38063 14.9677 5.07095 15.7935 5.07095C16.5161 5.07095 17.0322 5.27741 17.4451 5.69031C17.7548 6.10321 17.858 6.72257 17.7548 7.44515L16.8258 12.2968H14.9677L15.7935 7.85805C15.8967 7.44515 15.8967 7.03224 15.6903 6.82579C15.5871 6.61934 15.2774 6.51611 14.8645 6.51611C14.3484 6.51611 14.0387 6.61934 13.729 6.92902C13.4193 7.23869 13.2129 7.6516 13.1097 8.16773L12.2838 12.2968H10.4258L11.9742 5.2774Z" fill="#EA2227"/>
<path d="M32.2064 5.27743H33.9612L33.7548 6.30969L33.9612 6.00002C34.5806 5.38066 35.1999 5.07098 36.0257 5.07098C36.7483 5.07098 37.2645 5.27744 37.6774 5.69034C37.987 6.10324 38.0903 6.7226 37.987 7.44518L37.058 12.2968H35.1999L36.129 7.85808C36.2322 7.44518 36.2322 7.03227 36.0257 6.82582C35.9225 6.61937 35.6128 6.51614 35.1999 6.51614C34.6838 6.51614 34.3741 6.61937 34.0645 6.92905C33.7548 7.23872 33.5483 7.65163 33.4451 8.16776L32.6193 12.2968H30.7612L32.2064 5.27743Z" fill="#A5002F"/>
<path d="M20.129 5.27742H22.0902L20.5419 12.4H18.5806L20.129 5.27742ZM20.7483 2.69678H22.7096L22.2967 4.45162H20.3354L20.7483 2.69678Z" fill="#EA2227"/>
<path d="M23.8451 11.8839C23.329 11.3677 23.1226 10.7484 23.1226 9.92256C23.1226 9.81934 23.1226 9.61289 23.1226 9.40644C23.1226 9.19998 23.1226 9.09676 23.2258 8.89031C23.4322 7.75482 23.9484 6.82579 24.6709 6.10321C25.3935 5.38063 26.3226 5.07095 27.458 5.07095C28.3871 5.07095 29.0064 5.2774 29.5226 5.79353C30.0387 6.30966 30.2451 6.92902 30.2451 7.85805C30.2451 7.96127 30.2451 8.16773 30.2451 8.37418C30.2451 8.58063 30.2451 8.68386 30.1419 8.89031C29.9355 10.0258 29.4193 10.9548 28.6968 11.5742C27.9742 12.1935 27.0451 12.6064 25.9097 12.6064C25.0838 12.6064 24.3613 12.2968 23.8451 11.8839ZM27.5613 10.4387C27.8709 10.0258 28.1806 9.50966 28.2838 8.78708C28.2838 8.68386 28.2838 8.58063 28.3871 8.37418C28.3871 8.27095 28.3871 8.16773 28.3871 8.0645C28.3871 7.6516 28.2838 7.23869 28.0774 7.03224C27.8709 6.82579 27.5613 6.61934 27.1484 6.61934C26.6322 6.61934 26.1161 6.82579 25.8064 7.2387C25.4968 7.6516 25.1871 8.16773 25.0838 8.99353C25.0838 9.09676 25.0839 9.19999 24.9806 9.30321C24.9806 9.40644 24.9806 9.50966 24.9806 9.61289C24.9806 10.0258 25.0838 10.4387 25.2903 10.6451C25.4968 10.8516 25.8064 10.9548 26.2193 10.9548C26.8387 10.9548 27.2516 10.8516 27.5613 10.4387Z" fill="#EA2227"/>
<path d="M40.9807 0.838715H46.142C47.1742 0.838715 47.8968 1.04517 48.4129 1.45807C48.9291 1.87097 49.2388 2.49033 49.2388 3.41936C49.2388 3.62581 49.2388 3.72904 49.2388 3.93549C49.2388 4.14194 49.1355 4.34839 49.1355 4.55484C48.9291 5.69033 48.4129 6.51614 47.5871 7.23872C46.7613 7.85807 45.8323 8.27097 44.6968 8.27097H41.9097L41.0839 12.4H38.7097L40.9807 0.838715ZM42.2194 6.20646H44.4904C45.1097 6.20646 45.5226 6.10323 45.9355 5.79355C46.2452 5.48388 46.4517 5.07097 46.6581 4.55484C46.6581 4.45162 46.6581 4.34839 46.6581 4.24517C46.6581 4.14194 46.6581 4.03872 46.6581 4.03872C46.6581 3.62581 46.5549 3.31613 46.2452 3.10968C45.9355 2.90323 45.5226 2.8 44.9033 2.8H42.942L42.2194 6.20646Z" fill="#1398E2"/>
<path d="M42.9419 0.838715H46.0387C47.071 0.838715 47.7935 1.04517 48.3097 1.45807C48.8258 1.87097 49.1355 2.49033 49.1355 3.41936C49.1355 3.62581 49.1355 3.72904 49.1355 3.93549C49.1355 4.14194 49.0323 4.34839 49.0323 4.55484C48.8258 5.69033 48.3097 6.51614 47.4839 7.23872C46.6581 7.85807 45.729 8.27097 44.5935 8.27097H41.8064L40.9806 12.4H38.6064L42.9419 0.838715ZM42.2193 6.20646H44.4903C45.1097 6.20646 45.5226 6.10323 45.9355 5.79355C46.2452 5.48388 46.4516 5.07097 46.6581 4.55484C46.6581 4.45162 46.6581 4.34839 46.6581 4.24517C46.6581 4.14194 46.6581 4.03872 46.6581 4.03872C46.6581 3.62581 46.5548 3.31613 46.2452 3.10968C45.9355 2.90323 45.5226 2.8 44.9032 2.8H42.9419L42.2193 6.20646Z" fill="#0872B9"/>
<path d="M59.7677 13.742C59.0452 15.3936 58.3226 16.3226 57.9097 16.7355C57.4968 17.1484 56.671 18.1807 54.6064 18.0774L54.8129 16.8387C56.4645 16.3226 57.3935 13.9484 57.9097 12.9161L57.2903 5.27744H58.6322H59.7677L59.871 10.129L61.9355 5.27744H64L59.7677 13.742Z" fill="#055093"/>
<path d="M53.9872 5.79355L53.1614 6.41291C52.3356 5.69033 51.5098 5.27743 49.9614 6.00001C47.8969 6.92904 46.142 14.3613 51.8194 11.8839L52.1291 12.2968L54.4001 12.4L55.8453 5.69033L53.9872 5.79355ZM52.6453 9.50968C52.2323 10.5419 51.5098 11.2645 50.8904 11.0581C50.2711 10.8516 50.0646 9.81936 50.3743 8.7871C50.7872 7.75485 51.5098 7.03227 52.1291 7.23872C52.8517 7.44517 53.0582 8.47743 52.6453 9.50968Z" fill="#0872B9"/>
<path d="M50.271 12.4C50.6839 12.2968 51.2 12.1935 51.8194 11.9871L52.1291 12.4L54.4 12.5032L55.8452 5.79355H55.3291C54.2968 8.37419 52.4387 10.6452 50.271 12.4Z" fill="#055093"/>
<path d="M29.5226 5.79356C29.0065 5.27743 28.2839 5.07098 27.4581 5.07098C27.2516 5.07098 27.1484 5.07098 26.942 5.07098C26.7355 5.69034 26.4258 6.30969 26.1162 6.92905C26.4258 6.7226 26.7355 6.61937 27.1484 6.61937C27.5613 6.61937 27.871 6.7226 28.0774 7.03227C28.2839 7.23873 28.3871 7.65163 28.3871 8.06453C28.3871 8.16776 28.3871 8.27098 28.3871 8.37421C28.3871 8.47743 28.3871 8.58066 28.2839 8.78711C28.1807 9.50969 27.871 10.129 27.5613 10.4387C27.2516 10.8516 26.7355 10.9549 26.2194 10.9549C25.8065 10.9549 25.4968 10.8516 25.2903 10.6452C25.0839 10.4387 24.9807 10.0258 24.9807 9.61292C24.9807 9.50969 24.9807 9.40647 24.9807 9.30324C24.9807 9.20002 24.9807 9.09679 25.0839 8.99356C25.0839 8.78711 25.1871 8.68389 25.1871 8.58066C24.671 9.40647 23.9484 10.2323 23.2258 10.9549C23.3291 11.3678 23.5355 11.6774 23.8452 11.9871C24.3613 12.5032 25.0839 12.7097 25.9097 12.7097C26.942 12.7097 27.871 12.4 28.6968 11.6774C29.4194 11.0581 29.9355 10.129 30.142 8.99356C30.142 8.78711 30.2452 8.68389 30.2452 8.47743C30.2452 8.27098 30.2452 8.16776 30.2452 7.96131C30.2452 6.92905 30.0387 6.30969 29.5226 5.79356Z" fill="#A5002F"/>
</svg>
